<?xml version="1.0" standalone="no"?>
<!DOCTYPE svg PUBLIC "-//W3C//DTD SVG 1.1//EN" "http://www.w3.org/Graphics/SVG/1.1/DTD/svg11.dtd" >
<svg xmlns="http://www.w3.org/2000/svg" xmlns:xlink="http://www.w3.org/1999/xlink" version="1.1">
<metadata>
Created by FontForge 20161116 at Sun Jul 13 04:17:17 2008
 By Jimmy Wärting
(c) Copyright 2008 by PhungVanChien Ha Noi. Font chu viet tay. 
</metadata>
<defs>
<font id="UNIChuviettay" horiz-adv-x="395" >
  <font-face 
    font-family="UNI Chu viet tay"
    font-weight="400"
    font-stretch="normal"
    units-per-em="1000"
    panose-1="3 3 3 2 3 8 7 7 12 3"
    ascent="800"
    descent="-200"
    x-height="305"
    cap-height="818"
    bbox="-243 -558 1532 1802"
    underline-thickness="30"
    underline-position="-120"
    unicode-range="U+0020-F002"
  />
<missing-glyph horiz-adv-x="1024" 
d="M128 0v1802h768v-1802h-768zM256 128h512v1546h-512v-1546z" />
    <glyph glyph-name=".notdef" horiz-adv-x="1024" 
d="M128 0v1802h768v-1802h-768zM256 128h512v1546h-512v-1546z" />
    <glyph glyph-name=".null" horiz-adv-x="206" 
d="M164.5 53q27.5 29 57 64.5t53.5 70.5l6 -5q-25 -36 -54.5 -73t-58 -66.5t-30 -24.5t26 34z" />
    <glyph glyph-name="nonmarkingreturn" horiz-adv-x="292" 
d="M-15 85q39 39 86 105l3 -13q-47 -65 -84 -97z" />
    <glyph glyph-name="space" unicode=" " horiz-adv-x="400" 
 />
    <glyph glyph-name="exclam" unicode="!" horiz-adv-x="244" 
d="M111 126l129 401h73l-182 -401h-20zM63 24q0 16 12 31t29 15q12 0 20 -8.5t8 -20.5q0 -16 -12 -31t-28 -15q-12 0 -20.5 8.5t-8.5 20.5z" />
    <glyph glyph-name="quotedbl" unicode="&#x22;" horiz-adv-x="168" 
d="M56 339l49 219h43l-78 -219h-14zM146 339l49 219h43l-78 -219h-14z" />
    <glyph glyph-name="numbersign" unicode="#" horiz-adv-x="1294" 
d="M990 405q59 11 105 33q11 24 21 48t21 50q9 22 24.5 58t34.5 69.5t40.5 58t42.5 24.5q23 0 34 -22t11 -48q0 -30 -15.5 -64t-44 -67t-69 -62.5t-90.5 -51.5q-19 -40 -31 -68t-22 -50.5t-20.5 -42.5t-24.5 -45.5t-34.5 -59.5t-50.5 -84q-6 -10 -18.5 -28t-26 -36.5
t-27 -34t-20.5 -20.5q-5 -4 -12 -4q-11 0 -11 9q0 5 3 11q6 15 17 44t22.5 71.5t20 97t9.5 120.5q1 57 9 120t19.5 123t25.5 111t28 84q-18 -24 -39.5 -65.5t-43 -88.5t-42.5 -94t-38 -81q-54 -110 -117 -199.5t-134.5 -152.5t-151.5 -97.5t-168 -34.5q-42 0 -83 11t-73 34
t-51.5 58.5t-19.5 84.5q0 57 25.5 101.5t65.5 76t90 48t100 16.5q28 0 58.5 -5.5t55 -18.5t40.5 -35.5t16 -56.5q0 -41 -24 -73.5t-60.5 -55t-79 -34.5t-78.5 -12q-11 0 -23 1t-26 3l2 10q21 -3 39 -3q35 0 77 11t78.5 33.5t61 55.5t24.5 77q0 33 -38 58t-107 25
q-44 0 -93.5 -19t-92 -51t-70.5 -74t-28 -89q0 -43 19 -74.5t50.5 -52t71.5 -30.5t81 -10q63 0 120 18.5t108 51t96 76.5t84 94t71 103.5t58 105.5q6 13 20.5 45.5t33.5 73.5t40.5 86t42.5 83t39 64t30 30q6 2 9 2q7 0 7 -5q-6 -14 -12.5 -35t-11.5 -47t-8.5 -55t-3.5 -58
q0 -13 -1 -41.5t-3.5 -68t-7 -86t-12.5 -95t-20 -95t-28 -85.5q-11 -28 -29 -64t-30 -64q10 7 26 26t31.5 41t29 41.5t18.5 28.5q43 74 82 150t75 157q-23 -9 -48.5 -16t-52.5 -12zM1229 383q18 0 31 -8t22 -21t13 -29.5t4 -34.5q0 -29 -9 -56t-23.5 -48.5t-33.5 -34.5
t-39 -13q-34 0 -59 29t-25 74q0 27 10 53t26.5 45.5t38 31.5t44.5 12zM1235 366q-18 0 -34 -17.5t-28 -42t-19 -50.5t-7 -43q0 -26 12 -42.5t31 -16.5q21 0 38 12.5t30 33t20 45.5t7 50q0 35 -15 53t-35 18zM1112 446q49 25 86 58.5t61.5 67t36.5 63t12 47.5q0 7 -0.5 16.5
t-2.5 18t-7.5 14t-14.5 5.5q-21 0 -39 -20.5t-36 -55.5t-37 -81.5t-43 -98.5zM1081 61h183l-8 -24h-183z" />
    <glyph glyph-name="dollar" unicode="$" horiz-adv-x="392" 
d="M48 -206q-25 6 -47 19.5t-38.5 33.5t-26 48t-9.5 64q0 29 16.5 47t41.5 18q32 0 44.5 -14t12.5 -28q0 -11 -6 -19t-14 -8q-11 0 -23 9t-20 26q-18 0 -26.5 -9.5t-8.5 -26.5q0 -63 31.5 -100.5t75.5 -48.5l141 416q-16 36 -31.5 73t-28 74.5t-20 76.5t-7.5 78q0 53 20 94
t52 69t72 42.5t80 14.5q22 0 39 -4l19 56h18l-21 -60q50 -14 83.5 -54.5t33.5 -110.5q0 -29 -16.5 -47t-41.5 -18q-29 0 -43.5 15t-14.5 30q0 10 6 17t18 7q17 0 24.5 -7.5t15.5 -27.5q18 0 26.5 9.5t8.5 26.5q0 60 -30 98t-73 52l-149 -438q15 -35 30.5 -70.5t28 -71.5
t20.5 -73.5t8 -76.5q0 -50 -20 -88.5t-51.5 -64.5t-71 -40t-79.5 -14q-18 0 -34 3l-16 -47h-16zM164 535q0 -60 17.5 -115.5t40.5 -110.5l142 420q-15 4 -33 4q-31 0 -61 -12t-53.5 -36t-38 -61.5t-14.5 -88.5zM260 -10q0 51 -17.5 102.5t-40.5 106.5l-136 -397
q6 -1 12 -1.5t12 -0.5q31 0 61.5 12t54.5 35.5t39 59t15 83.5z" />
    <glyph glyph-name="percent" unicode="%" horiz-adv-x="468" 
d="M112 -25l282 575h23l-283 -575h-22zM377 229q18 0 31 -8t22 -21t13 -29.5t4 -34.5q0 -29 -9 -56t-23.5 -48.5t-33.5 -34.5t-39 -13q-34 0 -59 29t-25 74q0 27 10 53t26.5 45.5t38 31.5t44.5 12zM383 212q-18 0 -34 -17.5t-28 -42t-19 -50.5t-7 -43q0 -26 12 -42.5
t31 -16.5q21 0 38 12.5t30 33t20 45.5t7 50q0 35 -15 53t-35 18zM198 539q18 0 31 -8t22 -21t13 -29.5t4 -34.5q0 -29 -9 -56t-23.5 -48.5t-33.5 -34.5t-39 -13q-34 0 -59 29t-25 74q0 27 10 53t26.5 45.5t38 31.5t44.5 12zM204 522q-18 0 -34 -17.5t-28 -42t-19 -50.5
t-7 -43q0 -26 12 -42.5t31 -16.5q21 0 38 12.5t30 33t20 45.5t7 50q0 35 -15 53t-35 18z" />
    <glyph glyph-name="ampersand" unicode="&#x26;" horiz-adv-x="623" 
d="M568 625q0 -33 -16.5 -59.5t-45 -49t-66 -42.5t-78.5 -39q-14 -39 -25.5 -80t-19.5 -83q11 3 22.5 5t23.5 2q22 0 42 -7t35 -20.5t24 -33t9 -44.5q0 -28 -9.5 -52.5t-25.5 -46t-37 -39t-45 -30.5q11 -8 25.5 -12.5t33.5 -4.5q44 0 92.5 31t90.5 76l6 -10
q-18 -20 -40.5 -39.5t-47.5 -35t-50 -25.5t-48 -10q-41 0 -77 22q-30 -14 -60.5 -22t-56.5 -8q-37 0 -71 12t-60.5 34.5t-42.5 53.5t-16 70q0 62 26.5 108t69.5 80.5t96.5 60.5t106.5 50q23 48 49 90t51.5 74t49 50.5t41.5 18.5q44 0 44 -45zM174 151q16 29 39 55t52 44
q10 41 25 83t34 84q-51 -24 -101 -49.5t-89 -57.5t-63.5 -71.5t-24.5 -91.5q0 -34 10.5 -63t32.5 -50.5t55.5 -33.5t79.5 -12q20 0 44 7.5t48 20.5q-29 26 -46 61.5t-17 74.5q0 18 2 38t6 41q-26 -20 -44.5 -43.5t-29.5 -44.5zM365 265q-27 0 -51 -8q-9 -54 -9 -103
q0 -32 5.5 -66.5t23.5 -60.5q23 14 44.5 32.5t37.5 39t25.5 42.5t9.5 44q0 35 -23 57.5t-63 22.5zM532 654q-21 0 -43 -15.5t-43 -42.5t-40.5 -64t-36.5 -79q38 17 71.5 35t59 38t40 44.5t14.5 54.5q0 11 -5.5 20t-16.5 9z" />
    <glyph glyph-name="quotesingle" unicode="'" horiz-adv-x="78" 
d="M56 339l49 219h43l-78 -219h-14z" />
    <glyph glyph-name="parenleft" unicode="(" horiz-adv-x="308" 
d="M122 -119q-27 69 -41 138.5t-14 138.5q0 87 23.5 168t71.5 148t121.5 117t173.5 75l10 -14q-86 -21 -154 -72.5t-114.5 -124t-71 -161.5t-24.5 -185q0 -56 8.5 -112.5t26.5 -113.5z" />
    <glyph glyph-name="parenright" unicode=")" horiz-adv-x="284" 
d="M245 666q27 -69 40.5 -139t13.5 -138q0 -87 -23 -168t-71 -148t-121.5 -117t-173.5 -75l-10 14q86 21 154 72.5t114.5 124t71 161t24.5 184.5q0 113 -35 227z" />
    <glyph glyph-name="asterisk" unicode="*" horiz-adv-x="273" 
d="M247 444l-29 -49l9 -10l44 18l10 -35l-48 -2l-5 -13l33 -27l-26 -28l-23 41l-12 -1l-8 -44l-35 10l23 42l-5 7l-44 -14l-8 35l50 6l3 5l-44 38l30 26l30 -51l10 2l12 53z" />
    <glyph glyph-name="plus" unicode="+" horiz-adv-x="416" 
d="M281 342l-38 -125h127l-10 -34h-127l-36 -118h-37l36 118h-129l10 34h130l39 125h35z" />
    <glyph glyph-name="comma" unicode="," horiz-adv-x="136" 
d="M-3 -90q38 13 51.5 38.5t13.5 69.5q0 31 11.5 46t24.5 15q9 0 16 -8t7 -24t-8.5 -38t-23.5 -44t-36.5 -39.5t-47.5 -24.5z" />
    <glyph glyph-name="hyphen" unicode="-" horiz-adv-x="356" 
d="M77 217h233l-10 -34h-233z" />
    <glyph glyph-name="hyphen" unicode="&#x2010;" horiz-adv-x="356" 
d="M77 217h233l-10 -34h-233z" />
    <glyph glyph-name="period" unicode="." horiz-adv-x="147" 
d="M63 24q0 16 12 31t29 15q12 0 20 -8.5t8 -20.5q0 -16 -12 -31t-28 -15q-12 0 -20.5 8.5t-8.5 20.5z" />
    <glyph glyph-name="slash" unicode="/" horiz-adv-x="296" 
d="M382 706h23l-392 -795h-21z" />
    <glyph glyph-name="zero" unicode="0" horiz-adv-x="410" 
d="M452 329q-1 -16 -7.5 -32t-17 -29t-24 -21.5t-28.5 -8.5h-10q-17 -36 -44.5 -80.5t-61 -83.5t-69.5 -66t-69 -27q-23 0 -41.5 14.5t-31.5 35.5t-20.5 45t-7.5 44q0 47 17.5 94t45.5 90.5t62.5 81t69.5 65t66 43.5t52 16q19 0 32 -8t20.5 -22t11 -32.5t3.5 -39.5
q0 -22 -3 -45t-8 -44t-10.5 -38.5t-9.5 -28.5q5 -2 17 -2t22.5 9.5t18.5 22.5t12.5 26.5t5.5 21.5zM71 71q0 -16 2 -31.5t8 -27.5t16.5 -19t28.5 -7t40.5 14.5t46 37.5t46.5 52t42.5 58t34 54.5t20.5 42.5q-14 14 -20 37t-6 44q0 30 13 58.5t38 49.5q1 4 1 17q0 20 -15 33.5
t-34 13.5q-26 0 -43.5 -13t-34.5 -28q-35 -31 -68 -78.5t-59 -100.5t-41.5 -107.5t-15.5 -99.5z" />
    <glyph glyph-name="one" unicode="1" horiz-adv-x="260" 
d="M334 528q-20 -58 -45.5 -125.5t-51.5 -138t-50 -140.5t-41 -131h-72l180 434q-45 -60 -101 -107t-126 -82v20q44 19 86.5 50.5t79 68.5t64.5 76.5t43 75.5z" />
    <glyph glyph-name="two" unicode="2" horiz-adv-x="385" 
d="M24 -20q-15 0 -15 14q0 11 6.5 24t11.5 19q25 32 62 66.5t77 69.5l80 70t72 69t51.5 65.5t19.5 59.5q0 39 -18 57t-49 18q-17 0 -35.5 -9t-35.5 -21.5t-32 -27t-25 -25.5q-25 -26 -40 -57t-15 -59q0 -23 12.5 -28t22.5 -5q22 0 40.5 9t33.5 23t27 31t23 34l6 -4
q-11 -18 -25 -36t-31 -32.5t-36.5 -23.5t-41.5 -9q-28 0 -39.5 19.5t-11.5 45.5q0 36 15.5 69.5t42 58.5t62.5 40t77 15q51 0 82.5 -34t31.5 -88q0 -36 -20.5 -65t-50.5 -53t-64 -44t-61 -38q-32 -22 -68.5 -48.5t-65.5 -55.5q37 20 68.5 34t61.5 14q23 0 37.5 -10.5
t14.5 -37.5q0 -12 -5 -24t-11.5 -23t-11.5 -22t-5 -21q0 -5 1.5 -8.5t6.5 -3.5q15 0 30 7.5t29.5 19.5t27.5 27t24 30l4 -4q-35 -48 -66 -67t-53 -19q-16 0 -25.5 12.5t-9.5 28.5q0 13 4 24.5t8.5 22.5t8.5 22t4 23q0 10 -6.5 13t-18.5 3q-15 0 -38.5 -9.5t-48.5 -23
t-47 -28.5t-34 -27q2 -8 2 -16q0 -16 -6 -33.5t-22 -17.5z" />
    <glyph glyph-name="three" unicode="3" horiz-adv-x="376" 
d="M18 56q0 19 5.5 34t14 25.5t18.5 16.5t19 6q8 0 14 -6t6 -20q0 -15 -7 -24.5t-17.5 -16.5t-22.5 -11.5t-22 -9.5q0 -31 17 -43.5t39 -12.5q39 0 79.5 20.5t73.5 51.5t54 65.5t21 63.5q0 16 -9.5 33.5t-26.5 17.5q-16 0 -28 -8.5t-29 -8.5q-5 0 -8.5 3t-3.5 7
q0 12 9.5 15.5t21.5 3.5h24q13 0 19 5q41 33 68 80t27 95q0 67 -64 67q-22 0 -48.5 -17t-49 -41.5t-38 -52.5t-15.5 -49q0 -13 4 -20.5t10 -11t13 -4.5t13 -1q23 0 43.5 12.5t36.5 29t26.5 32.5t14.5 24v-16q-5 -10 -16.5 -25.5t-28.5 -30.5t-38.5 -25.5t-46.5 -10.5
q-27 0 -43.5 21.5t-16.5 48.5q0 25 17 50.5t44 46.5t59.5 34.5t64.5 13.5q22 0 42 -7.5t35.5 -21t24.5 -32t9 -40.5q0 -29 -13.5 -54t-35 -45t-48 -35t-51.5 -24q13 -6 27.5 -14.5t26 -19.5t19 -24.5t7.5 -30.5q0 -26 -13 -49.5t-34.5 -44.5t-49.5 -38t-57 -29t-57.5 -18.5
t-51.5 -6.5q-36 0 -56.5 21t-20.5 56z" />
    <glyph glyph-name="four" unicode="4" horiz-adv-x="421" 
d="M394 314l-79 -186q8 -1 15 -1h14q20 0 38 4t32 14l-2 -14q-26 -14 -50 -19.5t-47 -5.5h-9l-48 -113h-52l45 119q-27 5 -53.5 10.5t-54.5 5.5q-11 0 -24.5 -2.5t-28.5 -6.5q-18 -23 -32 -32.5t-22 -9.5q-13 0 -13 17q0 11 14.5 23t48.5 24q31 42 61.5 84t59.5 88
t57.5 97.5t56.5 113.5l97 4l-309 -383q17 4 31.5 5t25.5 1q18 0 42.5 -5t51.5 -10l63 168z" />
    <glyph glyph-name="five" unicode="5" horiz-adv-x="357" 
d="M56 -20q-34 0 -48 21.5t-14 48.5q0 39 17.5 59t34.5 20q12 0 17.5 -7t5.5 -17q0 -9 -4.5 -19.5t-13 -19t-20.5 -14.5t-28 -6q1 -33 17.5 -44.5t37.5 -11.5q33 0 72.5 27t73 69t56.5 92.5t23 98.5q0 33 -15 47t-38 14q-27 0 -56 -14.5t-44 -35.5q0 -5 -2 -15.5t-6.5 -21
t-11.5 -18.5t-17 -8q-6 0 -10.5 5t-4.5 9q0 20 12.5 35t26.5 27q1 3 8 20t17 40.5t21 50.5t21 49.5t16.5 37.5t8.5 15h42q1 -8 2.5 -18.5t5.5 -19.5t11.5 -15.5t19.5 -6.5q17 0 35.5 8.5t37 21.5t35.5 29t32 30l8 -12q-12 -14 -31.5 -32t-43.5 -34.5t-50.5 -27.5t-53.5 -11
q-12 0 -21 5.5t-15.5 13.5t-11.5 17t-9 16l-63 -164q24 19 46.5 27.5t42.5 8.5q24 0 43.5 -11t33.5 -29.5t21.5 -43.5t7.5 -52q0 -39 -30 -80.5t-73 -75.5t-91 -56t-84 -22z" />
    <glyph glyph-name="six" unicode="6" 
d="M129 144q13 28 30 56.5t39 51.5t47.5 37.5t54.5 14.5q18 0 31.5 -9t22 -22.5t12.5 -30.5t4 -32q0 -30 -12 -59t-31 -54.5t-43.5 -47t-48.5 -37t-46 -24t-37 -8.5q-32 0 -55 17t-38 43t-22.5 57t-7.5 59q0 35 17.5 76t46.5 81.5t65 78t73 66.5t71.5 46t59.5 17
q29 0 43 -19t14 -47q0 -9 -2.5 -21t-8 -22t-14.5 -17t-21 -7q-29 0 -29 25q0 10 5 22t13 23t18 19.5t20 11.5q-7 13 -14.5 17t-18.5 4q-29 0 -61.5 -20.5t-64 -54.5t-59.5 -78.5t-49.5 -93t-34 -97t-12.5 -91.5q0 -42 12 -59.5t41 -17.5q34 0 69.5 27t64.5 65.5t47 81.5
t18 76q0 4 -0.5 11.5t-3.5 14t-10 11.5t-19 5q-34 0 -60.5 -16t-46.5 -40t-34.5 -51t-24.5 -49z" />
    <glyph glyph-name="seven" unicode="7" horiz-adv-x="334" 
d="M159 301h78q22 35 44.5 71t50.5 82q-21 -17 -45.5 -31.5t-54.5 -14.5q-20 0 -32 10.5t-12 31.5q0 15 6 27.5t6 28.5q0 5 -3 9t-9 4q-12 0 -31 -18t-38.5 -42t-35 -49.5t-21.5 -40.5l-8 3q6 20 24.5 47.5t40 52.5t43 42.5t34.5 17.5q18 0 32.5 -10t14.5 -28
q0 -17 -5.5 -29.5t-5.5 -27.5t11 -15t25 5.5t28.5 13.5t27.5 18t22 19q9 24 22.5 42t26.5 18q5 0 10 -4t5 -10q0 -9 -6 -17t-14.5 -15.5t-19 -14.5l-19.5 -13l-83 -163h102l-8 -23l-102 6q-38 -75 -71 -149.5t-53 -143.5h-72q27 54 49.5 96t42 77t37.5 64.5t35 57.5l-73 5z
" />
    <glyph glyph-name="eight" unicode="8" horiz-adv-x="376" 
d="M335 320q-17 -14 -38 -26.5t-44 -26.5q30 -20 54 -44t24 -59q0 -30 -21 -62.5t-53 -59.5t-71.5 -44.5t-75.5 -17.5q-22 0 -39.5 9.5t-30 24.5t-19.5 35t-7 41q0 24 15 44t39.5 38t55.5 35t64 34q-28 18 -49.5 39t-21.5 51q0 45 27.5 79t63.5 57.5t71 35.5t49 12
q35 0 56.5 -19t21.5 -55q0 -29 -13.5 -53t-46.5 -58q0 -6 6.5 -7t9.5 -1q35 0 65 36l2 -8q-17 -24 -39.5 -33t-31.5 -9q-7 0 -12 3.5t-11 8.5zM284 131q0 18 -7.5 32.5t-19.5 27t-27.5 23t-31.5 20.5q-29 -18 -56.5 -37.5t-48.5 -42t-33.5 -47.5t-12.5 -54t19 -47.5
t48 -18.5q25 0 55 11t55.5 30.5t42.5 46t17 56.5zM162 366q0 -16 7 -28.5t18.5 -24t26.5 -21.5t31 -20q23 14 42.5 28t35.5 30q-1 3 -1 7v7q0 24 11 39t24.5 25t25 17t11.5 16q0 31 -21 46.5t-50 15.5t-57.5 -14.5t-51.5 -35.5t-37.5 -44.5t-14.5 -42.5z" />
    <glyph glyph-name="nine" unicode="9" horiz-adv-x="435" 
d="M339 374q-12 -38 -30.5 -70.5t-41 -57t-49.5 -38.5t-56 -14q-18 0 -31 9.5t-22 23.5t-13 31.5t-4 32.5q0 30 13 59t33.5 54.5t46 47t49.5 37t44.5 24t31.5 8.5q31 0 53.5 -17t36.5 -43t20.5 -57t6.5 -59q0 -34 -18 -74t-47 -80.5t-66 -78t-74.5 -67t-72.5 -47t-60 -17.5
q-20 0 -33 7t-20.5 19t-10.5 27t-3 31q0 9 2.5 22t8.5 24t15 19t21 8q16 0 22.5 -7t6.5 -18q0 -20 -17.5 -42.5t-46.5 -28.5q0 -18 12 -33t38 -15q29 0 62.5 20t66 54t62 78t52 92t36 96.5t13.5 91.5q0 42 -12 59t-41 17q-36 0 -71.5 -26.5t-64 -65t-46 -81.5t-17.5 -76
q0 -5 1 -12.5t4.5 -15t10.5 -13t19 -5.5q34 0 61.5 15t49 40t36.5 56.5t25 63.5z" />
    <glyph glyph-name="colon" unicode=":" horiz-adv-x="213" 
d="M63 24q0 16 12 31t29 15q12 0 20 -8.5t8 -20.5q0 -16 -12 -31t-28 -15q-12 0 -20.5 8.5t-8.5 20.5zM127 251q0 16 12 31t29 15q12 0 20 -8.5t8 -20.5q0 -16 -12.5 -31t-28.5 -15q-12 0 -20 8.5t-8 20.5z" />
    <glyph glyph-name="semicolon" unicode=";" horiz-adv-x="202" 
d="M-3 -93q38 13 51.5 38.5t13.5 69.5q0 31 11.5 46t24.5 15q9 0 16 -8t7 -24t-8.5 -38t-23.5 -44t-36.5 -39.5t-47.5 -24.5zM126 251q0 16 12 31t29 15q12 0 20 -8.5t8 -20.5q0 -16 -12.5 -31t-28.5 -15q-12 0 -20 8.5t-8 20.5z" />
    <glyph glyph-name="less" unicode="&#x3c;" horiz-adv-x="264" 
d="M165 38l-103 183l207 179l11 -12l-177 -173l78 -173z" />
    <glyph glyph-name="equal" unicode="=" horiz-adv-x="416" 
d="M94 284h293l-10 -34h-293zM61 150h293l-10 -34h-293z" />
    <glyph glyph-name="greater" unicode="&#x3e;" horiz-adv-x="212" 
d="M104 400l103 -183l-207 -179l-11 12l177 173l-78 173z" />
    <glyph glyph-name="question" unicode="?" horiz-adv-x="309" 
d="M110 118q7 35 24 62t38 50t43.5 44t41 43.5t30.5 48.5t12 59q0 64 -48 64q-23 0 -43.5 -9t-35.5 -21.5t-24 -24.5t-9 -18q19 0 33 -10t14 -33q0 -17 -10 -25t-22 -8q-14 0 -25.5 10.5t-11.5 31.5q0 22 11.5 42.5t30.5 37t44 26.5t51 10q42 0 67.5 -26t25.5 -71
q0 -36 -13.5 -62t-35 -46t-47.5 -37.5t-50.5 -37t-44.5 -45t-29 -60.5zM46 24q0 16 12 31t29 15q12 0 20 -8.5t8 -20.5q0 -16 -12 -31t-28 -15q-12 0 -20.5 8.5t-8.5 20.5z" />
    <glyph glyph-name="at" unicode="@" horiz-adv-x="674" 
d="M453 258q0 18 -9 37.5t-29 19.5q-21 0 -45.5 -27t-45.5 -68t-35.5 -89.5t-14.5 -91.5q0 -21 5.5 -36t19.5 -15q26 0 53.5 28t50 69t36.5 88t14 85zM41 130q0 49 19 93.5t51 83t75 69t91 52.5t97.5 34t96.5 12q43 0 81 -11t66.5 -34.5t45 -60t16.5 -88.5t-20 -106
t-51.5 -98.5t-69.5 -72.5t-74 -28q-15 0 -24.5 8.5t-15.5 23.5t-8 34.5t-2 40.5q-7 -11 -18.5 -30t-26 -37t-31 -31t-34.5 -13q-8 0 -22 6.5t-27 23.5t-22.5 45.5t-9.5 73.5q0 26 22 62t52.5 69t62 56t51.5 23q6 0 14 -2t16 -9.5t14.5 -21.5t10.5 -37l13 45h56
q-45 -126 -66 -201t-21 -106q0 -4 1.5 -7.5t9.5 -3.5q36 0 73 27.5t66 70t47.5 94.5t18.5 102q0 47 -12.5 80.5t-34.5 54.5t-52 31t-64 10q-63 0 -134 -29.5t-131 -79t-99.5 -115t-39.5 -137.5q0 -40 7 -65t37 -42l-3 -5q-47 11 -72.5 52t-25.5 94z" />
    <glyph glyph-name="A" unicode="A" horiz-adv-x="1077" 
d="M167 101q21 -7 50 -7q36 0 74.5 11.5t71 32.5t53 51t20.5 66q0 25 -9 43t-25 30t-37 17.5t-46 5.5q-46 0 -98.5 -18t-97.5 -49.5t-74.5 -76t-29.5 -96.5q0 -29 13 -57t40 -50t69.5 -35.5t101.5 -13.5q56 0 108 16.5t100.5 46t94 70t87.5 87.5q-23 33 -35 72.5t-12 84.5
q0 32 7 61.5t22 52t40 36t61 13.5q34 0 60.5 -18t46.5 -47q48 72 91.5 140.5t84 124t78 93.5t73.5 50q3 0 13 -2t10 -15q0 -7 -4 -16q-21 -44 -44.5 -101.5t-48 -123t-48.5 -136t-46.5 -139.5t-42 -134t-40.5 -136q35 -1 63 4.5t62 24.5t63.5 50.5t55.5 73.5l6 -5
q-29 -44 -57.5 -76.5t-58.5 -51t-61 -27.5t-77 -9q-10 -41 -14 -58h-59q8 28 18 65q-62 17 -109.5 49t-88.5 87q-44 -48 -90.5 -89t-97 -71t-105 -47t-112.5 -17q-40 0 -82 9.5t-76.5 31t-56.5 56t-22 83.5q0 62 28.5 112.5t73 86t97.5 55t102 19.5q31 0 58.5 -8.5t48 -26
t32.5 -45t12 -64.5q0 -35 -23 -65.5t-58.5 -54t-78.5 -37t-83 -13.5q-26 0 -48 6zM1144 817q-33 -14 -68 -52t-73.5 -92.5t-81 -121t-89.5 -136.5q28 -48 40.5 -107t12.5 -106v-18q27 83 61 177t70 181t70.5 158.5t62.5 109.5q0 7 -5 7zM824 402q-38 -56 -77.5 -110.5
t-83.5 -105.5q32 -51 78 -86t104 -54q8 29 13 48.5t11 41.5q3 15 4 30t1 31q0 55 -12 109.5t-38 95.5zM654 200q43 51 82.5 105.5t77.5 111.5q-20 27 -47 43t-62 16q-27 0 -44.5 -10.5t-27.5 -28t-14 -39.5t-4 -46q0 -42 10.5 -80.5t28.5 -71.5z" />
    <glyph glyph-name="B" unicode="B" horiz-adv-x="1080" 
d="M866 260q-34 -8 -72 -24t-70.5 -40t-53.5 -56.5t-21 -74.5q0 -37 23.5 -61.5t61.5 -24.5q36 0 71 15.5t66.5 42t58 60.5t45.5 71t30 74.5t11 70.5q0 35 -19 64t-50 46q-52 -23 -99 -23q-13 0 -25.5 7t-12.5 21q0 11 5.5 17.5t13.5 10.5t17.5 5t17.5 1q20 0 40.5 -5.5
t39.5 -14.5q29 18 53 44t40.5 56.5t25.5 63t9 62.5q0 54 -31 88.5t-76 53.5q-32 -28 -60 -79.5t-56 -117.5t-59 -140.5t-69 -148t-85.5 -141.5t-109.5 -120t-140.5 -83t-178.5 -31q-54 0 -93 14t-64.5 38.5t-37.5 56.5t-12 68q0 45 28.5 87.5t72 75.5t95 53t98.5 20
q26 0 49 -6.5t39.5 -20.5t26 -35.5t9.5 -52.5q0 -35 -23 -66t-58.5 -54.5t-78.5 -37.5t-83 -14q-26 0 -48 6l6 20q21 -7 50 -7q36 0 74.5 11.5t71 32.5t53 51t20.5 66q0 47 -31 68t-77 21q-42 0 -90 -16.5t-88.5 -47t-67 -72.5t-26.5 -93q0 -30 10.5 -57t34 -47.5t60 -33
t87.5 -12.5q85 0 148.5 24.5t112.5 66.5t86.5 99.5t70.5 123.5t64 137t67.5 141.5t80.5 137t103 122.5q-35 13 -71 18.5t-62 5.5q-86 0 -170.5 -24.5t-151.5 -65t-108.5 -94.5t-41.5 -112q0 -44 8.5 -69.5t23.5 -39t34.5 -18.5t42.5 -8q36 0 77.5 15t77 42t58.5 63.5
t23 78.5q0 38 -26.5 53.5t-73.5 15.5q-27 0 -53.5 -17t-49 -42.5t-37.5 -54t-18 -51.5l-16 7q6 24 22 54t40 56.5t56 44t69 17.5q19 0 38 -4t34 -14t24 -27t9 -42q0 -47 -19 -86.5t-51 -68t-73 -44.5t-86 -16q-69 0 -110.5 35.5t-41.5 109.5q0 48 22.5 91t60 78.5t86 64
t101.5 48t106.5 30t100.5 10.5q38 0 79.5 -6.5t80.5 -19.5q34 30 73 56.5t85 47.5l9 -14q-29 -11 -69 -35.5t-77 -61.5q31 -12 58.5 -29t47.5 -39t32 -49t12 -60q0 -32 -14 -63.5t-37 -60t-53.5 -52.5t-63.5 -40q45 -29 75.5 -73.5t30.5 -91.5q0 -31 -15 -65.5t-40 -67.5
t-58 -63.5t-69.5 -53.5t-74 -36.5t-71.5 -13.5q-47 0 -76.5 25t-29.5 74q0 42 20.5 75.5t53 59.5t71.5 44t76 29zM846 413q42 0 82 19q-33 14 -69 14q-19 0 -28 -4.5t-9 -9.5q0 -12 6.5 -15.5t17.5 -3.5z" />
    <glyph glyph-name="C" unicode="C" horiz-adv-x="789" 
d="M400 -201q-5 13 -14 53t-10 115q-39 9 -69.5 31.5t-51.5 54.5t-31.5 71t-10.5 80q0 40 8.5 80.5t23.5 80.5q-19 -3 -37.5 -4t-35.5 -1q-42 0 -85.5 10t-79.5 33t-59 61t-23 94q0 62 26 109.5t69 82.5t98.5 58t114.5 37t117 19.5t106 5.5q22 0 35 -0.5t29 -1.5l-1 -20
q-24 2 -48 3.5t-48 1.5q-87 0 -170.5 -22t-149 -62.5t-105.5 -98t-40 -127.5q0 -47 16.5 -79t45.5 -51.5t69.5 -28t87.5 -8.5q35 0 74 6q27 64 68 125t90 115t103 99.5t106 78t99 50.5t82 18q24 0 41.5 -15.5t17.5 -42.5q0 -42 -22 -85.5t-60.5 -85.5t-90.5 -82t-111.5 -74
t-124 -60.5t-127.5 -42.5q-29 -64 -44.5 -127.5t-15.5 -120.5q0 -15 3.5 -38.5t15.5 -47t34.5 -43t60.5 -27.5v7q0 89 23.5 162.5t62 126t88 81.5t101.5 29q53 0 82.5 -29.5t29.5 -80.5q0 -61 -29.5 -117t-77.5 -99t-108.5 -69t-122.5 -26q-20 0 -36 3q0 -42 5.5 -86.5
t14.5 -74.5zM801 852q-58 0 -123.5 -38.5t-129.5 -101.5t-121 -145t-97 -169q61 17 123 43t119 59t107.5 71.5t87.5 79t58.5 81t21.5 78.5q0 22 -16.5 32t-29.5 10zM664 366q-56 0 -106 -37.5t-87.5 -95t-59.5 -126.5t-22 -133q6 -1 13 -1.5t15 -0.5q58 0 117.5 23.5t108 65
t79 97t30.5 118.5q0 40 -23 65t-65 25z" />
    <glyph glyph-name="D" unicode="D" horiz-adv-x="957" 
d="M187 92q-4 23 -6 48.5t-2 51.5q0 18 1 37t3 38q-29 26 -46.5 73t-17.5 125q0 66 40.5 129t107.5 112.5t153.5 79.5t178.5 30q64 0 125.5 -17t115.5 -50q32 35 73 66.5t93 59.5l5 -11q-60 -32 -98 -61.5t-63 -59.5q35 -24 64.5 -54.5t51 -68t33.5 -82t12 -95.5
q0 -105 -46.5 -192.5t-122 -151.5t-170.5 -99.5t-192 -35.5q-45 0 -83.5 8t-75.5 19q-43 -13 -90 -20t-99 -7q-11 0 -33 1t-44 5.5t-38.5 15t-16.5 30.5q0 15 10.5 24t26 13.5t32 6t28.5 1.5q33 0 61 -5t54.5 -13t52.5 -17.5t53 -18.5q57 18 100.5 47.5t77.5 67.5t60 83
t49 95q24 52 45 108t46 112.5t57 111.5t77 106q-51 31 -110.5 47t-125.5 16q-91 0 -172.5 -35t-143 -91t-98 -126.5t-36.5 -142.5q0 -34 9.5 -65t31.5 -54q9 61 29.5 119.5t54.5 103.5t82 72.5t111 27.5q47 0 74 -30t27 -73q0 -51 -22.5 -100.5t-59.5 -88.5t-85.5 -63
t-99.5 -24q-27 0 -52 5.5t-46 19.5q-2 -17 -3 -33t-1 -33q0 -24 2.5 -48.5t7.5 -49.5h-17zM996 437q0 99 -42.5 173t-112.5 121q-25 -35 -39.5 -74t-29.5 -88.5t-35 -112t-57 -142.5q-23 -50 -55 -97t-73.5 -88t-93 -74t-112.5 -55q29 -8 62 -13.5t72 -5.5q102 0 195.5 35.5
t165 97t113.5 145t42 178.5zM453 597q-35 0 -74.5 -24.5t-75 -68t-63 -102.5t-39.5 -128q17 -14 40 -21t53 -7q46 0 91 21.5t81 57.5t58.5 82t22.5 95q0 42 -25 68.5t-69 26.5zM126 -19q48 0 89 5t77 14q-51 16 -100.5 30.5t-106.5 14.5q-8 0 -19 -1t-22 -4t-18.5 -8.5
t-7.5 -15.5q0 -13 13.5 -20t31.5 -10.5t36 -4t27 -0.5z" />
    <glyph glyph-name="E" unicode="E" horiz-adv-x="603" 
d="M267 -177q-21 75 -27 146q-63 17 -105 69t-42 134q0 48 26 93.5t66 84.5t88 70t93 52q-20 15 -32 38q-59 -21 -112.5 -32.5t-92.5 -11.5q-100 0 -159.5 44t-59.5 124q0 42 17.5 76.5t46.5 61t68 46t82 32t88 18.5t86 6q12 0 24 -0.5t23 -1.5v-16q-11 2 -22 2h-22
q-66 0 -132 -19.5t-119.5 -53t-86.5 -78.5t-33 -97q0 -37 19.5 -62t49 -40t62.5 -21.5t60 -6.5q49 0 102 11t106 30q-5 12 -7.5 25t-2.5 28q0 24 16 53t42 59t59 57.5t67.5 49.5t67.5 35t59 13q23 0 38.5 -12t15.5 -37q0 -39 -27.5 -77t-72 -73t-101.5 -65.5t-116 -53.5
q3 -27 17 -43q59 25 93 25q26 0 35.5 -10.5t9.5 -22.5q0 -11 -5.5 -17.5t-14 -11t-18 -6t-16.5 -1.5q-24 0 -47.5 6.5t-43.5 20.5q-42 -23 -82.5 -60.5t-73 -81t-52 -89.5t-19.5 -87q0 -67 20 -109t70 -56q-1 8 -1 16v16q0 73 17 135t48.5 107t76.5 70t101 25
q27 0 47.5 -8.5t34 -23.5t20.5 -35t7 -42q0 -49 -23 -98.5t-63 -89.5t-94 -65t-116 -25q-11 0 -21.5 1t-20.5 3q2 -73 25 -142zM253 -23q11 -2 22 -3.5t25 -1.5q58 0 108.5 27t88 66t59.5 82t22 75q0 21 -4 40.5t-13.5 35t-26 24.5t-41.5 9q-53 0 -97.5 -29t-76 -78
t-49 -112t-17.5 -132v-3zM635 820q-28 0 -59 -13.5t-60.5 -36.5t-56 -52.5t-47 -61t-33 -63t-12.5 -57.5q61 25 116 57t97 66t66.5 67.5t24.5 60.5q0 15 -11 24t-25 9zM474 493q-20 0 -40 -5.5t-42 -16.5q18 -16 39 -19.5t31 -3.5q47 0 47 22q0 23 -35 23z" />
    <glyph glyph-name="F" unicode="F" horiz-adv-x="856" 
d="M118 91q9 -4 35 -4q35 0 75.5 11t74.5 32t56.5 50.5t22.5 65.5q0 27 -11.5 43.5t-29 26t-38.5 13t-40 3.5q-45 0 -90 -18.5t-80 -50.5t-57 -75t-22 -92q0 -34 16.5 -59.5t42.5 -43t58.5 -26t65.5 -8.5q57 0 107 15q28 70 66.5 129.5t83.5 107.5t93 84.5t95 60.5
q5 14 9.5 28t9.5 28q16 52 34 100.5t40 92.5t50.5 83t66.5 72q-25 3 -61 8t-78.5 10.5t-91 9.5t-99.5 4t-107 -16.5t-103 -48.5t-77.5 -78.5t-30.5 -105.5q0 -28 9 -53.5t28.5 -45t51 -31.5t76.5 -12q55 0 104 19t85.5 48.5t57.5 63.5t21 64q0 29 -23 51.5t-71 22.5
q-53 0 -105.5 -34t-116.5 -114l-6 11q40 54 74 83.5t62.5 44t51.5 17t42 2.5q43 0 73 -24t30 -69q0 -43 -20.5 -80.5t-56.5 -65.5t-84 -44t-103 -16q-38 0 -73 9t-61 28.5t-41.5 50t-15.5 73.5q0 45 18 84.5t48.5 72.5t71 59.5t85.5 44.5t91.5 27.5t89.5 9.5q46 0 92 -6
t92.5 -13.5t93 -13.5t94.5 -6q19 0 38.5 6.5t35.5 14.5l-2 -15q-33 -22 -76 -35t-86 -13h-10q-36 -37 -58 -75t-37 -80t-27 -89.5t-28 -102.5l-9 -28q23 8 44.5 12t41.5 4q46 0 74 -22t28 -69q0 -39 -19.5 -70.5t-49.5 -56t-66.5 -42t-70 -29t-60.5 -17t-38 -5.5h-5l1 10
q13 2 40 8.5t59.5 18.5t66.5 30t62 41.5t46 53.5t18 67q0 35 -22 52t-59 17q-43 0 -97 -21q-31 -87 -74.5 -155t-95.5 -118.5t-109 -83t-115 -47.5q-14 -38 -23.5 -78t-13.5 -84l-14 2q12 86 39 157q-50 -11 -94 -11q-39 0 -75.5 8t-65 27t-46 49t-17.5 75q0 48 23.5 91.5
t62 75.5t87 51t99.5 19q15 0 36.5 -3.5t41.5 -15t34 -33.5t14 -59q0 -41 -21.5 -71t-55 -50t-74 -29.5t-77.5 -9.5q-17 0 -33 1t-25 4zM316 -22q56 18 103.5 52.5t87 81t71 103t55.5 118.5q-45 -25 -90.5 -60t-87.5 -80t-78 -99t-61 -116z" />
    <glyph glyph-name="G" unicode="G" horiz-adv-x="710" 
d="M134 87q12 -3 35.5 -6t39.5 -3q21 0 52 8.5t60.5 25t50 39t20.5 51.5q0 24 -11 40.5t-28 27.5t-37.5 16t-40.5 5q-34 0 -74 -12.5t-75 -35t-58.5 -54.5t-23.5 -71q0 -43 17.5 -72.5t46.5 -48t65 -26.5t74 -8q41 0 83.5 9.5t81 28t71 46.5t53.5 65q18 32 33 61t28.5 58.5
t27.5 60t31 65.5q-17 -14 -37.5 -28t-42.5 -25.5t-46 -19t-48 -7.5q-20 0 -40 6.5t-38.5 21t-33 36.5t-22.5 53q-6 -1 -11.5 -1h-10.5q-327 0 -327 214q0 71 39.5 122.5t104 84.5t147 49t167.5 16q11 0 35.5 -2t45.5 -7l-4 -14q-23 5 -53 7t-51 2q-87 0 -162.5 -26.5
t-130.5 -66t-86.5 -86.5t-31.5 -88q0 -56 21 -92t60 -57t95 -29t126 -8h11t12 1q-2 11 -3 23.5t-1 26.5q0 38 22 80t58 82.5t81.5 77.5t93.5 65t93.5 44.5t80.5 16.5q15 0 28.5 -2t24 -8.5t17 -18t6.5 -29.5q0 -39 -21.5 -78t-56.5 -76t-81.5 -70.5t-95.5 -61.5t-98.5 -49
t-91.5 -32q0 -20 4 -39.5t12.5 -35t23 -25t35.5 -9.5q36 0 72.5 16t72.5 41t70 55t65 58l9 -12q-14 -14 -34 -33t-32 -29q-12 -110 -49.5 -192.5t-96.5 -137t-137.5 -82t-172.5 -27.5q-30 0 -67 6t-69 24t-53.5 49.5t-21.5 82.5q0 42 23 76.5t58.5 59.5t79.5 39t86 14
q23 0 46.5 -6.5t42.5 -19.5t31 -33t12 -47t-14.5 -52t-40 -44.5t-60 -31t-74.5 -11.5q-7 0 -19 1t-25 3t-26 5.5t-22 8.5zM778 816q-49 0 -95.5 -21t-88 -54.5t-76.5 -76t-60.5 -86.5t-40.5 -85t-17 -71q48 11 99 33t99.5 51t91.5 62.5t75.5 68t51.5 67.5t19 61q0 25 -16 38
t-42 13z" />
    <glyph glyph-name="H" unicode="H" horiz-adv-x="1007" 
d="M758 -185q-16 25 -28 70.5t-19 89.5q-25 3 -48 19t-41 40.5t-28.5 55.5t-10.5 64q0 48 20 108.5t53 126.5q-47 -22 -94.5 -43.5t-94.5 -41.5q-38 -87 -88 -151.5t-102 -108t-102 -65t-88 -21.5q-14 0 -27 2.5t-24 8.5t-17.5 16.5t-6.5 26.5q0 36 32 71t86 70t126 69.5
t152 70.5q18 41 34.5 80.5t31.5 74.5t29 64.5t28 49.5q16 23 32.5 49.5t36.5 52.5q-11 -9 -23.5 -19.5t-26 -20t-28 -16t-27.5 -6.5q-29 0 -40 22.5t-11 47.5q0 13 4 27t8.5 29t8.5 32t4 37q0 23 -16.5 38t-40 24t-48.5 13t-42 4q-59 0 -120.5 -27.5t-111.5 -73t-82 -103.5
t-32 -119q0 -26 7.5 -51t22 -45t36.5 -32.5t52 -12.5q40 0 82.5 20.5t77 53.5t56.5 73.5t22 81.5q0 33 -19 56.5t-58 23.5q-27 0 -52 -13.5t-46 -34.5t-36 -46.5t-22 -50.5l-11 1q6 24 21 51t37.5 50.5t52 38.5t63.5 15q25 0 42 -10.5t27.5 -27t14.5 -37t4 -41.5
q0 -48 -22.5 -87.5t-58.5 -68t-81 -44t-90 -15.5q-32 0 -56.5 11.5t-41.5 31.5t-25.5 46.5t-8.5 55.5q0 62 29.5 123t79.5 109t114.5 77.5t135.5 29.5q33 0 66 -8t58.5 -25.5t41.5 -44t16 -63.5q0 -10 -4 -26.5t-9.5 -33.5t-9.5 -32.5t-4 -22.5q0 -16 15 -16q16 0 41.5 17
t54.5 40t58 47t53 39l15 -8q-48 -26 -84 -71.5t-61.5 -96t-42 -96.5t-23.5 -72q-7 -23 -15 -45.5t-16 -43.5q48 21 96 42.5t95 43.5q37 68 83.5 134t95 117.5t96 83t86.5 31.5q23 0 32 -8t9 -30q0 -44 -26.5 -84.5t-72.5 -79.5t-107.5 -76t-131.5 -72q-24 -46 -44 -91
t-34.5 -84.5t-22.5 -71t-8 -50.5q0 -74 26.5 -108t62.5 -38q-2 15 -3 29.5t-1 25.5q0 51 15 100t41.5 88t63 62.5t80.5 23.5q32 0 55.5 -21t23.5 -56q0 -57 -20.5 -104t-56 -81.5t-83 -54t-101.5 -20.5q6 -40 18.5 -80.5t31.5 -72.5zM720 35q0 -26 3 -54q49 0 94 19.5
t79.5 52t55.5 76.5t21 94q0 13 -4 26t-11.5 24t-19 18t-25.5 7q-41 0 -76 -29t-61 -70.5t-41 -86.5t-15 -77zM69 -32q59 0 108 26t89 68.5t72.5 97.5t59.5 113q-77 -34 -145.5 -67.5t-120.5 -66t-82 -64.5t-30 -63q0 -20 16 -32t33 -12zM1029 757q-34 0 -71 -26.5t-74.5 -70
t-74 -100t-68.5 -115.5q65 33 122 67.5t99 70.5t66 74.5t24 79.5q0 20 -23 20z" />
    <glyph glyph-name="I" unicode="I" horiz-adv-x="650" 
d="M815 654l-29 -42q-29 -42 -43.5 -92t-30.5 -99q-14 -42 -26 -83.5t-27 -82t-33.5 -79t-44.5 -74.5q-35 -48 -79 -83t-93.5 -57.5t-102 -33t-103.5 -10.5q-38 0 -74.5 9.5t-65 29t-46.5 49.5t-18 72q0 38 14 70t37 57.5t51.5 45.5t58 33t57 20t48.5 7t46 -5t46.5 -16
t35.5 -29t14 -44q0 -43 -19 -76t-49.5 -56t-69 -35t-78.5 -12q-28 0 -49.5 2.5t-31.5 7.5v14q11 -2 21 -4.5t20 -2.5q34 0 76 11t79 31.5t62.5 49.5t25.5 65q0 23 -10.5 39t-27 25.5t-37 14t-39.5 4.5q-48 0 -96 -18.5t-86.5 -49t-62 -69t-23.5 -78.5q0 -33 14.5 -61
t38.5 -47.5t55.5 -30.5t66.5 -11q133 0 223.5 60t148.5 180q22 45 37.5 90.5t32.5 93.5q8 23 23 55.5t32 65.5t34 63t29 49q-7 -5 -18.5 -14.5t-25 -18.5t-28 -15.5t-26.5 -6.5q-9 0 -18.5 7t-16.5 18t-11.5 25t-4.5 28q0 8 4 20.5t8.5 28.5t8.5 34t4 38q0 22 -14.5 36.5
t-35.5 23t-44 11.5t-39 3q-63 0 -118 -26t-96 -66.5t-65 -90t-24 -95.5q0 -63 26.5 -92t74.5 -29q33 0 66 22t60 54.5t43.5 69.5t16.5 68q0 29 -17.5 45.5t-44.5 16.5q-25 0 -49 -15.5t-43.5 -39t-31.5 -51.5t-13 -53h-13q0 21 11 50t31 55.5t48 45t62 18.5q39 0 58.5 -25
t19.5 -62q0 -41 -17 -79.5t-45 -68t-63.5 -47.5t-71.5 -18q-56 0 -87.5 34.5t-31.5 93.5t27.5 113t72 95t101 65.5t115.5 24.5q29 0 60 -8t56.5 -24.5t42 -40.5t16.5 -57q0 -17 -4.5 -32.5t-10 -31.5t-10 -31.5t-4.5 -32.5q0 -10 2 -14t16 -4q10 0 28 12.5t39 30.5
t42.5 38.5t38.5 37.5z" />
    <glyph glyph-name="J" unicode="J" horiz-adv-x="573" 
d="M697 696q-40 -43 -65 -86.5t-41.5 -86.5t-27.5 -85t-23 -82q-29 -100 -72.5 -209t-100.5 -209q72 41 142 100t132 150l6 -5q-65 -96 -140 -158.5t-151 -104.5q-40 -69 -86 -129t-96.5 -104t-105.5 -69.5t-113 -25.5q-26 0 -45.5 11.5t-19.5 40.5q0 39 16 67t45 49t69 37
t87.5 33t100.5 36t109 46q27 53 50 112t42 126q20 72 40.5 130.5t43.5 111.5t51.5 105.5t64.5 112.5q-21 -14 -40 -26t-42 -12q-11 0 -20 6.5t-16.5 16t-11.5 21t-4 21.5q0 17 4 32.5t9.5 31t9.5 31t4 31.5q0 26 -16.5 42.5t-40 26t-49.5 13t-44 3.5q-64 0 -125 -31
t-108.5 -79t-76.5 -106t-29 -111q0 -30 6.5 -56t21.5 -45.5t38 -31t56 -11.5q39 0 79.5 22t74 56.5t55 75.5t21.5 80q0 26 -9.5 41.5t-22 24t-25.5 11.5t-19 3q-35 0 -65 -20.5t-51.5 -49t-34 -60t-12.5 -53.5h-14q0 19 12 52t34.5 64.5t55 54.5t73.5 23q47 0 72.5 -30.5
t25.5 -75.5q0 -56 -22.5 -99.5t-59 -73.5t-81.5 -46t-90 -16q-21 0 -44.5 8.5t-43 26.5t-32 46t-12.5 68q0 67 30.5 131t80.5 113.5t114 79.5t132 30q29 0 62 -8.5t61 -26t46.5 -43.5t18.5 -61q0 -15 -4.5 -30t-9.5 -29.5t-9.5 -29t-4.5 -30.5q0 -12 3.5 -17.5t14.5 -5.5
q10 0 28.5 12t40.5 30.5t44 41.5t40 44zM-48 -395q46 0 93.5 19.5t93.5 56.5t88.5 91t80.5 123q-53 -25 -103 -44t-95 -35.5t-82.5 -32.5t-65 -35.5t-42.5 -44.5t-15 -59q0 -22 14.5 -30.5t32.5 -8.5z" />
    <glyph glyph-name="K" unicode="K" horiz-adv-x="1039" 
d="M293 636q9 20 25 41.5t36.5 39.5t44 30t47.5 12q19 0 34.5 -7.5t25.5 -17.5t15.5 -21t5.5 -18q0 -41 -17 -72t-44.5 -52t-62.5 -32t-71 -11q-28 0 -52.5 5.5t-43 20t-29 38.5t-10.5 60q0 43 24 84.5t65 74t94.5 52t112.5 19.5q40 0 76.5 -9.5t64 -27t44 -43t16.5 -58.5
q0 -21 -5 -35.5t-10.5 -27.5t-10.5 -25.5t-5 -29.5q0 -18 13 -18q7 0 23.5 11.5t39 30t48 41t49.5 45t45 41.5t34 30l15 -10q-25 -22 -50 -45t-37 -50q-26 -58 -52.5 -132.5t-58.5 -154.5q17 -5 36.5 -14.5t39.5 -23.5q15 13 27 30q26 36 57.5 83t65 88t68.5 69.5t68 28.5
q3 0 10 -0.5t14 -4.5t12.5 -11.5t5.5 -21.5q0 -26 -10 -49t-26.5 -42.5t-37 -36t-41.5 -29.5l-7 10q16 10 35.5 26t36 35.5t28 41t11.5 41.5q0 25 -26 25q-13 0 -25.5 -8t-23 -19.5t-19 -24t-13.5 -22.5q-42 -82 -92.5 -136t-101.5 -86q29 -25 48.5 -59.5t19.5 -79.5
q0 -30 -11.5 -60.5t-25.5 -59.5t-25.5 -55.5t-11.5 -49.5q0 -15 6 -21.5t22 -6.5q30 0 62 16.5t65 45.5t66 68.5t66 85.5l6 -5q-33 -48 -66.5 -88t-67.5 -69t-67 -45.5t-64 -16.5q-15 0 -27 7.5t-19.5 19.5t-11.5 26.5t-4 28.5q0 32 11 60.5t24.5 56.5t25 55.5t11.5 57.5
q0 23 -11.5 44t-30.5 38q-35 -22 -68.5 -34t-60.5 -17q-35 -73 -79.5 -140t-103 -118.5t-132.5 -82t-168 -30.5q-38 0 -74 12.5t-64.5 36t-46 56.5t-17.5 75q0 38 13 75.5t35.5 72.5t52 65t63 52.5t69 35t69.5 12.5q46 0 76 -11.5t46.5 -30.5t23 -42t6.5 -46t-16.5 -58.5
t-51.5 -68.5t-91 -57t-135 -24v14q53 0 102 19.5t87 48.5t60.5 64.5t22.5 67.5q0 23 -4.5 42.5t-17.5 34t-36.5 22.5t-61.5 8q-45 0 -85 -14.5t-73 -38t-59.5 -54.5t-44.5 -63.5t-27.5 -65t-9.5 -58.5q0 -33 14 -64t38 -54.5t55 -37.5t66 -14q84 0 151 29.5t121 79t95 114
t73 134.5q-38 4 -57 18.5t-19 31.5q0 22 30 42t92 24l4 10q8 23 26.5 61.5t39.5 79t41 76.5t32 55q-15 -14 -34 -32.5t-38.5 -34.5t-38 -27t-30.5 -11q-9 0 -18.5 2t-17 9t-12.5 21.5t-5 39.5q0 8 4.5 20t10 27t10 32.5t4.5 37.5q0 22 -14.5 38t-38 25.5t-51.5 14t-55 4.5
q-63 0 -115 -24t-89.5 -57.5t-58 -69t-20.5 -59.5q0 -35 9.5 -58t25.5 -36t37 -18t45 -5q33 0 66.5 15t60.5 37.5t44 49.5t17 50q0 29 -21 41t-48 12q-19 0 -40 -10.5t-40 -27.5t-34.5 -37.5t-24.5 -41.5zM564 354q0 -14 16.5 -24t51.5 -12q10 23 19 45.5t17 45.5
q-51 -4 -77.5 -21t-26.5 -34zM692 322q63 12 108 48q-17 12 -35.5 21t-36.5 14q-8 -21 -17.5 -41.5t-18.5 -41.5z" />
    <glyph glyph-name="L" unicode="L" horiz-adv-x="926" 
d="M584 -161q3 74 17 135q-48 2 -100.5 14.5t-106.5 28.5q-51 -27 -111.5 -42.5t-133.5 -15.5q-40 0 -68.5 6t-46.5 15.5t-26 21t-8 22.5q0 14 13 28.5t36 26t54 19t66 7.5q56 0 117.5 -13.5t123.5 -31.5q63 51 108.5 120.5t82.5 147.5q-54 -20 -108.5 -31t-109.5 -11
q-67 0 -113.5 19t-75 49.5t-41.5 68.5t-13 77q0 55 35 109t96.5 97t146 69.5t184.5 26.5q53 0 109 -9v-13q-50 9 -97 9q-92 0 -172.5 -28t-140.5 -72.5t-94.5 -100.5t-34.5 -113q0 -33 11 -65t36 -56.5t65 -40t99 -15.5q51 0 110.5 15.5t121.5 44.5q25 54 48 108t47 104
t50.5 94t57.5 78.5t69 56.5t85 28q31 0 43 -15.5t12 -39.5q0 -53 -27.5 -110t-74.5 -112t-111.5 -104t-137.5 -85q-41 -89 -96 -171.5t-134 -139.5q45 -13 86 -24.5t78 -18.5q16 56 39.5 95t49 64.5t51 39.5t47 20.5t36.5 8t19 1.5q43 0 61.5 -18t18.5 -45q0 -29 -21.5 -64
t-62 -65t-99 -50.5t-132.5 -20.5q-8 -29 -13 -62t-7 -72h-13zM980 816q-52 0 -90 -35.5t-70.5 -94t-62 -134t-64.5 -154.5q64 36 122 81.5t102.5 95t71 100.5t26.5 100q0 15 -9.5 28t-25.5 13zM866 223q-3 0 -17.5 -2.5t-35.5 -10t-46 -22t-50.5 -39t-49 -60t-40.5 -85.5
q23 -4 47 -4q56 0 100.5 18.5t76 45.5t48.5 58t17 55q0 20 -12 33t-38 13zM144 -29q66 0 119.5 15t98.5 41q-66 20 -128 37t-111 17q-46 0 -77 -17t-31 -36t30 -38t99 -19z" />
    <glyph glyph-name="M" unicode="M" horiz-adv-x="1485" 
d="M1276 -177q-17 26 -29 65t-18 84q-32 4 -54.5 20t-37 39.5t-21.5 53t-7 60.5q0 55 23.5 123t58.5 138.5t76 138.5t76 122t58.5 89t23.5 40t-6 5q-4 0 -7 -3q-43 -32 -90 -83.5t-95 -116t-95 -139t-90 -153t-80.5 -158.5t-65.5 -155q-18 1 -28.5 13t-16 29.5t-7.5 37.5
t-2 37q0 53 17 116t43.5 129.5t60.5 132t68.5 124t65.5 106t53 77.5q0 7 -5 7q-36 -15 -76 -60.5t-84 -110t-92.5 -142.5t-103 -156.5t-115.5 -152.5t-129 -131t-143.5 -92t-160.5 -35q-40 0 -82.5 10t-77.5 31.5t-57.5 56t-22.5 83.5q0 64 27.5 113.5t70 83.5t94 51.5
t100.5 17.5q33 0 62 -8t50.5 -25t34.5 -43t13 -61t-23 -66t-58.5 -54.5t-78.5 -37.5t-83 -14q-26 0 -48 6l6 20q21 -7 50 -7q36 0 74.5 11.5t71 32.5t53 51t20.5 66q0 47 -38 70t-93 23q-46 0 -96 -15.5t-92 -45.5t-69 -74.5t-27 -101.5q0 -31 12.5 -59.5t39.5 -50t69 -34
t101 -12.5q82 0 156.5 35t141.5 93.5t127 133t114.5 154.5t104 158t95 142.5t87.5 109t81 57.5q3 0 13 -2t10 -15q0 -7 -4 -16q-23 -45 -53.5 -105t-62 -127t-61.5 -138t-53.5 -140t-38 -132t-14.5 -114v-11.5t2 -10.5q23 64 61 145t85.5 166t100.5 168.5t106 152t103 116
t90 61.5q6 0 8 -6.5t2 -16.5q0 -6 -21 -45t-52.5 -98.5t-68.5 -133t-68.5 -149t-52.5 -146.5t-21 -125q0 -19 2.5 -39t10 -37.5t20.5 -29.5t34 -15q-3 30 -3 64q0 49 9 95.5t29 83.5t51.5 59.5t76.5 22.5q37 0 54 -25t17 -63q0 -37 -15.5 -80.5t-43 -80.5t-66.5 -61.5
t-86 -24.5h-8q4 -38 14.5 -74.5t30.5 -67.5zM1241 15v-18t1 -18q49 1 88 26t66 61t41.5 77t14.5 76q0 32 -13 52.5t-40 20.5q-36 0 -65 -23.5t-50 -62.5t-32 -89t-11 -102z" />
    <glyph glyph-name="N" unicode="N" horiz-adv-x="1112" 
d="M990 405q56 10 104 32q11 25 21.5 49t21.5 50q9 22 24.5 58t34.5 69.5t40.5 58t42.5 24.5q23 0 34 -22t11 -48q0 -30 -15.5 -64t-44 -67t-69 -62.5t-90.5 -51.5q-19 -40 -31 -68t-22 -50.5t-20.5 -42.5t-24.5 -45.5t-34.5 -59.5t-50.5 -84q-6 -10 -18.5 -28t-26 -36.5
t-27 -34t-20.5 -20.5q-5 -4 -12 -4q-11 0 -11 9q0 5 3 11q6 15 17 44t22.5 71.5t20 97t9.5 120.5q1 57 9 120t19.5 123t25.5 111t28 84q-18 -24 -39.5 -65.5t-43 -88.5t-42.5 -94t-38 -81q-54 -110 -117 -199.5t-134.5 -152.5t-151.5 -97.5t-168 -34.5q-42 0 -83 11t-73 34
t-51.5 58.5t-19.5 84.5q0 57 25.5 101.5t65.5 76t90 48t100 16.5q28 0 58.5 -5.5t55 -18.5t40.5 -35.5t16 -56.5q0 -41 -24 -73.5t-60.5 -55t-79 -34.5t-78.5 -12q-11 0 -23 1t-26 3l2 10q21 -3 39 -3q35 0 77 11t78.5 33.5t61 55.5t24.5 77q0 33 -38 58t-107 25
q-44 0 -93.5 -19t-92 -51t-70.5 -74t-28 -89q0 -43 19 -74.5t50.5 -52t71.5 -30.5t81 -10q63 0 120 18.5t108 51t96 76.5t84 94t71 103.5t58 105.5q6 13 20.5 45.5t33.5 73.5t40.5 86t42.5 83t39 64t30 30q6 2 9 2q7 0 7 -5q-6 -14 -12.5 -35t-11.5 -47t-8.5 -55t-3.5 -58
q0 -13 -1 -41.5t-3.5 -68t-7 -86t-12.5 -95t-20 -95t-28 -85.5q-11 -28 -29 -64t-30 -64q10 7 26 26t31.5 41t29 41.5t18.5 28.5q43 74 81.5 150t74.5 157q-23 -9 -48.5 -16t-51.5 -12zM1112 446q49 25 86 58.5t61.5 67t36.5 63t12 47.5q0 7 -0.5 16.5t-2.5 18t-7.5 14
t-14.5 5.5q-21 0 -39 -20.5t-36 -55.5t-37 -81.5t-43 -98.5z" />
    <glyph glyph-name="O" unicode="O" horiz-adv-x="649" 
d="M556 498q0 -15 -7 -40.5t-19.5 -55.5t-31 -60.5t-42 -55.5t-51.5 -41t-59 -16q-33 0 -55 11.5t-35.5 31t-19.5 44t-6 51.5q0 43 15.5 87.5t41.5 86.5t61.5 78.5t75 64t82 43.5t82.5 16q37 0 63.5 -16t43.5 -41.5t24.5 -57t7.5 -63.5q0 -59 -19.5 -125.5t-54.5 -132.5
t-82.5 -126t-103 -106t-117 -73.5t-123.5 -27.5q-55 0 -94 28t-64 70.5t-36.5 93.5t-11.5 97q0 69 26.5 141t72 140t106.5 127.5t129.5 104.5t141.5 71t142 26h23.5t15.5 -1l-2 -13q-9 1 -17.5 1h-16.5q-86 0 -161 -31t-138 -83.5t-112.5 -121.5t-83.5 -145.5t-52 -155
t-18 -150.5q0 -33 7.5 -66t25.5 -60t48.5 -43.5t77.5 -16.5q53 0 109 26t109 69.5t100 102t82 123.5t55.5 133t20.5 131q0 28 -7 56.5t-21.5 51t-37.5 36.5t-55 14q-41 0 -81 -19t-76.5 -50.5t-67.5 -72t-54 -83t-36 -84.5t-13 -76q0 -42 20.5 -72.5t59.5 -30.5
q26 0 51 13.5t47 35.5t40 50t31.5 57t21 55.5t7.5 46.5z" />
    <glyph glyph-name="P" unicode="P" horiz-adv-x="765" 
d="M337 595q15 22 36.5 43.5t46.5 39t52 28t54 10.5q19 0 38 -6.5t34 -19t24.5 -30.5t9.5 -41q0 -47 -21.5 -86.5t-57.5 -68t-83.5 -44.5t-99.5 -16q-31 0 -59.5 9t-50.5 27t-35 45t-13 64q0 72 36.5 127.5t95 94t131.5 58t147 19.5q54 0 108 -15.5t99 -46.5q20 23 42.5 43
t48.5 37l10 -14q-26 -11 -47.5 -30.5t-38.5 -45.5q42 -32 67.5 -78.5t25.5 -106.5q0 -36 -16.5 -72t-48 -68t-76 -57.5t-99.5 -39.5q-27 -80 -65 -154.5t-96.5 -131.5t-142.5 -91.5t-203 -34.5q-48 0 -84 16.5t-59 42.5t-34.5 58t-11.5 64q0 34 18 74.5t53 75.5t86.5 58.5
t118.5 23.5q26 0 49 -6.5t39.5 -20.5t26 -35.5t9.5 -52.5q0 -35 -23 -66t-58.5 -54.5t-78.5 -37.5t-83 -14q-26 0 -48 6l6 20q21 -7 50 -7q36 0 74.5 11.5t71 32.5t53 51t20.5 66q0 47 -31 68t-77 21q-57 0 -105 -19.5t-83 -50.5t-54.5 -70t-19.5 -77q0 -27 11.5 -56
t34 -53.5t56.5 -40t80 -15.5q103 0 174 31.5t120 84.5t81.5 123t58.5 148q-29 -3 -57 -3q-24 0 -51 3l-5 13q13 -1 23 -1.5t20 -0.5q20 0 39 1.5t36 3.5q18 54 36 110t39 109.5t47 103.5t61 93q-22 18 -48 30t-51.5 18.5t-49.5 9.5t-42 3q-77 0 -148.5 -20t-127.5 -56.5
t-89.5 -87.5t-33.5 -112q0 -44 14 -70.5t36 -41t47.5 -19t48.5 -4.5q41 0 83.5 18t77 46.5t56.5 64t22 70.5q0 38 -27 58.5t-74 20.5q-19 0 -41.5 -10t-44 -26.5t-41.5 -37t-35 -41.5zM834 761q-21 -36 -37.5 -80.5t-31.5 -94.5t-29.5 -103.5t-32.5 -107.5q54 19 90.5 49.5
t58.5 65t31 68.5t9 58q0 49 -16 84.5t-42 60.5z" />
    <glyph glyph-name="Q" unicode="Q" horiz-adv-x="719" 
d="M663 847h-10q-86 0 -161.5 -31t-139.5 -83.5t-114.5 -121.5t-86 -145.5t-54 -155t-18.5 -150.5q0 -33 8.5 -66t28.5 -60t52 -43.5t79 -16.5q32 0 66 10t68 28q-21 14 -39.5 30.5t-38.5 31.5q-57 -27 -106 -27q-29 0 -50.5 13t-21.5 38q0 26 27 36.5t62 10.5
q33 0 62.5 -12t56.5 -29q54 30 103.5 74.5t81.5 95.5l14 -9q-38 -53 -87 -96.5t-100 -72.5q21 -14 40 -29t39 -28q60 41 114 101.5t95 130t65.5 144.5t24.5 144q0 28 -8 57t-23.5 52t-39.5 37.5t-56 14.5q-63 0 -115 -34.5t-90 -85.5t-59 -108.5t-21 -103.5q0 -38 15.5 -63
t50.5 -25q39 0 71.5 24.5t56.5 60t37 74.5t13 69l15 -2q0 -22 -12 -62t-36 -79.5t-59.5 -68.5t-82.5 -29q-51 0 -75.5 35.5t-24.5 88.5q0 33 9.5 69.5t27.5 72.5t44.5 68.5t61.5 57.5t77.5 39.5t92.5 14.5q37 0 64.5 -16.5t45.5 -42.5t26.5 -58t8.5 -64q0 -65 -23.5 -138
t-64 -144t-95.5 -134t-118 -106q22 -14 44.5 -22.5t45.5 -8.5q41 0 72 10t56 28t46 42.5t43 53.5l12 -3q-31 -46 -63 -76.5t-64 -48.5t-65 -25.5t-65 -7.5t-58 9t-48 23q-38 -20 -77 -31.5t-78 -11.5q-55 0 -95.5 25.5t-67.5 65t-40.5 87.5t-13.5 94q0 69 26.5 142.5
t72.5 143t107.5 131.5t131.5 108.5t144.5 74t146.5 27.5h13v-13zM195 63q45 0 95 21q-23 17 -49.5 28t-59.5 11q-20 0 -32 -7t-12 -15q0 -19 17.5 -28.5t40.5 -9.5z" />
    <glyph glyph-name="R" unicode="R" horiz-adv-x="1050" 
d="M391 559q9 24 26 50t40 47t51.5 35t61.5 14q19 0 38 -4t34 -14t24 -27t9 -42q0 -47 -19 -87t-51 -69.5t-73 -46.5t-86 -17q-69 0 -110.5 38t-41.5 112q0 48 20 90.5t54 78t79 63t94.5 46.5t100.5 29t98 10q43 0 90.5 -11t91.5 -31q29 28 62 53t71 48l9 -15
q-23 -11 -39 -20.5t-29.5 -19.5t-26 -21.5t-27.5 -25.5l-7 -6q58 -30 97 -76.5t39 -108.5q0 -36 -16 -69.5t-42 -62.5t-60 -52t-70 -37q21 -19 36.5 -46.5t15.5 -63.5q0 -41 -16.5 -80.5t-36 -75.5t-35.5 -68t-16 -58q0 -19 11.5 -23t26.5 -4q13 0 37 6.5t56 27.5t72 59.5
t84 103.5l6 -5q-49 -71 -91 -112t-75.5 -61.5t-58.5 -25.5t-40 -5q-21 0 -33 11.5t-18 27.5t-7 33t-1 28q0 24 15.5 59t33.5 71.5t33.5 70t15.5 54.5q0 24 -8 41.5t-20 29.5q-38 -12 -73 -12q-15 0 -26.5 7t-11.5 21q0 21 15 24.5t32 3.5q11 0 28 -7t35 -20q34 15 62 41.5
t48 59t31 68.5t11 70q0 51 -28 85.5t-70 57.5q-29 -31 -54 -84.5t-50.5 -120t-54 -140.5t-64 -146.5t-81 -139t-105 -117t-135 -81t-172.5 -30.5q-54 0 -92.5 16.5t-64 43.5t-37.5 61.5t-12 70.5q0 45 30 86t74 72t93.5 49.5t88.5 18.5q19 0 40.5 -6t40 -19.5t31 -35
t12.5 -52.5q0 -42 -23 -74t-58.5 -54t-78.5 -33t-83 -11q-26 0 -48 6l6 20q21 -7 50 -7q36 0 74.5 10t71 30.5t53 50.5t20.5 70q0 47 -31 67t-77 20q-35 0 -81 -16t-88 -45.5t-71 -71t-29 -92.5q0 -30 10.5 -58.5t33 -51.5t58.5 -37t87 -14q84 0 146.5 23.5t110 65t83 98
t66 121.5t59 136t62.5 142t76 139t100 127q-41 20 -84 29t-73 9q-86 0 -166 -23.5t-141 -63.5t-97.5 -93t-36.5 -111q0 -44 10.5 -71.5t28 -43t39.5 -21t45 -5.5q36 0 75.5 16t72 44t53.5 65.5t21 79.5q0 38 -26.5 53.5t-73.5 15.5q-23 0 -46.5 -13t-44 -33.5t-36.5 -45
t-24 -47.5zM795 406q32 0 62 11q-14 11 -29.5 15.5t-26.5 4.5q-19 0 -24.5 -3.5t-5.5 -8.5q0 -11 6.5 -15t17.5 -4z" />
    <glyph glyph-name="S" unicode="S" horiz-adv-x="751" 
d="M706 791q-13 4 -30 7.5t-35.5 6.5t-37 5t-34.5 2q-91 0 -166.5 -28t-129.5 -72t-84 -97t-30 -103q0 -33 13.5 -62t41 -51t68.5 -34.5t96 -12.5q56 0 134.5 20.5t158.5 61.5q24 76 46.5 147.5t49.5 128.5t61.5 93.5t83.5 42.5q31 0 43 -15.5t12 -39.5q0 -52 -18 -100
t-49 -91t-73.5 -80.5t-91.5 -67.5q-19 -61 -42 -123t-53.5 -119.5t-70.5 -107.5t-93 -87t-119.5 -58.5t-150.5 -21.5q-36 0 -72.5 9t-66.5 28.5t-48.5 51t-18.5 75.5q0 39 21.5 77.5t57 69t82 49.5t96.5 19q23 0 46.5 -6t42.5 -18.5t31 -31.5t12 -45q0 -40 -18 -69
t-46.5 -48t-63 -28t-67.5 -9q-14 0 -28 3.5l-26 6.5l3 12q9 -2 17.5 -4.5t17.5 -2.5q37 0 72.5 13.5t62.5 34.5t43.5 47.5t16.5 53.5q0 23 -11.5 38t-29.5 24t-39.5 12.5t-40.5 3.5q-50 0 -93.5 -19t-75.5 -48.5t-50.5 -66.5t-18.5 -73q0 -32 15.5 -58.5t41 -46.5t59.5 -31
t71 -11q106 0 181.5 40.5t128.5 106.5t89 149.5t64 170.5q-71 -35 -145 -53.5t-141 -18.5q-60 0 -104.5 14.5t-74.5 40.5t-45 62t-15 78q0 54 26 105t79.5 91.5t135.5 65t195 24.5q13 0 31 -2t36 -4.5t35 -6t29 -6.5v-13zM920 835q-34 0 -58.5 -29.5t-44 -79t-37.5 -115
t-39 -137.5q45 28 84 63t68 75t46 85.5t17 96.5q0 15 -10 28t-26 13z" />
    <glyph glyph-name="T" unicode="T" horiz-adv-x="681" 
d="M335 -116q-11 37 -17 83q-35 11 -62.5 36t-46.5 58t-28.5 72t-9.5 78q0 61 30.5 130.5t81.5 138.5t116.5 133t135.5 115q-47 11 -90.5 26t-86 28.5t-85 23t-87.5 9.5q-55 0 -108.5 -20t-95.5 -56t-68 -85.5t-26 -108.5q0 -57 29.5 -94.5t88.5 -37.5q38 0 81 18.5t79 48.5
t59.5 68t23.5 76q0 70 -70 70q-45 0 -77 -19.5t-54.5 -45.5t-36 -51t-20.5 -35l-9 8q13 31 32.5 58.5t45 48.5t55.5 33t64 12q39 0 62 -25.5t23 -65.5q0 -45 -20.5 -85t-53 -70t-71 -47t-74.5 -17q-37 0 -67.5 8.5t-53 26.5t-35 46.5t-12.5 68.5q0 66 31 121.5t83 95t120 62
t143 22.5q49 0 91.5 -9t82 -22t77 -27.5t76.5 -26.5q67 43 130.5 68t115.5 25q17 0 30 -9t13 -20q0 -24 -22.5 -44.5t-54 -35.5t-65.5 -23t-57 -8q-31 0 -59 3t-55 8q-69 -56 -130 -129t-107 -150.5t-73 -153.5t-27 -137q0 -20 4 -46t15 -51t29.5 -46.5t48.5 -31.5
q-4 29 -5.5 56.5t-1.5 50.5q0 74 20 134.5t53.5 103.5t77.5 66.5t91 23.5q19 0 39 -7.5t36.5 -24t27.5 -42t11 -60.5q0 -65 -25.5 -123t-67 -101.5t-94.5 -69.5t-109 -26q-19 0 -39 5q4 -27 9 -47.5t8 -30.5zM327 28q0 -29 3 -54q9 -2 18 -3.5t20 -1.5q61 0 113 27.5t90 72
t60 100.5t22 114q0 22 -7.5 43t-21 37.5t-32.5 26.5t-42 10q-39 0 -78.5 -29t-71.5 -79.5t-52.5 -118t-20.5 -145.5zM824 841q-55 0 -112 -23t-114 -63q28 -8 57 -12.5t61 -4.5q22 0 47 7t46 18t34.5 24.5t13.5 25.5q0 11 -8.5 19.5t-24.5 8.5z" />
    <glyph glyph-name="U" unicode="U" horiz-adv-x="867" 
d="M887 669q-12 -45 -31.5 -103t-42 -120.5t-45 -127t-40.5 -122.5t-29.5 -106.5t-11.5 -79.5q0 -1 1 -5.5t4 -9t8 -8t14 -3.5q10 0 27 5.5t43.5 26t63.5 61t88 111.5l6 -5q-34 -47 -65.5 -86.5t-60 -68.5t-54 -45.5t-48.5 -16.5q-20 0 -32.5 15t-19 36.5t-9 45.5t-2.5 42
q0 26 11 69.5t28 96t38 110.5t41 112q-30 -61 -63.5 -123.5t-69 -121.5t-72 -110.5t-73 -90t-71.5 -60.5t-67 -22q-14 0 -28.5 9.5t-25.5 28t-18 45t-7 61.5q0 51 12.5 98t31 92t40.5 88.5t40.5 87t31 87t12.5 89.5q0 75 -48 118.5t-142 43.5q-58 0 -122 -26t-117 -70.5
t-88 -104t-35 -126.5q0 -35 7 -67t23 -56t42 -38.5t65 -14.5q45 0 89 26t79 66t57 88t22 92q0 30 -17.5 53t-52.5 23q-41 0 -73 -17t-56 -44t-40.5 -60t-25.5 -65l-10 3q9 33 27.5 67.5t45 62.5t59 46t69.5 18q26 0 44 -9.5t29 -25t16 -35t5 -38.5q0 -51 -17.5 -98t-49 -83
t-76.5 -58.5t-99 -26.5q-83 0 -129 45.5t-46 133.5q0 73 34 137t88.5 111.5t122.5 74.5t136 27q48 0 90 -14.5t73 -43t49 -70t18 -95.5q0 -42 -13.5 -88.5t-33.5 -95t-43 -97t-43 -96t-33.5 -91.5t-13.5 -83q0 -9 2 -21.5t6.5 -24t12 -20t17.5 -8.5q48 0 105.5 53t119 142.5
t124 206t120.5 243.5l14 48h58v0z" />
    <glyph glyph-name="V" unicode="V" horiz-adv-x="686" 
d="M1 455q9 33 27.5 67.5t45 62.5t59 46t69.5 18q26 0 44 -9.5t29 -25t16 -35t5 -38.5q0 -51 -17.5 -98t-49 -83t-76.5 -58.5t-99 -26.5q-83 0 -129 45.5t-46 133.5q0 73 34 137t88.5 111.5t122.5 74.5t136 27q48 0 90 -14.5t73 -43t49 -70t18 -95.5q0 -42 -13.5 -88.5
t-33.5 -95t-43 -97t-43 -96t-33.5 -91.5t-13.5 -83q0 -9 1 -18.5t4.5 -17.5t9.5 -13t16 -5q27 0 60 19.5t69 52.5t73 77.5t71 95.5t64 105t53 106q-32 61 -46 114t-14 92q0 14 4 32t12 34t20 27t29 11q20 0 31 -14t16.5 -33.5t7 -40t1.5 -33.5q0 -40 -12 -87.5t-33 -98.5
q10 -21 22 -41.5t27 -40.5l-8 -13q-14 20 -26 39t-23 38q-23 -53 -53.5 -107.5t-65 -105t-71.5 -94t-73 -76t-69 -51t-59 -18.5q-14 0 -27 9t-23 25.5t-16 39.5t-6 50q0 51 12.5 98t31 92t40.5 88.5t40.5 87t31 87t12.5 89.5q0 75 -48 118.5t-142 43.5q-58 0 -122 -26
t-117 -70.5t-88 -104t-35 -126.5q0 -35 7 -67t23 -56t42 -38.5t65 -14.5q45 0 89 26t79 66t57 88t22 92q0 30 -17.5 53t-52.5 23q-41 0 -73 -17t-56 -44t-40.5 -60t-25.5 -65zM700 638q0 -29 8 -79t32 -107q20 48 31 91.5t11 78.5q0 11 -1 29.5t-5.5 36t-12.5 30t-23 12.5
q-17 0 -28.5 -26t-11.5 -66z" />
    <glyph glyph-name="W" unicode="W" horiz-adv-x="900" 
d="M989 312q-15 21 -28 40.5t-24 37.5q-24 -52 -55 -103.5t-65 -99t-69.5 -89t-69.5 -72t-65 -48t-56 -17.5q-29 0 -45 25.5t-22 57.5q-39 -36 -76 -58t-68 -22q-14 0 -27 9t-23 25.5t-16 39.5t-6 50q0 51 12.5 98t31 92t40.5 88.5t40.5 87t31 87t12.5 89.5q0 75 -48 118.5
t-142 43.5q-58 0 -122 -26t-117 -70.5t-88 -104t-35 -126.5q0 -35 7 -67t23 -56t42 -38.5t65 -14.5q45 0 89 26t79 66t57 88t22 92q0 30 -17.5 53t-52.5 23q-41 0 -73 -17t-56 -44t-40.5 -60t-25.5 -65l-10 3q9 33 27.5 67.5t45 62.5t59 46t69.5 18q26 0 44 -9.5t29 -25
t16 -35t5 -38.5q0 -51 -17.5 -98t-49 -83t-76.5 -58.5t-99 -26.5q-83 0 -129 45.5t-46 133.5q0 73 34 137t88.5 111.5t122.5 74.5t136 27q48 0 90 -14.5t73 -43t49 -70t18 -95.5q0 -42 -13.5 -88.5t-33.5 -95t-43 -97t-43 -96t-33.5 -91.5t-13.5 -83q0 -9 1 -18.5t4.5 -17.5
t9.5 -13t16 -5q32 0 70.5 23t78.5 61q-2 8 -2 15.5v15.5q0 43 12 91t31.5 94.5t44.5 89.5t51.5 75.5t52.5 52t48 19.5q31 0 31 -37q0 -30 -20 -79t-53 -105t-75.5 -113.5t-87.5 -103.5q-1 -7 -1 -13v-11q0 -14 1 -27.5t5 -24t11.5 -17.5t20.5 -7q22 0 51 18t61.5 49.5
t68 73.5t69 90t64.5 99.5t56 101.5q-29 53 -42.5 100t-13.5 104q0 28 5.5 52t16 41.5t24.5 27.5t31 10q20 0 31 -14t16.5 -33.5t7 -40t1.5 -33.5q0 -44 -16.5 -99t-43.5 -115q20 -41 52 -81zM720 502q-14 0 -32.5 -19t-38.5 -51t-40 -73.5t-37.5 -87t-30.5 -91t-18 -85.5
q43 46 82.5 101.5t70 108.5t48.5 98t18 71q0 28 -22 28zM901 610q0 -49 7 -93.5t28 -92.5q27 57 43 108t16 89q0 11 -1 29.5t-5.5 36t-12.5 30t-23 12.5q-9 0 -18 -5.5t-16.5 -19.5t-12.5 -37t-5 -57z" />
    <glyph glyph-name="X" unicode="X" horiz-adv-x="895" 
d="M627 -176q-16 36 -24.5 71.5t-11.5 70.5q-36 6 -62 25t-42.5 47t-24.5 62t-8 71v18t1 18q-62 -78 -119 -128.5t-107.5 -80.5t-93 -42t-75.5 -12q-24 0 -41.5 18t-17.5 46q0 44 42.5 86.5t112 84t158 83.5t179.5 86q44 81 69 157t25 133q0 43 -15.5 79.5t-43.5 63.5
t-66.5 42.5t-83.5 15.5q-88 0 -163 -31t-130 -77t-86 -97.5t-31 -93.5q0 -34 8.5 -64t26 -52t44.5 -34.5t65 -12.5q52 0 104.5 22.5t95 58.5t69.5 80t27 87q0 24 -10 38.5t-24.5 22.5t-30 11t-27.5 3q-40 0 -73 -13.5t-59.5 -37t-47 -53.5t-35.5 -63l-13 2q13 34 36.5 66
t54.5 56t67.5 38.5t76.5 14.5q19 0 37 -7t32.5 -20t23 -31.5t8.5 -41.5q0 -57 -27.5 -103t-72 -77.5t-100.5 -48.5t-112 -17q-70 0 -112.5 41.5t-42.5 110.5q0 71 38 132t98 106t135 70.5t150 25.5q57 0 104.5 -21.5t82 -58t53.5 -85t19 -102.5q0 -4 -0.5 -8.5t-0.5 -8.5
q29 42 65.5 79t74 64t73 42.5t62.5 15.5q21 0 35.5 -12.5t14.5 -36.5q0 -50 -33 -96.5t-88.5 -90.5t-128.5 -85.5t-152 -81.5q-18 -40 -30 -77.5t-19.5 -68.5t-10.5 -54t-3 -34q0 -17 3.5 -41t14 -46.5t28.5 -40.5t48 -24q-1 10 -1 20v20q0 59 15.5 110.5t43 89.5t64.5 60
t79 22q20 0 34 -9t23 -23.5t13 -32t4 -33.5q0 -28 -17.5 -68.5t-49 -78.5t-76 -65t-98.5 -27h-9.5t-9.5 1q2 -74 33 -132zM65 -43q54 0 111 31t111.5 82.5t104 117.5t88.5 137q-88 -43 -172 -83.5t-149.5 -79.5t-105.5 -76t-40 -73q0 -23 14.5 -39.5t37.5 -16.5zM592 427
q-6 -11 -12 -21t-11 -21q76 37 145 77t121.5 83t83.5 89t31 97q0 15 -14.5 20t-23.5 5q-31 0 -62.5 -17.5t-62 -45.5t-59.5 -63.5t-54.5 -72t-46.5 -71t-35 -59.5zM605 -24q4 -1 12 -1q42 0 84 19.5t75.5 52.5t54.5 76t21 89q0 10 -2.5 23t-10 23.5t-20 18t-32.5 7.5
q-33 0 -65.5 -26t-58.5 -68.5t-42 -98t-16 -115.5z" />
    <glyph glyph-name="Y" unicode="Y" horiz-adv-x="638" 
d="M55 543q10 40 28 70.5t40 51.5t44.5 31.5t40.5 10.5q42 0 66 -29.5t24 -71.5t-17.5 -81.5t-47 -70.5t-68.5 -49.5t-83 -18.5q-35 0 -60 12t-41 33t-23.5 49t-7.5 59q0 69 29.5 126t77 98t107 63.5t119.5 22.5q31 0 63.5 -12.5t59.5 -34t44.5 -51.5t17.5 -65
q0 -49 -13 -89t-28 -79.5t-28 -84.5t-13 -105q0 -11 8.5 -21.5t19.5 -10.5q29 0 61 25.5t64 66t61.5 91t54.5 100.5t42.5 94t25.5 73h54q-24 -66 -42 -135.5t-36.5 -139t-40.5 -138t-53 -131.5q-27 -57 -72 -104t-99 -80.5t-113.5 -52.5t-117.5 -19q-40 0 -76.5 8.5t-64 26
t-44 44.5t-16.5 65q0 49 24 90t61 69.5t80.5 44.5t82.5 16q22 0 43.5 -7t39 -19.5t28 -31t10.5 -41.5q0 -41 -19.5 -68.5t-50 -44.5t-68 -24.5t-73.5 -7.5h-15.5t-15.5 1l-1 8h27.5t27.5 2q26 2 56 14t56 31.5t43.5 45t17.5 54.5q0 18 -9.5 31.5t-24 22.5t-32 13.5
t-33.5 4.5q-44 0 -87.5 -14t-78.5 -40t-57 -62t-22 -81q0 -39 16 -65.5t41.5 -43.5t57 -24.5t63.5 -7.5q38 0 76 8t74 22.5t68 36.5t58 51q48 54 79.5 121t55.5 141.5t45.5 152.5t49.5 155q-15 -31 -33.5 -69.5t-40 -78t-46 -77.5t-50.5 -67.5t-53.5 -47.5t-55.5 -18
q-19 0 -32.5 13.5t-21.5 33t-12 41.5t-4 39q0 40 12 78.5t27 76.5t27 76t12 78q0 31 -13.5 53t-35.5 36.5t-49 21t-54 6.5q-57 0 -112.5 -25t-99.5 -67.5t-71 -97.5t-27 -115q0 -27 6 -51.5t19.5 -42.5t35 -29t52.5 -11q36 0 72.5 21.5t66 54t47.5 70.5t18 71
q0 32 -15.5 54.5t-48.5 22.5q-20 0 -42 -8.5t-43 -27.5t-38 -48.5t-26 -71.5z" />
    <glyph glyph-name="Z" unicode="Z" horiz-adv-x="822" 
d="M594 374h-133q-17 -29 -34 -56.5t-34 -55.5q15 -2 31.5 -5.5t29.5 -11.5t21.5 -21t8.5 -33q0 -24 -8.5 -45t-18.5 -40.5t-18.5 -39.5t-8.5 -42q0 -8 4.5 -15t15 -13t28.5 -10t46 -4q-2 15 -2 25.5v15.5q0 56 11.5 110t36 97t62.5 69t92 26q39 0 57 -27t18 -60
q0 -53 -26.5 -100.5t-66.5 -84t-85.5 -58.5t-83.5 -23q2 -26 8 -58t17 -69l-14 1q-9 30 -14.5 64t-8.5 62q-38 1 -63 9t-40 20.5t-21.5 29.5t-6.5 36q0 25 9 48.5t20.5 43.5t20.5 36t9 27t-18 20t-47 11q-36 -58 -74.5 -110t-78 -91.5t-81.5 -62.5t-86 -23q-25 0 -33.5 13.5
t-8.5 29.5q0 24 16 51.5t42.5 55t60.5 53t70.5 45.5t73 33t67.5 15q17 28 33.5 55.5t33.5 56.5h-146l6 19h150q31 54 63 105q-6 -1 -12 -1h-11q-16 0 -32 4t-29.5 13t-22 24t-8.5 36q0 24 6.5 44t15 39t15 37.5t6.5 41.5t-18 40.5t-43 29t-51.5 17.5t-44.5 6q-63 0 -128 -25
t-118.5 -68t-87.5 -101t-34 -124q0 -20 6.5 -42.5t20 -41.5t33.5 -32t48 -13q39 0 79.5 22.5t73.5 57t54.5 76t21.5 79.5q0 27 -19.5 46t-46.5 19q-23 0 -46.5 -10.5t-45.5 -32t-39.5 -55t-26.5 -79.5h-12q9 43 26.5 78t40 59t48.5 37t51 13q39 0 64 -27.5t25 -65.5
q0 -48 -20.5 -89.5t-54.5 -72t-78 -48t-91 -17.5q-30 0 -53 12.5t-39.5 33t-25 45.5t-8.5 51q0 66 33 125t86.5 103.5t121.5 70.5t139 26q34 0 69.5 -9t64.5 -27t47 -46t18 -65q0 -22 -7 -43.5t-15.5 -41t-15.5 -36.5t-7 -29q0 -22 17 -27.5t37 -5.5q8 0 16 0.5t16 1.5
q31 50 62.5 94t64 76.5t65 51t66.5 18.5q15 0 25.5 -9.5t10.5 -26.5q0 -29 -23 -61.5t-60 -62t-84 -53t-95 -34.5l-65 -111h127zM536 -18q21 1 48 11.5t55 27.5t55 40t48 51.5t34 60.5t13 67q0 27 -17 48.5t-48 21.5q-35 0 -68.5 -27t-60 -71.5t-43 -101t-16.5 -115.5v-13z
M63 -18q38 0 75 21.5t72.5 58t70 85t68.5 103.5q-29 -5 -63.5 -19t-69 -33.5t-66.5 -43.5t-57 -48.5t-40 -49t-15 -44.5q0 -16 8.5 -23t16.5 -7zM760 738q-26 0 -51.5 -16.5t-52 -46t-54 -69t-55.5 -85.5q42 12 84.5 34.5t77 49.5t56.5 56t22 54q0 12 -7.5 17.5t-19.5 5.5z
" />
    <glyph glyph-name="bracketleft" unicode="[" horiz-adv-x="215" 
d="M375 701h-101l-235 -748h116l-11 -20h-159l248 788h149z" />
    <glyph glyph-name="backslash" unicode="\" horiz-adv-x="239" 
d="M230 -89h-21l-173 795h23z" />
    <glyph glyph-name="bracketright" unicode="]" horiz-adv-x="242" 
d="M-38 -47h101l235 748h-116l11 20h159l-248 -788h-149z" />
    <glyph glyph-name="asciicircum" unicode="^" horiz-adv-x="400" 
d="M445 502l54 -104l-19 -9l-43 70l-111 -75l-15 15l129 103h5z" />
    <glyph glyph-name="underscore" unicode="_" horiz-adv-x="354" 
d="M10 17h344l-10 -34h-344z" />
    <glyph glyph-name="grave" unicode="`" horiz-adv-x="400" 
d="M466 384q-16 5 -34.5 15.5t-36.5 24.5t-32 31.5t-21 36.5l35 24q8 -32 35 -64.5t66 -57.5z" />
    <glyph glyph-name="a" unicode="a" 
d="M341 305q-45 -126 -66 -201t-21 -106q0 -4 1.5 -7.5t9.5 -3.5q12 0 35.5 18.5t51.5 47.5t57.5 64.5t53.5 70.5l6 -5q-25 -36 -54.5 -73t-57 -67t-51 -49t-36.5 -19q-15 0 -24.5 8.5t-15.5 23.5t-8 34.5t-2 40.5q-7 -11 -18.5 -30t-26 -37t-31 -31t-34.5 -13q-8 0 -22 6.5
t-27 23.5t-22.5 45.5t-9.5 73.5q0 26 22 62t52.5 69t62 56t51.5 23q6 0 14 -2t16 -9.5t14.5 -21.5t10.5 -37l13 45h56zM258 258q0 18 -9 37.5t-29 19.5q-21 0 -45.5 -27t-45.5 -68t-35.5 -89.5t-14.5 -91.5q0 -21 5.5 -36t19.5 -15q26 0 53.5 28t50 69t36.5 88t14 85z" />
    <glyph glyph-name="b" unicode="b" horiz-adv-x="343" 
d="M362 839q-14 0 -30.5 -22.5t-34.5 -61t-36.5 -89.5t-36.5 -107t-39.5 -123.5t-54.5 -179.5q59 94 75 118.5t50.5 80.5t58 100.5t38.5 82.5t26.5 82t11.5 74q0 14 -5.5 29.5t-22.5 15.5zM68 186q7 33 18 77q21 87 42 156t40.5 127.5t42.5 113t48.5 95.5t53 66t56.5 25
q9 0 15 -6t9.5 -14.5t5 -17.5t1.5 -16q0 -26 -9.5 -66t-22.5 -76t-35 -81t-58.5 -104.5t-58 -92.5t-92.5 -150q-19 -75 -27 -119.5t-8 -62.5q0 -20 2 -30.5t6 -15t8 -5.5t9 -1q12 0 28 9.5t33.5 27.5t35.5 44.5t33 60.5q-5 14 -13 37t-8 51t7 48t26 20q16 0 21.5 -17.5
t5.5 -32.5q0 -25 -7.5 -52.5t-19.5 -54.5q4 -17 11 -27t14.5 -15.5t14.5 -7t11 -1.5q10 0 23 10.5t27 27t28 36t27 36.5l6 -5q-12 -17 -26.5 -37t-29.5 -37.5t-30 -29t-28 -11.5q-17 0 -32 14.5t-22 33.5q-14 -28 -31.5 -53.5t-36 -45t-37 -31t-33.5 -11.5t-26 10.5
t-18.5 25.5t-11 32.5t-3.5 31.5q0 21 6 61q2 12 5 27q-41 -55 -74 -83l-5 5q38 38 83 101z" />
    <glyph glyph-name="c" unicode="c" horiz-adv-x="295" 
d="M27 122q0 13 10.5 34t28.5 44t41 46t48.5 42t51 30.5t47.5 11.5q13 0 22 -6t14.5 -15t7.5 -20.5t2 -22.5q0 -27 -13.5 -44.5t-31.5 -17.5q-11 0 -17.5 9t-6.5 21q0 16 11 31t34 15q2 0 3.5 -0.5t2.5 -0.5q0 21 -11 28t-23 7q-27 0 -56 -23t-54 -60t-41 -84t-16 -95
q0 -10 1.5 -21.5t5.5 -21t12 -16t20 -6.5q20 0 43.5 7t52.5 28t65 60.5t83 105.5l6 -5q-39 -54 -71.5 -93t-62 -64.5t-57.5 -38t-57 -12.5q-39 0 -67 37.5t-28 109.5z" />
    <glyph glyph-name="d" unicode="d" horiz-adv-x="394" 
d="M469 183q-25 -36 -54.5 -73t-57 -67t-51 -49t-36.5 -19q-15 0 -24.5 8.5t-15.5 23.5t-8 34.5t-2 40.5q-7 -11 -18.5 -30t-26 -37t-31 -31t-34.5 -13q-8 0 -22 6.5t-27 23.5t-22.5 45.5t-9.5 73.5q0 26 22 62t52.5 69t62 56t51.5 23q6 0 14 -2t16 -9.5t14.5 -21.5
t10.5 -37l131 422h55q-37 -105 -76.5 -229.5t-68 -217t-44 -152t-15.5 -85.5q0 -4 1.5 -7.5t9.5 -3.5q12 0 35.5 18.5t51.5 47.5t57.5 64.5t53.5 70.5zM258 258q0 18 -9 37.5t-29 19.5q-21 0 -45.5 -27t-45.5 -68t-35.5 -89.5t-14.5 -91.5q0 -21 5.5 -36t19.5 -15
q26 0 53.5 28t50 69t36.5 88t14 85z" />
    <glyph glyph-name="e" unicode="e" horiz-adv-x="306" 
d="M286 269q0 -27 -19.5 -53.5t-49.5 -49t-67 -39.5t-73 -25q-1 -9 -1.5 -18t-0.5 -18q0 -13 2 -26.5t8 -25t16 -18.5t25 -7q31 0 63.5 16.5t65 44.5t62.5 64t56 74l6 -5q-29 -42 -60 -80t-64 -66.5t-66.5 -45t-67.5 -16.5q-23 0 -40.5 12t-29.5 31.5t-18 43t-6 46.5
q0 35 20.5 74t50.5 72t64.5 54.5t62.5 21.5q26 0 43.5 -17.5t17.5 -43.5zM221 315q-15 0 -36.5 -15.5t-42.5 -43t-38.5 -64.5t-24.5 -79q29 7 61 23t58.5 37.5t44 47t17.5 53.5q0 17 -10.5 29t-28.5 12z" />
    <glyph glyph-name="f" unicode="f" horiz-adv-x="227" 
d="M66 175q-6 11 -12.5 30t-6.5 34q0 11 4 17.5t15 6.5q2 0 8.5 -5.5t8.5 -21.5q9 29 21.5 72t28 92t34 99t39.5 94q6 12 18 39t28 54t33 47.5t34 20.5q13 0 20 -5.5t10.5 -14.5t4.5 -19.5t1 -20.5q0 -54 -21 -119.5t-55 -132t-77 -130t-87 -112.5l-15 -54q5 -10 14.5 -23
t20.5 -24t21.5 -19t16.5 -8q18 0 35 12.5t33 30.5t29.5 38t24.5 35l6 -5q-9 -12 -23.5 -32.5t-31.5 -40.5t-35.5 -34.5t-35.5 -14.5q-12 0 -24.5 9t-24 20.5t-20 23t-11.5 16.5q3 -11 5 -27.5t4 -36.5t3 -42t1 -42q0 -44 -3 -90.5t-8 -88.5q-2 -18 -9 -53t-19.5 -70.5
t-30.5 -61.5t-42 -26q-27 0 -35 29.5t-8 91.5q0 59 13 123t31.5 125.5t37.5 117t31 96.5zM330 745q-26 0 -49.5 -43t-48 -114.5t-51 -164.5t-58.5 -193q21 21 45.5 54.5t49.5 73.5t47.5 85t40.5 89.5t28.5 86.5t10.5 77v12t-1.5 16.5t-4.5 14.5t-9 6zM-31 -345q0 -34 8 -43
t19 -9q24 0 41 30t28 69t17 76t8 52q0 1 1.5 18t3 42.5t2.5 56.5t1 61q0 33 -1.5 60t-6.5 41q-5 -15 -15.5 -48t-24 -74.5t-28 -89t-26.5 -93t-19.5 -84.5t-7.5 -65z" />
    <glyph glyph-name="g" unicode="g" horiz-adv-x="389" 
d="M225 -49q24 18 46.5 36t48 40.5t58 59t80.5 101.5l6 -5q-68 -96 -127 -152.5t-116 -94.5q-76 -210 -99.5 -272.5t-54 -109.5t-67 -74.5t-68.5 -27.5q-17 0 -28 12.5t-11 35.5q0 36 13 76.5t33 75t54.5 82.5t167.5 178l55 170q-7 -11 -20 -29.5t-30 -36t-36.5 -30
t-39.5 -12.5q-5 0 -15 6.5t-20 23.5t-18 45.5t-8 73.5q0 26 22 61.5t53 68t63 55t53 22.5q6 0 14 -4t15 -13.5t12.5 -25.5t6.5 -39l18 57h55zM254 240q0 9 -1.5 21.5t-5 24.5t-10 20t-16.5 8q-16 0 -33 -13.5t-33.5 -35.5t-31 -49.5t-26 -56t-18 -54.5t-6.5 -44
q0 -11 0.5 -23t3 -23t6.5 -18t11 -7q25 0 53 25t52 62.5t39.5 81t15.5 81.5zM-68 -538q27 0 50 23.5t44 63t40.5 92t88.5 250.5q-132 -130 -164 -176t-49.5 -77.5t-28 -69t-10.5 -71.5q0 -20 7.5 -26.5t21.5 -8.5z" />
    <glyph glyph-name="h" unicode="h" horiz-adv-x="400" 
d="M361 839q-14 0 -30.5 -22.5t-34.5 -61t-36.5 -84.5t-36.5 -102t-34.5 -118.5t-58.5 -192.5q62 103 81 137t43.5 75t49 85.5t43.5 87.5t30.5 82t11.5 69q0 14 -5.5 29.5t-22.5 15.5zM61 176l16 56q44 151 61.5 210t37 117t41 107t46 90t50.5 65.5t55 24.5q9 0 15 -6
t9.5 -14.5t5 -17.5t1.5 -16q0 -26 -9.5 -61t-26.5 -76t-40 -86t-49.5 -89.5t-51.5 -86.5t-99 -170l-43 -146q24 42 53 87t57.5 82t55 60.5t46.5 23.5q10 0 18.5 -7t13.5 -17t8 -21t3 -20q0 -33 -11.5 -73t-26 -77.5t-26 -67.5t-11.5 -42q0 -17 13 -17q11 0 34 18t50.5 46.5
t57 64.5t53.5 71l7 -6q-29 -41 -59 -78t-57 -66t-49.5 -46t-35.5 -17t-22 8.5t-14.5 21t-8 27t-2.5 26.5q0 22 11.5 59t25.5 73.5t25.5 67t11.5 39.5q0 15 -11 15q-17 0 -44 -25.5t-58 -65.5t-62.5 -89.5t-58.5 -97.5l-14 -48h-47l47 163q-34 -44 -63 -69l-5 5q35 35 76 91z
" />
    <glyph glyph-name="i" unicode="i" horiz-adv-x="206" 
d="M193 443q0 -22 -14 -35t-28 -13q-10 0 -17 7t-7 23q0 21 14 33.5t28 12.5q10 0 17 -7t7 -21zM54 167q9 29 21 64q11 36 23 74h55q-2 -5 -9 -25t-17 -48.5t-20.5 -62t-19.5 -66t-15 -60.5t-6 -45q0 -4 1.5 -7.5t9.5 -3.5q12 0 35.5 18.5t51.5 47.5t57.5 64.5t53.5 70.5
l6 -5q-25 -36 -54.5 -73t-57 -67t-51 -49t-36.5 -19q-30 0 -40 29.5t-10 72.5q0 12 6 35q3 13 8 28q-30 -38 -56 -60l-5 5q32 32 69 82z" />
    <glyph glyph-name="j" unicode="j" horiz-adv-x="203" 
d="M37 -48q21 14 44.5 30.5t51.5 42.5t62.5 65t76.5 98l6 -5q-32 -44 -59.5 -79t-55.5 -64t-59.5 -55t-72.5 -52q-20 -62 -36.5 -100.5t-31.5 -60t-28.5 -29.5t-26.5 -8q-17 0 -26 9t-9 32q0 45 28.5 74.5t73.5 59.5l122 395h52zM-92 -256q3 0 7.5 4.5t11.5 20.5t17.5 45
t25.5 79q-45 -29 -65.5 -55t-20.5 -65q0 -20 8.5 -24.5t15.5 -4.5zM193 443q0 -22 -14 -35t-28 -13q-10 0 -17 7t-7 23q0 21 14 33.5t28 12.5q10 0 17 -7t7 -21z" />
    <glyph glyph-name="k" unicode="k" horiz-adv-x="400" 
d="M371 839q-14 0 -30.5 -22.5t-34.5 -61t-36.5 -89.5t-36.5 -102t-39.5 -113.5t-64.5 -194.5q60 94 84.5 133.5t50 80.5t50 85.5t43.5 87.5t30.5 82t11.5 69q0 14 -5.5 29.5t-22.5 15.5zM61 176l16 56q44 141 66.5 205t42 122t41 107t46 90t50.5 65.5t55 24.5q9 0 15 -6
t9.5 -14.5t5 -17.5t1.5 -16q0 -26 -9.5 -61t-26.5 -76t-40 -86t-50.5 -89.5t-58 -92.5t-101.5 -165l-43 -145q24 42 53 87t57.5 82t55 60.5t46.5 23.5q10 0 18.5 -7t13.5 -17t8 -21t3 -20q0 -11 -1 -21.5t-8 -22.5t-21 -25t-39 -29q14 -6 19 -17.5t5 -26.5q0 -17 -4.5 -35.5
t-10.5 -35t-10.5 -29.5t-4.5 -18q0 -17 13 -17q11 0 34 18t50.5 46.5t57 64.5t53.5 71l7 -6q-29 -41 -59 -78t-57 -66t-49.5 -46t-35.5 -17t-22 8.5t-14.5 21t-8 27t-2.5 26.5q0 14 4.5 26t10 22t10 16.5t4.5 9.5q0 28 -11 28t-17.5 -2.5t-11.5 -5t-9.5 -5t-9.5 -2.5
q-6 0 -9.5 3.5t-3.5 8.5q0 6 5.5 14t15.5 8q8 0 14 -1t13 -1q14 0 22.5 7t16.5 20q9 13 14.5 23t9 19.5t5 21t1.5 29.5q0 15 -11 15q-17 0 -44 -25.5t-58 -65.5t-62.5 -89.5t-58.5 -97.5l-14 -48h-47l47 163q-34 -44 -63 -69l-5 5q35 35 76 91z" />
    <glyph glyph-name="l" unicode="l" horiz-adv-x="251" 
d="M372 849q-14 0 -30.5 -22.5t-34.5 -61t-36.5 -89.5t-36.5 -102t-39.5 -118.5t-64.5 -199.5q59 94 84 128.5t55.5 85.5t55 100.5t38.5 87.5t25.5 77t11.5 69q0 14 -5.5 29.5t-22.5 15.5zM69 188q9 35 22 85q26 97 47 161t40.5 122.5t42.5 113t48.5 95.5t53 66t56.5 25
q9 0 15 -6t9.5 -14.5t5 -17.5t1.5 -16q0 -26 -9.5 -61t-21.5 -71t-35 -86t-55.5 -104.5t-63 -97.5t-101.5 -160q-19 -75 -27 -119.5t-8 -62.5q0 -20 2 -30.5t6 -15t8 -5.5t9 -1q16 0 40 16.5t51 44t56.5 63.5t58.5 76l6 -5q-29 -41 -58.5 -78.5t-57 -66t-52.5 -46t-46 -17.5
q-15 0 -26 10.5t-18.5 25.5t-11 32.5t-3.5 31.5q0 21 6 61q2 11 5 28q-41 -55 -74 -84l-5 5q38 38 84 103z" />
    <glyph glyph-name="m" unicode="m" horiz-adv-x="700" 
d="M165 -11h-47q3 8 11 31.5t18.5 55l22 66t21 64.5t15.5 51.5t6 27.5q0 14 -1 20.5t-8 6.5q-18 0 -53 -34t-86 -109l-7 5q56 82 90.5 119t57.5 37q10 0 18.5 -5.5t13.5 -13.5t8 -17.5t3 -18.5q0 -37 -12 -77.5t-36 -102.5q66 121 118.5 178t75.5 57q10 0 18.5 -5.5
t13.5 -13.5t8 -17.5t3 -18.5q0 -37 -12 -77.5t-36 -102.5q24 41 51.5 83t54.5 75.5t52 55t44 21.5q10 0 18.5 -7t13.5 -17t8 -21t3 -20q0 -33 -11.5 -73t-26 -77.5t-26 -67.5t-11.5 -42q0 -17 13 -17q11 0 34 18t50.5 46.5t57 64.5t53.5 71l7 -6q-29 -41 -59 -78t-57 -66
t-49.5 -46t-35.5 -17t-22 8.5t-14.5 21t-8 27t-2.5 26.5q0 22 11.5 58t26 72.5t26 66.5t11.5 40q0 17 -12 17q-17 0 -42.5 -24t-55.5 -62.5t-61 -86.5t-58 -95l-18 -55h-47q3 8 11 31.5t18.5 55l22 66t21 64.5t15.5 51.5t6 27.5q0 14 -1 20.5t-8 6.5q-9 0 -28.5 -13.5
t-47 -45.5t-62 -84.5t-73.5 -129.5z" />
    <glyph glyph-name="n" unicode="n" horiz-adv-x="511" 
d="M118 -11q3 8 11 31.5t18.5 55l22 66t21 64.5t15.5 51.5t6 27.5q0 14 -1 20.5t-8 6.5q-18 0 -53 -34t-86 -109l-7 5q56 82 90.5 119t57.5 37q10 0 18.5 -5.5t13.5 -13.5t8 -17.5t3 -18.5q0 -37 -12 -77.5t-36 -102.5q24 41 51.5 83t54.5 75.5t52 55t44 21.5q10 0 18.5 -7
t13.5 -17t8 -21t3 -20q0 -33 -11.5 -73t-26 -77.5t-26 -67.5t-11.5 -42q0 -17 13 -17q11 0 34 18t50.5 46.5t57 64.5t53.5 71l7 -6q-29 -41 -59 -78t-57 -66t-49.5 -46t-35.5 -17t-22 8.5t-14.5 21t-8 27t-2.5 26.5q0 22 11.5 58t26 72.5t26 66.5t11.5 40q0 17 -12 17
q-17 0 -42.5 -24t-55.5 -62.5t-61 -86.5t-58 -95l-18 -55h-47v0z" />
    <glyph glyph-name="o" unicode="o" horiz-adv-x="335" 
d="M34 109q0 23 19.5 59t48 70t60.5 58.5t58 24.5q19 0 31.5 -10.5t20 -26.5t10.5 -35t3 -35q0 -25 -10 -58t-25 -63q4 -14 10.5 -22.5t22.5 -8.5q12 0 27.5 13t32 32.5t33 41.5t28.5 39l6 -5q-12 -17 -28.5 -39.5t-34 -42.5t-34.5 -34t-32 -14t-24.5 10.5t-12.5 18.5
q-9 -14 -23 -32t-31 -35t-36 -28.5t-39 -11.5q-23 0 -38 14.5t-25 35.5t-14 44t-4 40zM81 57q0 -8 0.5 -20t3.5 -24t9 -20.5t18 -8.5q18 0 35.5 9.5t34 24.5t31.5 34.5t27 40.5q-5 12 -9.5 31.5t-4.5 38.5q0 25 8.5 44t29.5 19q5 0 11 -2q0 10 -2.5 24.5t-8 28.5t-15 24
t-22.5 10q-33 0 -59.5 -31t-46 -73t-30 -84.5t-10.5 -65.5z" />
    <glyph glyph-name="p" unicode="p" horiz-adv-x="440" 
d="M213 356l-89 -285q25 43 52.5 89t55.5 83.5t53.5 62t46.5 24.5q10 0 18.5 -7t13.5 -17t8 -21t3 -20q0 -33 -11.5 -73t-26 -77.5t-26 -67.5t-11.5 -42q0 -17 13 -17q11 0 34 18t50.5 46.5t57 64.5t53.5 71l7 -6q-29 -41 -59 -78t-57 -66t-49.5 -46t-35.5 -17t-22 8.5
t-14.5 21t-8 27t-2.5 26.5q0 22 11.5 59t25.5 73.5t25.5 67t11.5 39.5q0 15 -11 15q-18 0 -44.5 -26.5t-56.5 -68.5t-61 -93t-58 -100l-122 -390h-55l200 647q-12 -25 -29 -52.5t-40 -59.5l-7 5q16 21 32.5 48t30 53t23 46.5t13.5 34.5h57z" />
    <glyph glyph-name="q" unicode="q" 
d="M75 -366l144 452q-7 -11 -20 -30t-30 -37t-36.5 -31t-39.5 -13q-5 0 -15 6.5t-20 23.5t-18 45.5t-8 73.5q0 26 22 61.5t53 67.5t62.5 54.5t51.5 22.5q12 0 27 -16t21 -62l16 53h56l-134 -425q64 71 129.5 146t127.5 162l6 -5q-61 -85 -131 -165.5t-139 -158.5l-70 -225
h-55zM255 244q0 7 -1 18.5t-4.5 23t-9.5 20t-16 8.5q-23 0 -49 -29t-48 -69.5t-36.5 -83t-14.5 -70.5q0 -11 0.5 -23t3 -23t6.5 -18t11 -7q25 0 52.5 25.5t51 63.5t39 82t15.5 82z" />
    <glyph glyph-name="r" unicode="r" horiz-adv-x="281" 
d="M1 101q66 84 86 118.5t35 72.5q-8 10 -9.5 20.5t-1.5 22.5q0 14 6.5 30t24.5 16q20 0 20 -21q0 -17 -7 -33.5t-13 -30.5q20 -5 38 -24t18 -43q0 -26 -12.5 -59.5t-27.5 -66t-27.5 -59.5t-12.5 -40q0 -14 5 -16t11 -2q21 0 46.5 17.5t53 46t56 64.5t57.5 74l6 -5
q-24 -34 -53 -71t-59 -67.5t-59 -50.5t-54 -20q-11 0 -17.5 8t-11 19.5t-6 23t-1.5 18.5q0 28 11.5 58t25 58.5t25 52.5t11.5 40q0 10 -8 19.5t-20 13.5q-10 -19 -33 -61.5t-96 -127.5z" />
    <glyph glyph-name="s" unicode="s" horiz-adv-x="311" 
d="M140 294q35 -30 72.5 -67t37.5 -81q0 -20 -7.5 -41t-20.5 -41t-31.5 -38t-39.5 -30q3 -7 7 -8.5t9 -1.5q21 0 46.5 17.5t53 46t56 64.5t57.5 74l6 -5q-24 -34 -52 -70.5t-57.5 -66.5t-58 -49.5t-53.5 -19.5q-13 0 -21 15q-13 -8 -28 -12.5t-26 -4.5q-28 0 -40 18t-12 41
q0 24 11 44.5t30 20.5q11 0 15.5 -6.5t4.5 -15.5q0 -16 -13.5 -33.5t-36.5 -17.5q0 -17 8.5 -29t22.5 -12q32 0 55.5 24t39 55.5t23 63t7.5 46.5q0 40 -22.5 63.5t-48.5 46.5q-8 -19 -32 -65t-103 -131l-7 5q72 81 99.5 130t34.5 69q-5 3 -10 17t-5 26q0 14 6.5 30t24.5 16
q20 0 20 -21q0 -17 -8.5 -36t-13.5 -30z" />
    <glyph glyph-name="t" unicode="t" horiz-adv-x="206" 
d="M54 167q7 22 15 47q10 35 29 95h-55l8 26h55q7 24 23.5 76t26.5 85h52q-10 -34 -26.5 -85.5t-23.5 -75.5h79l-8 -26h-80q-22 -69 -35.5 -114t-24 -83.5t-17 -68t-6.5 -45.5q0 -4 1.5 -7.5t9.5 -3.5q12 0 35.5 18.5t51.5 47.5t57.5 64.5t53.5 70.5l6 -5q-25 -36 -54.5 -73
t-57 -67t-51 -49t-36.5 -19q-30 0 -40 29.5t-10 72.5q0 7 5 27q3 15 9 37q-30 -39 -56 -61l-5 5q32 32 69 82z" />
    <glyph glyph-name="u" unicode="u" 
d="M54 167q7 25 17 56q11 38 25 82h52q-38 -121 -60 -199t-22 -108q0 -4 1.5 -7.5t9.5 -3.5q20 0 66.5 48.5t106.5 137.5l40 132h52q-38 -121 -60 -199t-22 -108q0 -4 1.5 -7.5t9.5 -3.5q7 0 26.5 14.5t45.5 41t57.5 63.5t63.5 82l6 -5q-25 -36 -55 -73t-57.5 -67t-49.5 -49
t-32 -19q-17 0 -27 8.5t-15 23.5t-6.5 34.5t-1.5 40.5q0 10 15 61q-21 -30 -44.5 -60t-45.5 -54t-40.5 -39t-28.5 -15q-17 0 -27 8.5t-15 23.5t-6.5 34.5t-1.5 40.5q0 4 5 23q4 15 10 36q-31 -39 -57 -61l-5 5q32 32 69 82z" />
    <glyph glyph-name="v" unicode="v" horiz-adv-x="437" 
d="M398 68q-17 0 -32 14.5t-22 33.5q-14 -28 -31.5 -53.5t-36 -45t-37 -31t-33.5 -11.5t-26 10.5t-18.5 25.5t-11 32.5t-3.5 31.5q0 23 10 53t22.5 60t22.5 56t10 41q0 14 -1 20.5t-8 6.5q-18 0 -53 -34t-86 -109l-7 5q56 82 90.5 119t57.5 37q10 0 18.5 -5.5t13.5 -13.5
t8 -17.5t3 -18.5q0 -35 -10 -69.5t-22.5 -65t-22.5 -56.5t-10 -44q0 -20 2 -30.5t6 -15t8 -5.5t9 -1q12 0 28 9.5t33.5 27.5t35.5 44.5t33 60.5q-4 11 -6.5 32t-2.5 44q0 19 2 38t6.5 34.5t11.5 25t17 9.5q16 0 21.5 -17.5t5.5 -32.5q0 -25 -8 -59.5t-34 -76.5
q4 -17 11 -26.5t14 -14.5t14 -6.5t11 -1.5q10 0 23 10.5t27 27t28 36t27 36.5l6 -5q-12 -17 -26.5 -37t-29.5 -37.5t-30 -29t-28 -11.5z" />
    <glyph glyph-name="w" unicode="w" horiz-adv-x="625" 
d="M457 305q-12 -29 -27 -71t-28 -82t-22 -71.5t-9 -40.5q0 -20 2 -30.5t6 -15t8 -5.5t9 -1q12 0 28 9.5t33.5 27.5t35.5 44.5t33 60.5q-4 11 -6.5 32t-2.5 44q0 19 2 38t6.5 34.5t11.5 25t17 9.5q16 0 21.5 -17.5t5.5 -32.5q0 -25 -8 -59.5t-34 -76.5q4 -17 11 -26.5
t14 -14.5t14 -6.5t11 -1.5q10 0 23 10.5t27 27t28 36t27 36.5l6 -5q-12 -17 -26.5 -37t-29.5 -37.5t-30 -29t-28 -11.5q-17 0 -32 14.5t-22 33.5q-14 -28 -31.5 -53.5t-36 -45t-37 -31t-33.5 -11.5t-26 10.5t-18.5 25.5t-11 32.5t-3.5 31.5q0 11 8.5 42.5t20.5 67.5
q-29 -57 -53.5 -97t-44 -65t-34.5 -36.5t-26 -11.5q-15 0 -26 10.5t-18.5 25.5t-11 32.5t-3.5 31.5q0 23 10 53t22.5 60t22.5 56t10 41q0 14 -1 20.5t-8 6.5q-18 0 -53 -34t-86 -109l-7 5q56 82 90.5 119t57.5 37q10 0 18.5 -5.5t13.5 -13.5t8 -17.5t3 -18.5
q0 -35 -10 -69.5t-22.5 -65t-22.5 -56.5t-10 -44q0 -20 2 -30.5t6 -15t8 -5.5t9 -1q10 0 28 17.5t42 51.5t52 83.5t57 112.5l19 52h51z" />
    <glyph glyph-name="x" unicode="x" horiz-adv-x="444" 
d="M519 183q-39 -54 -71.5 -93t-63 -64.5t-60.5 -38t-63 -12.5q-29 0 -51 19.5t-22 69.5q-15 -17 -31 -33t-32.5 -28.5t-33.5 -20t-35 -7.5q-10 0 -17.5 5.5t-13 14t-8 18t-2.5 17.5q0 27 13.5 49t31.5 22q11 0 17.5 -9t6.5 -21q0 -16 -11 -31t-34 -15q-2 0 -3.5 0.5
t-2.5 0.5q0 -21 8.5 -29t20.5 -8q16 0 35.5 17t39 44.5t37.5 60.5t31.5 65.5t22 60t8.5 43.5q0 14 -5 25.5t-17 11.5q-16 0 -34.5 -12.5t-38 -33t-39 -47.5t-38.5 -55l-7 6q18 25 38 52.5t39.5 50t39.5 37t38 14.5q23 0 39.5 -21t16.5 -61q22 31 50 56.5t60 25.5
q26 0 36 -19.5t10 -41.5q0 -27 -13.5 -44.5t-31.5 -17.5q-11 0 -17.5 9t-6.5 21q0 16 15 31t38 15q2 0 3.5 -0.5t2.5 -0.5q0 21 -11.5 29t-26.5 8q-9 0 -24 -12.5t-32 -33.5t-35 -49t-32.5 -58.5t-23.5 -62.5t-9 -60q0 -20 12 -37.5t37 -17.5q20 0 43.5 7t52.5 28t65 60.5
t83 105.5l6 -5v0z" />
    <glyph glyph-name="y" unicode="y" horiz-adv-x="400" 
d="M-38 -528q27 0 50 23.5t44 63t60.5 157t58.5 175.5q-72 -72 -109 -118t-69.5 -96.5t-48 -93t-15.5 -76.5q0 -20 7.5 -26.5t21.5 -8.5zM77 201q3 11 7 22q11 38 35 92h52q-48 -131 -70 -209t-22 -108q0 -4 1.5 -7.5t9.5 -3.5q20 0 66.5 48.5t106.5 137.5l50 142h52
l-120 -364q26 21 49.5 40.5t46.5 42t51 56t76 98.5l6 -5q-68 -96 -121 -150.5t-112 -96.5q-26 -70 -69.5 -197.5t-74 -174.5t-67 -74.5t-68.5 -27.5q-17 0 -28 12.5t-11 35.5q0 36 18 81.5t53 99t74.5 101.5t112.5 120l73 231q-21 -30 -44.5 -60t-45.5 -54t-40.5 -39
t-28.5 -15q-17 0 -27 8.5t-15 23.5t-6.5 34.5t-1.5 40.5q0 4 5 23t14 49q1 7 4 14q-44 -58 -78 -88l-5 5q38 38 92 116z" />
    <glyph glyph-name="z" unicode="z" horiz-adv-x="326" 
d="M104 188h61q25 30 41 53q-13 -6 -24 -10t-24 -4q-29 0 -45 16q-10 -17 -22.5 -35.5t-26.5 -38.5l-7 5q14 20 27 40t23 37q-8 12 -8 33q0 22 8.5 42.5t30.5 20.5q11 0 14.5 -10.5t3.5 -18.5t-3.5 -18t-8.5 -19t-11 -16.5t-11 -11.5q8 -11 18 -12.5t22 -1.5q24 0 47.5 13
t31.5 36q0 4 -0.5 8.5t-0.5 9.5q0 10 3.5 18.5t15.5 8.5q2 0 6.5 -3.5t4.5 -14.5q0 -8 -6.5 -21.5t-17.5 -30t-25.5 -36t-30.5 -39.5h55l-5 -18h-65q-19 -23 -38 -44.5t-34 -37.5q35 29 58.5 39.5t38.5 10.5q19 0 28.5 -15t9.5 -32q0 -11 -5 -22t-11 -22.5t-11 -21.5t-5 -17
q0 -8 5 -8q16 0 42 23t53 54t51 62.5t37 48.5l6 -5q-14 -19 -38.5 -52t-52.5 -65.5t-55.5 -56.5t-46.5 -24q-17 0 -26.5 18.5t-9.5 33.5q0 12 5.5 24.5t11.5 23t11.5 18t5.5 11.5q0 11 -15 11q-12 0 -30 -10t-36 -23.5t-33 -28t-22 -23.5q3 -11 3 -23q0 -17 -6.5 -29.5
t-22.5 -12.5q-8 0 -10.5 6t-2.5 12q0 15 11 35t28.5 43.5t38.5 49t42 49.5h-51z" />
    <glyph glyph-name="braceleft" unicode="{" horiz-adv-x="360" 
d="M288 990v-27q-63 -1 -85.5 -30.5t-22.5 -142.5v-27.5v-27.5q0 -128 -26 -173q-27 -47 -98 -64q71 -17 98 -62q26 -46 26 -173v-28.5v-27.5q0 -113 22.5 -143t85.5 -31v-25h-4q-98 0 -130 55q-24 42 -24 157q0 15 0.5 50t0.5 55q0 87 -27 121q-24 30 -90 37v31q66 8 90 38
q27 33 27 121q0 19 -0.5 53t-0.5 49q0 118 25 160q32 55 133 55z" />
    <glyph glyph-name="bar" unicode="|" horiz-adv-x="240" 
d="M140 800v-1166h-40v1166h40z" />
    <glyph glyph-name="braceright" unicode="}" horiz-adv-x="360" 
d="M147 935q25 -42 25 -160q0 -15 -0.5 -49t-0.5 -53q0 -88 27 -121q23 -30 90 -38v-31q-66 -7 -90 -37q-27 -34 -27 -121q0 -20 0.5 -55t0.5 -50q0 -115 -24 -157q-32 -55 -130 -55h-4v25q63 1 85.5 31t22.5 143v27.5v28.5q0 127 26 173q27 45 98 62q-71 17 -98 64
q-26 45 -26 173v27.5v27.5q0 113 -22.5 142.5t-85.5 30.5v27q101 0 133 -55z" />
    <glyph glyph-name="asciitilde" unicode="~" horiz-adv-x="618" 
d="M613 420v-50q-95 -103 -173 -103q-51 0 -130 45l-17 10q-74 43 -113 43q-69 0 -173 -113v52q91 103 173 103q38 0 87 -25q7 -4 39 -23q87 -51 134 -51q69 0 173 112z" />
    <glyph glyph-name="exclamdown" unicode="&#xa1;" horiz-adv-x="187" 
d="M171 219l-129 -401h-73l182 401h20zM219 321q0 -16 -12 -31t-29 -15q-12 0 -20 8.5t-8 20.5q0 16 12 31t28 15q12 0 20.5 -8.5t8.5 -20.5z" />
    <glyph glyph-name="cent" unicode="&#xa2;" horiz-adv-x="327" 
d="M303 166q-47 -54 -85.5 -78.5t-80.5 -24.5l-23 -63h-17l24 64q-34 7 -57 44t-23 102q0 19 20.5 51.5t51.5 64.5t68 58t70 32l31 84h18l-30 -82q26 -2 35 -22.5t9 -41.5q0 -27 -13.5 -44.5t-31.5 -17.5q-11 0 -17.5 9t-6.5 21q0 16 11 31t34 15q2 0 3.5 -0.5t2.5 -0.5
q0 21 -11 28t-23 7q-27 0 -56 -23t-54 -60t-41 -84t-16 -95q0 -10 1.5 -21.5t5.5 -21t12 -16t20 -6.5q15 0 32 3.5t36.5 14t42.5 29.5t51 50z" />
    <glyph glyph-name="sterling" unicode="&#xa3;" horiz-adv-x="623" 
d="M123 348h230q22 66 46.5 128t56.5 110.5t75 80.5t102 40q31 0 43 -15.5t12 -39.5q0 -13 -2 -25.5t-5 -26.5l-14 -1q9 28 9 56q0 15 -9.5 28t-25.5 13q-47 0 -80 -28.5t-58 -76.5t-45 -111t-41 -132h179l-10 -24h-177q-7 -23 -13.5 -45t-14.5 -44h185l-10 -24h-183
q-28 -78 -64.5 -149t-90.5 -122q63 -22 119.5 -41t107.5 -19q52 0 94 16t73 40l11 -10q-41 -32 -96.5 -52.5t-138.5 -20.5q-54 0 -107.5 15.5t-106.5 35.5q-39 -27 -86.5 -42t-107.5 -15q-80 0 -114.5 17t-34.5 40q0 14 13 28.5t36 26t54 19t66 7.5q46 0 90.5 -9t88.5 -23
q44 49 74 116t56 142h-226l10 24h224l28 89h-232zM-25 -141q51 0 92 15.5t74 41.5q-49 18 -95.5 31.5t-91.5 13.5q-46 0 -77 -17t-31 -36t30 -34t99 -15z" />
    <glyph glyph-name="currency" unicode="&#xa4;" horiz-adv-x="664" 
d="M47 348h119q50 78 115.5 146.5t133.5 119t131.5 80t108.5 29.5q24 0 41.5 -15.5t17.5 -42.5q0 -51 -34 -107l-13 4q17 26 26.5 52t9.5 51q0 22 -16.5 32t-29.5 10q-50 0 -106 -29t-111.5 -78t-108 -114t-95.5 -138h284l-10 -24h-288q-13 -23 -23.5 -44.5t-20.5 -44.5h312
l-10 -24h-312q-24 -59 -37 -115.5t-13 -108.5q0 -17 5 -44.5t21 -53t47 -44t82 -18.5q53 0 106.5 19.5t100.5 54.5l8 -10q-45 -35 -98.5 -55t-108.5 -20q-51 0 -90.5 20t-66.5 54t-41 78t-14 91q0 73 28 152h-90l10 24h90q18 44 44 89h-114z" />
    <glyph glyph-name="yen" unicode="&#xa5;" horiz-adv-x="635" 
d="M71 137h197l14 53l8 36h-199l10 24h194q8 44 14.5 99.5t6.5 112.5q0 46 -5.5 89.5t-20 77t-38.5 53.5t-60 20q-22 0 -44 -9t-39.5 -25t-28.5 -37.5t-11 -46.5q0 -14 5.5 -27.5t15.5 -24.5t23.5 -18t29.5 -8l-5 -9q-37 3 -59 29.5t-22 59.5q0 28 11.5 51t29.5 40t41 26.5
t47 9.5q46 0 76 -20.5t48 -55t25 -79t7 -93.5q0 -72 -10.5 -143t-23.5 -143q50 143 109.5 243.5t124 164t131.5 92.5t132 29l-2 -37q-62 -1 -122.5 -31.5t-117 -86t-106 -133t-88.5 -170.5h205l-10 -24h-204q-9 -22 -17 -44t-16 -45h217l-10 -24h-214q-21 -69 -35.5 -141.5
t-22.5 -149.5h-79l78 291h-200z" />
    <glyph glyph-name="brokenbar" unicode="&#xa6;" horiz-adv-x="240" 
d="M140 800v-500h-40v500h40zM100 -366v406h40v-406h-40z" />
    <glyph glyph-name="section" unicode="&#xa7;" horiz-adv-x="600" 
d="M288 200q37 5 60 22q28 20 28 55q0 18 -13 45l-49 108q-38 -5 -61 -22q-28 -21 -28 -56q0 -16 12 -44zM293 190q13 -30 13 -48q0 -48 -44 -79q-40 -29 -89 -29q-23 0 -47 7q-33 11 -33 27t16 16q3 0 32.5 -14t57.5 -14q31 0 53 15q25 18 25 47q0 24 -37 98.5t-37 113.5
q0 48 30 76q27 27 75 34q-12 29 -12 48q0 46 41 78q39 29 86 29q22 0 47 -7q34 -9 34 -25q0 -15 -14 -15q-3 0 -31.5 13t-56.5 13q-77 0 -77 -64q0 -20 18 -58l35 -74q20 -45 20 -78q0 -47 -30 -76q-27 -27 -75 -34z" />
    <glyph glyph-name="dieresis" unicode="&#xa8;" horiz-adv-x="400" 
d="M468 414q0 16 12 31t29 15q12 0 20 -8.5t8 -20.5q0 -16 -12 -31t-28 -15q-12 0 -20.5 8.5t-8.5 20.5zM348 414q0 16 12 31t29 15q12 0 20 -8.5t8 -20.5q0 -16 -12.5 -31t-28.5 -15q-12 0 -20 8.5t-8 20.5z" />
    <glyph glyph-name="copyright" unicode="&#xa9;" horiz-adv-x="507" 
d="M464 519q0 -42 -16.5 -79.5t-44.5 -65.5t-65.5 -44t-79.5 -16t-79.5 16t-65.5 44t-44 65.5t-16 79.5t16 79.5t44 65t65.5 44t79.5 16.5t79.5 -16.5t65.5 -44t44.5 -65t16.5 -79.5zM434 519q0 36 -14 67.5t-38 55.5t-56 37.5t-68 13.5t-68 -13.5t-56 -37.5t-37.5 -55.5
t-13.5 -67.5t13.5 -68t37.5 -56t56 -38t68 -14t68 14t56 38t38 56t14 68zM133 513q0 27 8 51t23.5 43t37.5 30t50 11q20 0 38.5 -7.5t34.5 -21.5l12 22h21v-94h-24q-8 43 -30.5 58.5t-47.5 15.5q-23 0 -37.5 -9.5t-22.5 -25t-11.5 -35t-3.5 -38.5t3.5 -37.5t12.5 -33
t23.5 -23.5t37.5 -9q39 0 58.5 26t19.5 62h26q0 -48 -25.5 -81.5t-83.5 -33.5q-60 0 -90 36.5t-30 93.5z" />
    <glyph glyph-name="ordfeminine" unicode="&#xaa;" horiz-adv-x="432" 
d="M49 825q0 -22 19 -22q35 0 85.5 61t50.5 98q0 23 -26 23q-40 0 -85 -60q-44 -58 -44 -100zM213 947l32 43l50 3l-84 -124q-29 -43 -29 -56q0 -11 12 -11q18 0 67.5 46.5t50.5 46.5h4v-2q0 -10 -42 -48q-38 -34 -53 -43q-19 -12 -36 -12q-31 0 -31 36q0 7 4 27
q-55 -63 -96 -63q-46 0 -46 73q0 15 6 34q-9 -14 -17 -14q-2 0 -2.5 0.5t-1.5 2.5q0 2 10 13q86 96 164 96q41 0 41 -33q0 -6 -3 -15z" />
    <glyph glyph-name="guillemotleft" unicode="&#xab;" horiz-adv-x="324" 
d="M151 30l-75 126l135 109l11 -12l-105 -103l50 -116zM242 20l-75 126l135 109l11 -12l-105 -103l50 -116z" />
    <glyph glyph-name="logicalnot" unicode="&#xac;" horiz-adv-x="1706" 
d="M254 854h1198v-502h-59v439h-1139v63z" />
    <glyph glyph-name="registered" unicode="&#xae;" horiz-adv-x="500" 
d="M463 518q0 -42 -16 -79t-44 -65t-64.5 -44t-78.5 -16q-43 0 -80.5 16t-65.5 44t-44 65t-16 79t16 79.5t44 65t65.5 44t80.5 16.5q42 0 78.5 -16.5t64.5 -44t44 -65t16 -79.5zM433 518q0 36 -13.5 67.5t-37 55.5t-55 37.5t-67.5 13.5q-37 0 -69 -13.5t-56 -37.5
t-37.5 -55.5t-13.5 -67.5t13.5 -68t37.5 -56t56 -38t69 -14q36 0 67.5 14t55 38t37 56t13.5 68zM166 420q12 0 12 14v172q0 14 -12 14h-14v25h120q31 0 52 -16.5t21 -48.5q0 -29 -16 -43t-44 -19q21 -3 29.5 -12t10.5 -30l5 -45q2 -11 12 -11q11 0 11 13v41h25v-31
q0 -9 -1 -18t-5.5 -16.5t-13.5 -12.5t-26 -5q-19 0 -31.5 9t-14.5 28l-6 54q-2 11 -9 19t-20 8h-31v-76q0 -8 3.5 -9.5t10.5 -3.5h11v-24h-93v24h14zM220 534h40q18 0 29.5 13t11.5 31q0 17 -11 29t-28 12h-42v-85z" />
    <glyph glyph-name="degree" unicode="&#xb0;" horiz-adv-x="167" 
d="M178 522q23 0 35 -11.5t12 -29.5q0 -17 -7.5 -33t-20.5 -29.5t-30.5 -21.5t-38.5 -8t-34 12t-13 32q0 18 9.5 34t23.5 28.5t31.5 19.5t32.5 7zM135 411q31 0 50 19.5t19 39.5q0 13 -8.5 21.5t-26.5 8.5q-11 0 -22 -5.5t-21 -14t-16 -19t-6 -21.5q0 -13 8.5 -21t22.5 -8z
" />
    <glyph glyph-name="plusminus" unicode="&#xb1;" horiz-adv-x="416" 
d="M291 382l-38 -125h127l-10 -34h-127l-36 -118h-37l36 118h-129l10 34h130l39 125h35zM39 66h293l-10 -34h-293z" />
    <glyph glyph-name="twosuperior" unicode="&#xb2;" horiz-adv-x="427" 
d="M50 283q-7.5 0 -7.5 7q0 5.5 3.25 12t5.75 9.5q12.5 16 31 33.25t38.5 34.75l40 35t36 34.5t25.75 32.75t9.75 29.75q0 19.5 -9 28.5t-24.5 9q-8.5 0 -17.75 -4.5t-17.75 -10.75t-16 -13.5t-12.5 -12.75q-12.5 -13 -20 -28.5t-7.5 -29.5q0 -11.5 6.25 -14t11.25 -2.5
q11 0 20.25 4.5t16.75 11.5t13.5 15.5t11.5 17l3 -2q-5.5 -9 -12.5 -18t-15.5 -16.25t-18.25 -11.75t-20.75 -4.5q-14 0 -19.75 9.75t-5.75 22.75q0 18 7.75 34.75t21 29.25t31.25 20t38.5 7.5q25.5 0 41.25 -17t15.75 -44q0 -18 -10.25 -32.5t-25.25 -26.5t-32 -22
t-30.5 -19q-16 -11 -34.25 -24.25t-32.75 -27.75q18.5 10 34.25 17t30.75 7q11.5 0 18.75 -5.25t7.25 -18.75q0 -6 -2.5 -12t-5.75 -11.5t-5.75 -11t-2.5 -10.5q0 -2.5 0.75 -4.25t3.25 -1.75q7.5 0 15 3.75t14.75 9.75t13.75 13.5t12 15l2 -2q-17.5 -24 -33 -33.5
t-26.5 -9.5q-8 0 -12.75 6.25t-4.75 14.25q0 6.5 2 12.25t4.25 11.25t4.25 11t2 11.5q0 5 -3.25 6.5t-9.25 1.5q-7.5 0 -19.25 -4.75t-24.25 -11.5t-23.5 -14.25t-17 -13.5q1 -4 1 -8q0 -8 -3 -16.75t-11 -8.75z" />
    <glyph glyph-name="threesuperior" unicode="&#xb3;" horiz-adv-x="360" 
d="M34.5 318q0 9.5 2.75 17t7 12.75t9.25 8.25t9.5 3q4 0 7 -3t3 -10q0 -7.5 -3.5 -12.25t-8.75 -8.25t-11.25 -5.75t-11 -4.75q0 -15.5 8.5 -21.75t19.5 -6.25q19.5 0 39.75 10.25t36.75 25.75t27 32.75t10.5 31.75q0 8 -4.75 16.75t-13.25 8.75q-8 0 -14 -4.25
t-14.5 -4.25q-2.5 0 -4.25 1.5t-1.75 3.5q0 6 4.75 7.75t10.75 1.75h12q6.5 0 9.5 2.5q20.5 16.5 34 40t13.5 47.5q0 33.5 -32 33.5q-11 0 -24.25 -8.5t-24.5 -20.75t-19 -26.25t-7.75 -24.5q0 -6.5 2 -10.25t5 -5.5t6.5 -2.25t6.5 -0.5q11.5 0 21.75 6.25t18.25 14.5
t13.25 16.25t7.25 12v-8q-2.5 -5 -8.25 -12.75t-14.25 -15.25t-19.25 -12.75t-23.25 -5.25q-13.5 0 -21.75 10.75t-8.25 24.25q0 12.5 8.5 25.25t22 23.25t29.75 17.25t32.25 6.75q11 0 21 -3.75t17.75 -10.5t12.25 -16t4.5 -20.25q0 -14.5 -6.75 -27t-17.5 -22.5t-24 -17.5
t-25.75 -12q6.5 -3 13.75 -7.25t13 -9.75t9.5 -12.25t3.75 -15.25q0 -13 -6.5 -24.75t-17.25 -22.25t-24.75 -19t-28.5 -14.5t-28.75 -9.25t-25.75 -3.25q-18 0 -28.25 10.5t-10.25 28z" />
    <glyph glyph-name="acute" unicode="&#xb4;" horiz-adv-x="400" 
d="M342 394q39 25 66 57.5t35 64.5l35 -24q-7 -19 -21 -36.5t-32 -31.5t-36.5 -24.5t-34.5 -15.5z" />
    <glyph glyph-name="paragraph" unicode="&#xb6;" horiz-adv-x="501" 
d="M147 -204q93 5 145 38t77 83.5t30.5 113t5.5 125.5q0 50 -5 100t-5 94t12.5 98.5t51.5 129.5q-15 3 -28 3q-45 0 -77 -22.5t-52.5 -60t-30 -85t-9.5 -96.5q0 -40 6 -79t17 -73t27.5 -60.5t36.5 -41.5l1 -13q-66 4 -116.5 30t-84.5 65t-51 87.5t-17 98.5q0 51 18 99.5
t54.5 86.5t92 61t130.5 23q54 0 111 -16q-26 -45 -34.5 -95t-8.5 -90q0 -56 6 -117t6 -118q0 -68 -10 -135t-42.5 -120.5t-93.5 -88t-163 -37.5v12z" />
    <glyph glyph-name="cedilla" unicode="&#xb8;" horiz-adv-x="400" 
d="M57 -116q13 -5 31 -9.5t42 -4.5q23 0 37.5 12t14.5 28q0 19 -11.5 26t-26.5 7q-14 0 -29 -5l-5 16l30 61h22l-26 -51q5 1 9 1.5t9 0.5q23 0 42 -12t19 -39q0 -28 -22 -46t-60 -18q-26 0 -48 5.5t-36 12.5z" />
    <glyph glyph-name="onesuperior" unicode="&#xb9;" horiz-adv-x="426" 
d="M209.5 469q-10 -29 -22.75 -62.75t-25.75 -69t-25 -70.25t-20.5 -65.5h-36l90 217q-22.5 -30 -50.5 -53.5t-63 -41v10q22 9.5 43.25 25.25t39.5 34.25t32.25 38.25t21.5 37.75z" />
    <glyph glyph-name="ordmasculine" unicode="&#xba;" horiz-adv-x="237" 
d="M197 539q18 0 31 -8t22 -21t13 -29.5t4 -34.5q0 -29 -9 -56t-23.5 -48.5t-33.5 -34.5t-39 -13q-34 0 -59 29t-25 74q0 27 10 53t26.5 45.5t38 31.5t44.5 12zM203 522q-18 0 -34 -17.5t-28 -42t-19 -50.5t-7 -43q0 -26 12 -42.5t31 -16.5q21 0 38 12.5t30 33t20 45.5t7 50
q0 35 -15 53t-35 18zM49 217h183l-5 -24h-183z" />
    <glyph glyph-name="guillemotright" unicode="&#xbb;" horiz-adv-x="324" 
d="M238 260l75 -126l-135 -109l-11 12l105 103l-50 116zM147 270l75 -126l-135 -109l-11 12l105 103l-50 116z" />
    <glyph glyph-name="onequarter" unicode="&#xbc;" horiz-adv-x="1155" 
d="M795 135q-84 0 -84 -33q0 -10 18 -10q23 0 66 43zM1194 401l8 -12q-81 -61 -190 -258q37 0 80 16l6 -14q-32 -18 -99 -18q-65 -111 -186 -129l-4 14q71 22 128 119q-40 7 -122 16q-51 -59 -92 -59q-33 0 -33 26q0 48 111 48h6q11 19 39 78q78 165 184 210l10 -12
q-88 -74 -210 -276q39 -6 116 -15q109 174 248 266zM137 -25l977 807h47l-938 -807h-86zM-2 319l-4 15q62 18 259 309l21 31q-75 -70 -122 -99l-13 13q27 19 114 96q69 62 120 86l12 -12q-57 -37 -139 -187q-62 -114 -97 -156q-65 -77 -151 -96z" />
    <glyph glyph-name="onehalf" unicode="&#xbd;" horiz-adv-x="1155" 
d="M1012 295q-47 -70 -97 -70q-51 0 -51 47q0 60 61 113t122 53q86 0 86 -88q0 -112 -199 -211q-23 -11 -63 -30q-93 -43 -119 -72q22 6 45 6q21 0 59.5 -8t54.5 -8q36 0 62 22l12 -12q-55 -49 -102 -49q-25 0 -65 16t-52 16q-23 0 -55 -32l-15 10q35 60 150 124q16 9 41 23
q207 126 207 234q0 39 -37 39q-32 0 -78 -41q-76 -68 -76 -113q0 -18 23 -18q26 0 71 57zM137 -25l977 807h47l-938 -807h-86zM-2 319l-4 15q62 18 259 309l21 31q-75 -70 -122 -99l-13 13q27 19 114 96q69 62 120 86l12 -12q-57 -37 -139 -187q-62 -114 -97 -156
q-65 -77 -151 -96z" />
    <glyph glyph-name="threequarters" unicode="&#xbe;" horiz-adv-x="1155" 
d="M795 135q-84 0 -84 -33q0 -10 18 -10q23 0 66 43zM1194 401l8 -12q-81 -61 -190 -258q37 0 80 16l6 -14q-32 -18 -99 -18q-65 -111 -186 -129l-4 14q71 22 128 119q-40 7 -122 16q-51 -59 -92 -59q-33 0 -33 26q0 48 111 48h6q11 19 39 78q78 165 184 210l10 -12
q-88 -74 -210 -276q39 -6 116 -15q109 174 248 266zM137 -25l977 807h47l-938 -807h-86zM-2 358q27 -18 57 -18q47 0 103 45q86 69 86 119q0 39 -45 39h-45l4 16h6q61 0 112 39q76 58 76 119q0 37 -37 37q-31 0 -79 -43q-62 -56 -62 -76q0 -15 19 -17q28 0 86 62l12 -10
q-62 -72 -111 -72q-43 0 -43 43q0 50 60 92q56 39 108 39q84 0 84 -72q0 -54 -47 -97q-41 -38 -98 -52q43 -19 43 -62q0 -69 -80 -122q-72 -48 -144 -48q-36 0 -69 15q-41 19 -41 51q0 41 41 41q37 0 37 -33q0 -25 -33 -35z" />
    <glyph glyph-name="questiondown" unicode="&#xbf;" horiz-adv-x="287" 
d="M252 227q-7 -35 -24 -62t-38 -50t-43.5 -44t-41 -43.5t-30.5 -48.5t-12 -59q0 -64 48 -64q23 0 43.5 9t35.5 21.5t24 24.5t9 18q-19 0 -33 10t-14 33q0 17 10 25t22 8q14 0 25.5 -10.5t11.5 -31.5q0 -22 -11.5 -42.5t-30.5 -37t-44 -26.5t-51 -10q-42 0 -67.5 26
t-25.5 71q0 36 13.5 62t35 46t47.5 37.5t50.5 37.5t44 44.5t29.5 60.5zM316 321q0 -16 -12 -31t-29 -15q-12 0 -20 8.5t-8 20.5q0 16 12 31t28 15q12 0 20.5 -8.5t8.5 -20.5z" />
    <glyph glyph-name="Agrave" unicode="&#xc0;" horiz-adv-x="1077" 
d="M1158 879q-16 5 -34.5 15.5t-36.5 24.5t-32 31.5t-21 36.5l35 24q8 -32 35 -64.5t66 -57.5zM167 101q21 -7 50 -7q36 0 74.5 11.5t71 32.5t53 51t20.5 66q0 25 -9 43t-25 30t-37 17.5t-46 5.5q-46 0 -98.5 -18t-97.5 -49.5t-74.5 -76t-29.5 -96.5q0 -29 13 -57t40 -50
t69.5 -35.5t101.5 -13.5q56 0 108 16.5t100.5 46t94 70t87.5 87.5q-23 33 -35 72.5t-12 84.5q0 32 7 61.5t22 52t40 36t61 13.5q34 0 60.5 -18t46.5 -47q48 72 91.5 140.5t84 124t78 93.5t73.5 50q3 0 13 -2t10 -15q0 -7 -4 -16q-21 -44 -44.5 -101.5t-48 -123t-48.5 -136
t-46.5 -139.5t-42 -134t-40.5 -136q35 -1 63 4.5t62 24.5t63.5 50.5t55.5 73.5l6 -5q-29 -44 -57.5 -76.5t-58.5 -51t-61 -27.5t-77 -9q-10 -41 -14 -58h-59q8 28 18 65q-62 17 -109.5 49t-88.5 87q-44 -48 -90.5 -89t-97 -71t-105 -47t-112.5 -17q-40 0 -82 9.5t-76.5 31
t-56.5 56t-22 83.5q0 62 28.5 112.5t73 86t97.5 55t102 19.5q31 0 58.5 -8.5t48 -26t32.5 -45t12 -64.5q0 -35 -23 -65.5t-58.5 -54t-78.5 -37t-83 -13.5q-26 0 -48 6zM1144 817q-33 -14 -68 -52t-73.5 -92.5t-81 -121t-89.5 -136.5q28 -48 40.5 -107t12.5 -106v-18
q27 83 61 177t70 181t70.5 158.5t62.5 109.5q0 7 -5 7zM824 402q-38 -56 -77.5 -110.5t-83.5 -105.5q32 -51 78 -86t104 -54q8 29 13 48.5t11 41.5q3 15 4 30t1 31q0 55 -12 109.5t-38 95.5zM654 200q43 51 82.5 105.5t77.5 111.5q-20 27 -47 43t-62 16q-27 0 -44.5 -10.5
t-27.5 -28t-14 -39.5t-4 -46q0 -42 10.5 -80.5t28.5 -71.5z" />
    <glyph glyph-name="Aacute" unicode="&#xc1;" horiz-adv-x="1076" 
d="M1101 889q39 25 66 57.5t35 64.5l35 -24q-7 -19 -21 -36.5t-32 -31.5t-36.5 -24.5t-34.5 -15.5zM167 101q21 -7 50 -7q36 0 74.5 11.5t71 32.5t53 51t20.5 66q0 25 -9 43t-25 30t-37 17.5t-46 5.5q-46 0 -98.5 -18t-97.5 -49.5t-74.5 -76t-29.5 -96.5q0 -29 13 -57
t40 -50t69.5 -35.5t101.5 -13.5q56 0 108 16.5t100.5 46t94 70t87.5 87.5q-23 33 -35 72.5t-12 84.5q0 32 7 61.5t22 52t40 36t61 13.5q34 0 60.5 -18t46.5 -47q48 72 91.5 140.5t84 124t78 93.5t73.5 50q3 0 13 -2t10 -15q0 -7 -4 -16q-21 -44 -44.5 -101.5t-48 -123
t-48.5 -136t-46.5 -139.5t-42 -134t-40.5 -136q35 -1 63 4.5t62 24.5t63.5 50.5t55.5 73.5l6 -5q-29 -44 -57.5 -76.5t-58.5 -51t-61 -27.5t-77 -9q-10 -41 -14 -58h-59q8 28 18 65q-62 17 -109.5 49t-88.5 87q-44 -48 -90.5 -89t-97 -71t-105 -47t-112.5 -17q-40 0 -82 9.5
t-76.5 31t-56.5 56t-22 83.5q0 62 28.5 112.5t73 86t97.5 55t102 19.5q31 0 58.5 -8.5t48 -26t32.5 -45t12 -64.5q0 -35 -23 -65.5t-58.5 -54t-78.5 -37t-83 -13.5q-26 0 -48 6zM1144 817q-33 -14 -68 -52t-73.5 -92.5t-81 -121t-89.5 -136.5q28 -48 40.5 -107t12.5 -106
v-18q27 83 61 177t70 181t70.5 158.5t62.5 109.5q0 7 -5 7zM824 402q-38 -56 -77.5 -110.5t-83.5 -105.5q32 -51 78 -86t104 -54q8 29 13 48.5t11 41.5q3 15 4 30t1 31q0 55 -12 109.5t-38 95.5zM654 200q43 51 82.5 105.5t77.5 111.5q-20 27 -47 43t-62 16
q-27 0 -44.5 -10.5t-27.5 -28t-14 -39.5t-4 -46q0 -42 10.5 -80.5t28.5 -71.5z" />
    <glyph glyph-name="Acircumflex" unicode="&#xc2;" horiz-adv-x="1077" 
d="M1165 997l54 -104l-19 -9l-43 70l-111 -75l-15 15l129 103h5zM167 101q21 -7 50 -7q36 0 74.5 11.5t71 32.5t53 51t20.5 66q0 25 -9 43t-25 30t-37 17.5t-46 5.5q-46 0 -98.5 -18t-97.5 -49.5t-74.5 -76t-29.5 -96.5q0 -29 13 -57t40 -50t69.5 -35.5t101.5 -13.5
q56 0 108 16.5t100.5 46t94 70t87.5 87.5q-23 33 -35 72.5t-12 84.5q0 32 7 61.5t22 52t40 36t61 13.5q34 0 60.5 -18t46.5 -47q48 72 91.5 140.5t84 124t78 93.5t73.5 50q3 0 13 -2t10 -15q0 -7 -4 -16q-21 -44 -44.5 -101.5t-48 -123t-48.5 -136t-46.5 -139.5t-42 -134
t-40.5 -136q35 -1 63 4.5t62 24.5t63.5 50.5t55.5 73.5l6 -5q-29 -44 -57.5 -76.5t-58.5 -51t-61 -27.5t-77 -9q-10 -41 -14 -58h-59q8 28 18 65q-62 17 -109.5 49t-88.5 87q-44 -48 -90.5 -89t-97 -71t-105 -47t-112.5 -17q-40 0 -82 9.5t-76.5 31t-56.5 56t-22 83.5
q0 62 28.5 112.5t73 86t97.5 55t102 19.5q31 0 58.5 -8.5t48 -26t32.5 -45t12 -64.5q0 -35 -23 -65.5t-58.5 -54t-78.5 -37t-83 -13.5q-26 0 -48 6zM1144 817q-33 -14 -68 -52t-73.5 -92.5t-81 -121t-89.5 -136.5q28 -48 40.5 -107t12.5 -106v-18q27 83 61 177t70 181
t70.5 158.5t62.5 109.5q0 7 -5 7zM824 402q-38 -56 -77.5 -110.5t-83.5 -105.5q32 -51 78 -86t104 -54q8 29 13 48.5t11 41.5q3 15 4 30t1 31q0 55 -12 109.5t-38 95.5zM654 200q43 51 82.5 105.5t77.5 111.5q-20 27 -47 43t-62 16q-27 0 -44.5 -10.5t-27.5 -28t-14 -39.5
t-4 -46q0 -42 10.5 -80.5t28.5 -71.5z" />
    <glyph glyph-name="Atilde" unicode="&#xc3;" horiz-adv-x="1077" 
d="M1029 894q5 17 22.5 32.5t41.5 15.5q12 0 24.5 -4.5t25 -10.5t24.5 -10.5t23 -4.5q17 0 25.5 12t14.5 20l16 -8q-5 -17 -21.5 -34t-42.5 -17q-12 0 -24.5 4.5t-25 10t-24.5 10t-23 4.5q-16 0 -24.5 -10.5t-14.5 -18.5zM167 101q21 -7 50 -7q36 0 74.5 11.5t71 32.5t53 51
t20.5 66q0 25 -9 43t-25 30t-37 17.5t-46 5.5q-46 0 -98.5 -18t-97.5 -49.5t-74.5 -76t-29.5 -96.5q0 -29 13 -57t40 -50t69.5 -35.5t101.5 -13.5q56 0 108 16.5t100.5 46t94 70t87.5 87.5q-23 33 -35 72.5t-12 84.5q0 32 7 61.5t22 52t40 36t61 13.5q34 0 60.5 -18
t46.5 -47q48 72 91.5 140.5t84 124t78 93.5t73.5 50q3 0 13 -2t10 -15q0 -7 -4 -16q-21 -44 -44.5 -101.5t-48 -123t-48.5 -136t-46.5 -139.5t-42 -134t-40.5 -136q35 -1 63 4.5t62 24.5t63.5 50.5t55.5 73.5l6 -5q-29 -44 -57.5 -76.5t-58.5 -51t-61 -27.5t-77 -9
q-10 -41 -14 -58h-59q8 28 18 65q-62 17 -109.5 49t-88.5 87q-44 -48 -90.5 -89t-97 -71t-105 -47t-112.5 -17q-40 0 -82 9.5t-76.5 31t-56.5 56t-22 83.5q0 62 28.5 112.5t73 86t97.5 55t102 19.5q31 0 58.5 -8.5t48 -26t32.5 -45t12 -64.5q0 -35 -23 -65.5t-58.5 -54
t-78.5 -37t-83 -13.5q-26 0 -48 6zM1144 817q-33 -14 -68 -52t-73.5 -92.5t-81 -121t-89.5 -136.5q28 -48 40.5 -107t12.5 -106v-18q27 83 61 177t70 181t70.5 158.5t62.5 109.5q0 7 -5 7zM824 402q-38 -56 -77.5 -110.5t-83.5 -105.5q32 -51 78 -86t104 -54q8 29 13 48.5
t11 41.5q3 15 4 30t1 31q0 55 -12 109.5t-38 95.5zM654 200q43 51 82.5 105.5t77.5 111.5q-20 27 -47 43t-62 16q-27 0 -44.5 -10.5t-27.5 -28t-14 -39.5t-4 -46q0 -42 10.5 -80.5t28.5 -71.5z" />
    <glyph glyph-name="Adieresis" unicode="&#xc4;" horiz-adv-x="1077" 
d="M1190 909q0 16 12 31t29 15q12 0 20 -8.5t8 -20.5q0 -16 -12 -31t-28 -15q-12 0 -20.5 8.5t-8.5 20.5zM1070 909q0 16 12 31t29 15q12 0 20 -8.5t8 -20.5q0 -16 -12.5 -31t-28.5 -15q-12 0 -20 8.5t-8 20.5zM167 101q21 -7 50 -7q36 0 74.5 11.5t71 32.5t53 51t20.5 66
q0 25 -9 43t-25 30t-37 17.5t-46 5.5q-46 0 -98.5 -18t-97.5 -49.5t-74.5 -76t-29.5 -96.5q0 -29 13 -57t40 -50t69.5 -35.5t101.5 -13.5q56 0 108 16.5t100.5 46t94 70t87.5 87.5q-23 33 -35 72.5t-12 84.5q0 32 7 61.5t22 52t40 36t61 13.5q34 0 60.5 -18t46.5 -47
q48 72 91.5 140.5t84 124t78 93.5t73.5 50q3 0 13 -2t10 -15q0 -7 -4 -16q-21 -44 -44.5 -101.5t-48 -123t-48.5 -136t-46.5 -139.5t-42 -134t-40.5 -136q35 -1 63 4.5t62 24.5t63.5 50.5t55.5 73.5l6 -5q-29 -44 -57.5 -76.5t-58.5 -51t-61 -27.5t-77 -9q-10 -41 -14 -58
h-59q8 28 18 65q-62 17 -109.5 49t-88.5 87q-44 -48 -90.5 -89t-97 -71t-105 -47t-112.5 -17q-40 0 -82 9.5t-76.5 31t-56.5 56t-22 83.5q0 62 28.5 112.5t73 86t97.5 55t102 19.5q31 0 58.5 -8.5t48 -26t32.5 -45t12 -64.5q0 -35 -23 -65.5t-58.5 -54t-78.5 -37t-83 -13.5
q-26 0 -48 6zM1144 817q-33 -14 -68 -52t-73.5 -92.5t-81 -121t-89.5 -136.5q28 -48 40.5 -107t12.5 -106v-18q27 83 61 177t70 181t70.5 158.5t62.5 109.5q0 7 -5 7zM824 402q-38 -56 -77.5 -110.5t-83.5 -105.5q32 -51 78 -86t104 -54q8 29 13 48.5t11 41.5q3 15 4 30
t1 31q0 55 -12 109.5t-38 95.5zM654 200q43 51 82.5 105.5t77.5 111.5q-20 27 -47 43t-62 16q-27 0 -44.5 -10.5t-27.5 -28t-14 -39.5t-4 -46q0 -42 10.5 -80.5t28.5 -71.5z" />
    <glyph glyph-name="Aring" unicode="&#xc5;" horiz-adv-x="1077" 
d="M1073 941q0 29 20 48.5t48 19.5q29 0 48.5 -19.5t19.5 -48.5q0 -28 -19.5 -48t-48.5 -20q-28 0 -48 20t-20 48zM1096 941q0 -20 12.5 -33.5t32.5 -13.5t34 13.5t14 33.5t-14 33.5t-34 13.5t-32.5 -13.5t-12.5 -33.5zM167 101q21 -7 50 -7q36 0 74.5 11.5t71 32.5t53 51
t20.5 66q0 25 -9 43t-25 30t-37 17.5t-46 5.5q-46 0 -98.5 -18t-97.5 -49.5t-74.5 -76t-29.5 -96.5q0 -29 13 -57t40 -50t69.5 -35.5t101.5 -13.5q56 0 108 16.5t100.5 46t94 70t87.5 87.5q-23 33 -35 72.5t-12 84.5q0 32 7 61.5t22 52t40 36t61 13.5q34 0 60.5 -18
t46.5 -47q48 72 91.5 140.5t84 124t78 93.5t73.5 50q3 0 13 -2t10 -15q0 -7 -4 -16q-21 -44 -44.5 -101.5t-48 -123t-48.5 -136t-46.5 -139.5t-42 -134t-40.5 -136q35 -1 63 4.5t62 24.5t63.5 50.5t55.5 73.5l6 -5q-29 -44 -57.5 -76.5t-58.5 -51t-61 -27.5t-77 -9
q-10 -41 -14 -58h-59q8 28 18 65q-62 17 -109.5 49t-88.5 87q-44 -48 -90.5 -89t-97 -71t-105 -47t-112.5 -17q-40 0 -82 9.5t-76.5 31t-56.5 56t-22 83.5q0 62 28.5 112.5t73 86t97.5 55t102 19.5q31 0 58.5 -8.5t48 -26t32.5 -45t12 -64.5q0 -35 -23 -65.5t-58.5 -54
t-78.5 -37t-83 -13.5q-26 0 -48 6zM1144 817q-33 -14 -68 -52t-73.5 -92.5t-81 -121t-89.5 -136.5q28 -48 40.5 -107t12.5 -106v-18q27 83 61 177t70 181t70.5 158.5t62.5 109.5q0 7 -5 7zM824 402q-38 -56 -77.5 -110.5t-83.5 -105.5q32 -51 78 -86t104 -54q8 29 13 48.5
t11 41.5q3 15 4 30t1 31q0 55 -12 109.5t-38 95.5zM654 200q43 51 82.5 105.5t77.5 111.5q-20 27 -47 43t-62 16q-27 0 -44.5 -10.5t-27.5 -28t-14 -39.5t-4 -46q0 -42 10.5 -80.5t28.5 -71.5z" />
    <glyph glyph-name="AE" unicode="&#xc6;" horiz-adv-x="1401" 
d="M1038 50q4 66 23 120.5t50 94.5t74 62t95 22q27 0 47.5 -8.5t34 -23.5t20.5 -35t7 -42q0 -49 -23 -98.5t-63 -89.5t-94 -65t-116 -25q-60 0 -108.5 29.5t-73.5 83.5q-20 -66 -30 -114h-55q2 18 8 45t16 60q-57 11 -106 41.5t-83 76.5q-45 -52 -94 -97t-101.5 -78
t-110 -52t-118.5 -19q-40 0 -82 9.5t-76.5 31t-56.5 56t-22 83.5q0 63 28 114t71.5 87t96 55.5t101.5 19.5q32 0 60 -8.5t49 -26.5t33.5 -46t12.5 -66q0 -35 -23 -65.5t-58.5 -54t-78.5 -37t-83 -13.5q-26 0 -48 6l6 18q21 -7 50 -7q36 0 74.5 11.5t71 32.5t53 51t20.5 66
q0 53 -37 78t-91 25q-46 0 -97 -17t-93.5 -49t-70.5 -78t-28 -103q0 -29 13 -57t40 -50t69.5 -35.5t101.5 -13.5t113.5 18.5t105.5 51t98 76.5t91 96q-22 32 -34 71t-12 84q0 32 7 61.5t22 52t40 36t61 13.5q33 0 58.5 -17t45.5 -44q45 69 86.5 133.5t80 116.5t74.5 87.5
t70 46.5q3 0 13 -2t10 -15q0 -7 -4 -16q-19 -39 -39.5 -88.5t-42 -106.5t-43 -118.5t-42.5 -123.5q38 33 80 59.5t82 44.5q-21 17 -34 43t-13 59q0 24 16 53t42 59t59 57.5t67.5 49.5t67.5 35t59 13q23 0 38.5 -12t15.5 -37q0 -33 -19.5 -65t-52.5 -62.5t-77 -58t-93 -50.5
l-4 13q49 25 91.5 53.5t74 57.5t49.5 56.5t18 50.5q0 15 -11 24t-25 9q-28 0 -59 -14t-60.5 -37t-56.5 -52.5t-47.5 -61.5t-32.5 -63.5t-12 -57.5q0 -18 4.5 -31.5t12.5 -22.5q59 25 93 25q26 0 35.5 -10.5t9.5 -22.5q0 -11 -5.5 -17.5t-14 -11t-18 -6t-16.5 -1.5
q-24 0 -47.5 6.5t-43.5 20.5q-42 -23 -82.5 -60.5t-73 -81t-52 -89.5t-19.5 -87q0 -84 33 -128.5t117 -44.5q58 0 108.5 27t88 66t59.5 82t22 75q0 21 -4 40.5t-13.5 35t-26 24.5t-41.5 9q-47 0 -87 -23t-70.5 -62t-51 -91.5t-27.5 -111.5zM840 426q-37 -56 -76.5 -111.5
t-82.5 -107.5q30 -48 74.5 -81t97.5 -46q8 29 18 61t22 67v9q0 57 -13 112t-40 97zM1144 817q-31 -13 -64.5 -48.5t-70 -86t-76.5 -113t-84 -129.5q26 -44 39 -98.5t15 -101.5q27 80 59 166t65 164t64.5 141.5t57.5 98.5q0 7 -5 7zM672 222q43 52 82 107t76 112
q-20 26 -46.5 40.5t-59.5 14.5q-27 0 -44.5 -10.5t-27.5 -28t-14 -39.5t-4 -46q0 -42 10 -79.5t28 -70.5zM1272 493q-20 0 -40 -5.5t-42 -16.5q18 -16 39 -19.5t31 -3.5q47 0 47 22q0 23 -35 23z" />
    <glyph glyph-name="Ccedilla" unicode="&#xc7;" horiz-adv-x="789" 
d="M197 -109q13 -5 31 -9.5t42 -4.5q23 0 37.5 12t14.5 28q0 19 -11.5 26t-26.5 7q-14 0 -29 -5l-5 16l27 63q-32 35 -48 82t-16 98q0 40 8.5 80.5t23.5 80.5q-19 -3 -37.5 -4t-35.5 -1q-42 0 -85.5 10t-79.5 33t-59 61t-23 94q0 62 26 109.5t69 82.5t98.5 58t114.5 37
t117 19.5t106 5.5q22 0 35 -0.5t29 -1.5l-1 -20q-24 2 -48 3.5t-48 1.5q-87 0 -170.5 -22t-149 -62.5t-105.5 -98t-40 -127.5q0 -47 16.5 -79t45.5 -51.5t69.5 -28t87.5 -8.5q35 0 74 6q27 64 68 125t90 115t103 99.5t106 78t99 50.5t82 18q24 0 41.5 -15.5t17.5 -42.5
q0 -42 -22 -85.5t-60.5 -85.5t-90.5 -82t-111.5 -74t-124 -60.5t-127.5 -42.5q-29 -64 -44.5 -127.5t-15.5 -120.5q0 -15 3.5 -38.5t15.5 -47t34.5 -43t60.5 -27.5v7q0 89 23.5 162.5t62 126t88 81.5t101.5 29q53 0 82.5 -29.5t29.5 -80.5q0 -61 -29.5 -117t-77.5 -99
t-108.5 -69t-122.5 -26q-20 0 -36 3q0 -42 5.5 -86.5t14.5 -74.5l-9 -4q-5 13 -14 53t-10 115q-45 10 -79 38l-21 -34q5 1 9 1.5t9 0.5q23 0 42 -12t19 -39q0 -28 -22 -46t-60 -18q-26 0 -48 5.5t-36 12.5zM801 852q-58 0 -123.5 -38.5t-129.5 -101.5t-121 -145t-97 -169
q61 17 123 43t119 59t107.5 71.5t87.5 79t58.5 81t21.5 78.5q0 22 -16.5 32t-29.5 10zM664 366q-56 0 -106 -37.5t-87.5 -95t-59.5 -126.5t-22 -133q6 -1 13 -1.5t15 -0.5q58 0 117.5 23.5t108 65t79 97t30.5 118.5q0 40 -23 65t-65 25z" />
    <glyph glyph-name="Egrave" unicode="&#xc8;" horiz-adv-x="603" 
d="M267 -177q-21 75 -27 146q-63 17 -105 69t-42 134q0 48 26 93.5t66 84.5t88 70t93 52q-20 15 -32 38q-59 -21 -112.5 -32.5t-92.5 -11.5q-100 0 -159.5 44t-59.5 124q0 42 17.5 76.5t46.5 61t68 46t82 32t88 18.5t86 6q12 0 24 -0.5t23 -1.5v-16q-11 2 -22 2h-22
q-66 0 -132 -19.5t-119.5 -53t-86.5 -78.5t-33 -97q0 -37 19.5 -62t49 -40t62.5 -21.5t60 -6.5q49 0 102 11t106 30q-5 12 -7.5 25t-2.5 28q0 24 16 53t42 59t59 57.5t67.5 49.5t67.5 35t59 13q23 0 38.5 -12t15.5 -37q0 -39 -27.5 -77t-72 -73t-101.5 -65.5t-116 -53.5
q3 -27 17 -43q59 25 93 25q26 0 35.5 -10.5t9.5 -22.5q0 -11 -5.5 -17.5t-14 -11t-18 -6t-16.5 -1.5q-24 0 -47.5 6.5t-43.5 20.5q-42 -23 -82.5 -60.5t-73 -81t-52 -89.5t-19.5 -87q0 -67 20 -109t70 -56q-1 8 -1 16v16q0 73 17 135t48.5 107t76.5 70t101 25
q27 0 47.5 -8.5t34 -23.5t20.5 -35t7 -42q0 -49 -23 -98.5t-63 -89.5t-94 -65t-116 -25q-11 0 -21.5 1t-20.5 3q2 -73 25 -142zM253 -23q11 -2 22 -3.5t25 -1.5q58 0 108.5 27t88 66t59.5 82t22 75q0 21 -4 40.5t-13.5 35t-26 24.5t-41.5 9q-53 0 -97.5 -29t-76 -78
t-49 -112t-17.5 -132v-3zM635 820q-28 0 -59 -13.5t-60.5 -36.5t-56 -52.5t-47 -61t-33 -63t-12.5 -57.5q61 25 116 57t97 66t66.5 67.5t24.5 60.5q0 15 -11 24t-25 9zM474 493q-20 0 -40 -5.5t-42 -16.5q18 -16 39 -19.5t31 -3.5q47 0 47 22q0 23 -35 23zM580 879
q-16 5 -34.5 15.5t-36.5 24.5t-32 31.5t-21 36.5l35 24q8 -32 35 -64.5t66 -57.5z" />
    <glyph glyph-name="Eacute" unicode="&#xc9;" horiz-adv-x="603" 
d="M267 -177q-21 75 -27 146q-63 17 -105 69t-42 134q0 48 26 93.5t66 84.5t88 70t93 52q-20 15 -32 38q-59 -21 -112.5 -32.5t-92.5 -11.5q-100 0 -159.5 44t-59.5 124q0 42 17.5 76.5t46.5 61t68 46t82 32t88 18.5t86 6q12 0 24 -0.5t23 -1.5v-16q-11 2 -22 2h-22
q-66 0 -132 -19.5t-119.5 -53t-86.5 -78.5t-33 -97q0 -37 19.5 -62t49 -40t62.5 -21.5t60 -6.5q49 0 102 11t106 30q-5 12 -7.5 25t-2.5 28q0 24 16 53t42 59t59 57.5t67.5 49.5t67.5 35t59 13q23 0 38.5 -12t15.5 -37q0 -39 -27.5 -77t-72 -73t-101.5 -65.5t-116 -53.5
q3 -27 17 -43q59 25 93 25q26 0 35.5 -10.5t9.5 -22.5q0 -11 -5.5 -17.5t-14 -11t-18 -6t-16.5 -1.5q-24 0 -47.5 6.5t-43.5 20.5q-42 -23 -82.5 -60.5t-73 -81t-52 -89.5t-19.5 -87q0 -67 20 -109t70 -56q-1 8 -1 16v16q0 73 17 135t48.5 107t76.5 70t101 25
q27 0 47.5 -8.5t34 -23.5t20.5 -35t7 -42q0 -49 -23 -98.5t-63 -89.5t-94 -65t-116 -25q-11 0 -21.5 1t-20.5 3q2 -73 25 -142zM253 -23q11 -2 22 -3.5t25 -1.5q58 0 108.5 27t88 66t59.5 82t22 75q0 21 -4 40.5t-13.5 35t-26 24.5t-41.5 9q-53 0 -97.5 -29t-76 -78
t-49 -112t-17.5 -132v-3zM635 820q-28 0 -59 -13.5t-60.5 -36.5t-56 -52.5t-47 -61t-33 -63t-12.5 -57.5q61 25 116 57t97 66t66.5 67.5t24.5 60.5q0 15 -11 24t-25 9zM474 493q-20 0 -40 -5.5t-42 -16.5q18 -16 39 -19.5t31 -3.5q47 0 47 22q0 23 -35 23zM537 889
q39 25 66 57.5t35 64.5l35 -24q-7 -19 -21 -36.5t-32 -31.5t-36.5 -24.5t-34.5 -15.5z" />
    <glyph glyph-name="Ecircumflex" unicode="&#xca;" horiz-adv-x="603" 
d="M267 -177q-21 75 -27 146q-63 17 -105 69t-42 134q0 48 26 93.5t66 84.5t88 70t93 52q-20 15 -32 38q-59 -21 -112.5 -32.5t-92.5 -11.5q-100 0 -159.5 44t-59.5 124q0 42 17.5 76.5t46.5 61t68 46t82 32t88 18.5t86 6q12 0 24 -0.5t23 -1.5v-16q-11 2 -22 2h-22
q-66 0 -132 -19.5t-119.5 -53t-86.5 -78.5t-33 -97q0 -37 19.5 -62t49 -40t62.5 -21.5t60 -6.5q49 0 102 11t106 30q-5 12 -7.5 25t-2.5 28q0 24 16 53t42 59t59 57.5t67.5 49.5t67.5 35t59 13q23 0 38.5 -12t15.5 -37q0 -39 -27.5 -77t-72 -73t-101.5 -65.5t-116 -53.5
q3 -27 17 -43q59 25 93 25q26 0 35.5 -10.5t9.5 -22.5q0 -11 -5.5 -17.5t-14 -11t-18 -6t-16.5 -1.5q-24 0 -47.5 6.5t-43.5 20.5q-42 -23 -82.5 -60.5t-73 -81t-52 -89.5t-19.5 -87q0 -67 20 -109t70 -56q-1 8 -1 16v16q0 73 17 135t48.5 107t76.5 70t101 25
q27 0 47.5 -8.5t34 -23.5t20.5 -35t7 -42q0 -49 -23 -98.5t-63 -89.5t-94 -65t-116 -25q-11 0 -21.5 1t-20.5 3q2 -73 25 -142zM253 -23q11 -2 22 -3.5t25 -1.5q58 0 108.5 27t88 66t59.5 82t22 75q0 21 -4 40.5t-13.5 35t-26 24.5t-41.5 9q-53 0 -97.5 -29t-76 -78
t-49 -112t-17.5 -132v-3zM635 820q-28 0 -59 -13.5t-60.5 -36.5t-56 -52.5t-47 -61t-33 -63t-12.5 -57.5q61 25 116 57t97 66t66.5 67.5t24.5 60.5q0 15 -11 24t-25 9zM474 493q-20 0 -40 -5.5t-42 -16.5q18 -16 39 -19.5t31 -3.5q47 0 47 22q0 23 -35 23zM633 997l54 -104
l-19 -9l-43 70l-111 -75l-15 15l129 103h5z" />
    <glyph glyph-name="Edieresis" unicode="&#xcb;" horiz-adv-x="603" 
d="M267 -177q-21 75 -27 146q-63 17 -105 69t-42 134q0 48 26 93.5t66 84.5t88 70t93 52q-20 15 -32 38q-59 -21 -112.5 -32.5t-92.5 -11.5q-100 0 -159.5 44t-59.5 124q0 42 17.5 76.5t46.5 61t68 46t82 32t88 18.5t86 6q12 0 24 -0.5t23 -1.5v-16q-11 2 -22 2h-22
q-66 0 -132 -19.5t-119.5 -53t-86.5 -78.5t-33 -97q0 -37 19.5 -62t49 -40t62.5 -21.5t60 -6.5q49 0 102 11t106 30q-5 12 -7.5 25t-2.5 28q0 24 16 53t42 59t59 57.5t67.5 49.5t67.5 35t59 13q23 0 38.5 -12t15.5 -37q0 -39 -27.5 -77t-72 -73t-101.5 -65.5t-116 -53.5
q3 -27 17 -43q59 25 93 25q26 0 35.5 -10.5t9.5 -22.5q0 -11 -5.5 -17.5t-14 -11t-18 -6t-16.5 -1.5q-24 0 -47.5 6.5t-43.5 20.5q-42 -23 -82.5 -60.5t-73 -81t-52 -89.5t-19.5 -87q0 -67 20 -109t70 -56q-1 8 -1 16v16q0 73 17 135t48.5 107t76.5 70t101 25
q27 0 47.5 -8.5t34 -23.5t20.5 -35t7 -42q0 -49 -23 -98.5t-63 -89.5t-94 -65t-116 -25q-11 0 -21.5 1t-20.5 3q2 -73 25 -142zM253 -23q11 -2 22 -3.5t25 -1.5q58 0 108.5 27t88 66t59.5 82t22 75q0 21 -4 40.5t-13.5 35t-26 24.5t-41.5 9q-53 0 -97.5 -29t-76 -78
t-49 -112t-17.5 -132v-3zM635 820q-28 0 -59 -13.5t-60.5 -36.5t-56 -52.5t-47 -61t-33 -63t-12.5 -57.5q61 25 116 57t97 66t66.5 67.5t24.5 60.5q0 15 -11 24t-25 9zM474 493q-20 0 -40 -5.5t-42 -16.5q18 -16 39 -19.5t31 -3.5q47 0 47 22q0 23 -35 23zM639 909
q0 16 12 31t29 15q12 0 20 -8.5t8 -20.5q0 -16 -12 -31t-28 -15q-12 0 -20.5 8.5t-8.5 20.5zM519 909q0 16 12 31t29 15q12 0 20 -8.5t8 -20.5q0 -16 -12.5 -31t-28.5 -15q-12 0 -20 8.5t-8 20.5z" />
    <glyph glyph-name="Igrave" unicode="&#xcc;" horiz-adv-x="650" 
d="M815 654l-29 -42q-29 -42 -43.5 -92t-30.5 -99q-14 -42 -26 -83.5t-27 -82t-33.5 -79t-44.5 -74.5q-35 -48 -79 -83t-93.5 -57.5t-102 -33t-103.5 -10.5q-38 0 -74.5 9.5t-65 29t-46.5 49.5t-18 72q0 38 14 70t37 57.5t51.5 45.5t58 33t57 20t48.5 7t46 -5t46.5 -16
t35.5 -29t14 -44q0 -43 -19 -76t-49.5 -56t-69 -35t-78.5 -12q-28 0 -49.5 2.5t-31.5 7.5v14q11 -2 21 -4.5t20 -2.5q34 0 76 11t79 31.5t62.5 49.5t25.5 65q0 23 -10.5 39t-27 25.5t-37 14t-39.5 4.5q-48 0 -96 -18.5t-86.5 -49t-62 -69t-23.5 -78.5q0 -33 14.5 -61
t38.5 -47.5t55.5 -30.5t66.5 -11q133 0 223.5 60t148.5 180q22 45 37.5 90.5t32.5 93.5q8 23 23 55.5t32 65.5t34 63t29 49q-7 -5 -18.5 -14.5t-25 -18.5t-28 -15.5t-26.5 -6.5q-9 0 -18.5 7t-16.5 18t-11.5 25t-4.5 28q0 8 4 20.5t8.5 28.5t8.5 34t4 38q0 22 -14.5 36.5
t-35.5 23t-44 11.5t-39 3q-63 0 -118 -26t-96 -66.5t-65 -90t-24 -95.5q0 -63 26.5 -92t74.5 -29q33 0 66 22t60 54.5t43.5 69.5t16.5 68q0 29 -17.5 45.5t-44.5 16.5q-25 0 -49 -15.5t-43.5 -39t-31.5 -51.5t-13 -53h-13q0 21 11 50t31 55.5t48 45t62 18.5q39 0 58.5 -25
t19.5 -62q0 -41 -17 -79.5t-45 -68t-63.5 -47.5t-71.5 -18q-56 0 -87.5 34.5t-31.5 93.5t27.5 113t72 95t101 65.5t115.5 24.5q29 0 60 -8t56.5 -24.5t42 -40.5t16.5 -57q0 -17 -4.5 -32.5t-10 -31.5t-10 -31.5t-4.5 -32.5q0 -10 2 -14t16 -4q10 0 28 12.5t39 30.5
t42.5 38.5t38.5 37.5zM824 768q-16 5 -34.5 15.5t-36.5 24.5t-32 31.5t-21 36.5l35 24q8 -32 35 -64.5t66 -57.5z" />
    <glyph glyph-name="Iacute" unicode="&#xcd;" horiz-adv-x="650" 
d="M815 654l-29 -42q-29 -42 -43.5 -92t-30.5 -99q-14 -42 -26 -83.5t-27 -82t-33.5 -79t-44.5 -74.5q-35 -48 -79 -83t-93.5 -57.5t-102 -33t-103.5 -10.5q-38 0 -74.5 9.5t-65 29t-46.5 49.5t-18 72q0 38 14 70t37 57.5t51.5 45.5t58 33t57 20t48.5 7t46 -5t46.5 -16
t35.5 -29t14 -44q0 -43 -19 -76t-49.5 -56t-69 -35t-78.5 -12q-28 0 -49.5 2.5t-31.5 7.5v14q11 -2 21 -4.5t20 -2.5q34 0 76 11t79 31.5t62.5 49.5t25.5 65q0 23 -10.5 39t-27 25.5t-37 14t-39.5 4.5q-48 0 -96 -18.5t-86.5 -49t-62 -69t-23.5 -78.5q0 -33 14.5 -61
t38.5 -47.5t55.5 -30.5t66.5 -11q133 0 223.5 60t148.5 180q22 45 37.5 90.5t32.5 93.5q8 23 23 55.5t32 65.5t34 63t29 49q-7 -5 -18.5 -14.5t-25 -18.5t-28 -15.5t-26.5 -6.5q-9 0 -18.5 7t-16.5 18t-11.5 25t-4.5 28q0 8 4 20.5t8.5 28.5t8.5 34t4 38q0 22 -14.5 36.5
t-35.5 23t-44 11.5t-39 3q-63 0 -118 -26t-96 -66.5t-65 -90t-24 -95.5q0 -63 26.5 -92t74.5 -29q33 0 66 22t60 54.5t43.5 69.5t16.5 68q0 29 -17.5 45.5t-44.5 16.5q-25 0 -49 -15.5t-43.5 -39t-31.5 -51.5t-13 -53h-13q0 21 11 50t31 55.5t48 45t62 18.5q39 0 58.5 -25
t19.5 -62q0 -41 -17 -79.5t-45 -68t-63.5 -47.5t-71.5 -18q-56 0 -87.5 34.5t-31.5 93.5t27.5 113t72 95t101 65.5t115.5 24.5q29 0 60 -8t56.5 -24.5t42 -40.5t16.5 -57q0 -17 -4.5 -32.5t-10 -31.5t-10 -31.5t-4.5 -32.5q0 -10 2 -14t16 -4q10 0 28 12.5t39 30.5
t42.5 38.5t38.5 37.5zM735 749q39 25 66 57.5t35 64.5l35 -24q-7 -19 -21 -36.5t-32 -31.5t-36.5 -24.5t-34.5 -15.5z" />
    <glyph glyph-name="Icircumflex" unicode="&#xce;" horiz-adv-x="650" 
d="M815 654l-29 -42q-29 -42 -43.5 -92t-30.5 -99q-14 -42 -26 -83.5t-27 -82t-33.5 -79t-44.5 -74.5q-35 -48 -79 -83t-93.5 -57.5t-102 -33t-103.5 -10.5q-38 0 -74.5 9.5t-65 29t-46.5 49.5t-18 72q0 38 14 70t37 57.5t51.5 45.5t58 33t57 20t48.5 7t46 -5t46.5 -16
t35.5 -29t14 -44q0 -43 -19 -76t-49.5 -56t-69 -35t-78.5 -12q-28 0 -49.5 2.5t-31.5 7.5v14q11 -2 21 -4.5t20 -2.5q34 0 76 11t79 31.5t62.5 49.5t25.5 65q0 23 -10.5 39t-27 25.5t-37 14t-39.5 4.5q-48 0 -96 -18.5t-86.5 -49t-62 -69t-23.5 -78.5q0 -33 14.5 -61
t38.5 -47.5t55.5 -30.5t66.5 -11q133 0 223.5 60t148.5 180q22 45 37.5 90.5t32.5 93.5q8 23 23 55.5t32 65.5t34 63t29 49q-7 -5 -18.5 -14.5t-25 -18.5t-28 -15.5t-26.5 -6.5q-9 0 -18.5 7t-16.5 18t-11.5 25t-4.5 28q0 8 4 20.5t8.5 28.5t8.5 34t4 38q0 22 -14.5 36.5
t-35.5 23t-44 11.5t-39 3q-63 0 -118 -26t-96 -66.5t-65 -90t-24 -95.5q0 -63 26.5 -92t74.5 -29q33 0 66 22t60 54.5t43.5 69.5t16.5 68q0 29 -17.5 45.5t-44.5 16.5q-25 0 -49 -15.5t-43.5 -39t-31.5 -51.5t-13 -53h-13q0 21 11 50t31 55.5t48 45t62 18.5q39 0 58.5 -25
t19.5 -62q0 -41 -17 -79.5t-45 -68t-63.5 -47.5t-71.5 -18q-56 0 -87.5 34.5t-31.5 93.5t27.5 113t72 95t101 65.5t115.5 24.5q29 0 60 -8t56.5 -24.5t42 -40.5t16.5 -57q0 -17 -4.5 -32.5t-10 -31.5t-10 -31.5t-4.5 -32.5q0 -10 2 -14t16 -4q10 0 28 12.5t39 30.5
t42.5 38.5t38.5 37.5zM534 986l54 -104l-19 -9l-43 70l-111 -75l-15 15l129 103h5z" />
    <glyph glyph-name="Idieresis" unicode="&#xcf;" horiz-adv-x="650" 
d="M815 654l-29 -42q-29 -42 -43.5 -92t-30.5 -99q-14 -42 -26 -83.5t-27 -82t-33.5 -79t-44.5 -74.5q-35 -48 -79 -83t-93.5 -57.5t-102 -33t-103.5 -10.5q-38 0 -74.5 9.5t-65 29t-46.5 49.5t-18 72q0 38 14 70t37 57.5t51.5 45.5t58 33t57 20t48.5 7t46 -5t46.5 -16
t35.5 -29t14 -44q0 -43 -19 -76t-49.5 -56t-69 -35t-78.5 -12q-28 0 -49.5 2.5t-31.5 7.5v14q11 -2 21 -4.5t20 -2.5q34 0 76 11t79 31.5t62.5 49.5t25.5 65q0 23 -10.5 39t-27 25.5t-37 14t-39.5 4.5q-48 0 -96 -18.5t-86.5 -49t-62 -69t-23.5 -78.5q0 -33 14.5 -61
t38.5 -47.5t55.5 -30.5t66.5 -11q133 0 223.5 60t148.5 180q22 45 37.5 90.5t32.5 93.5q8 23 23 55.5t32 65.5t34 63t29 49q-7 -5 -18.5 -14.5t-25 -18.5t-28 -15.5t-26.5 -6.5q-9 0 -18.5 7t-16.5 18t-11.5 25t-4.5 28q0 8 4 20.5t8.5 28.5t8.5 34t4 38q0 22 -14.5 36.5
t-35.5 23t-44 11.5t-39 3q-63 0 -118 -26t-96 -66.5t-65 -90t-24 -95.5q0 -63 26.5 -92t74.5 -29q33 0 66 22t60 54.5t43.5 69.5t16.5 68q0 29 -17.5 45.5t-44.5 16.5q-25 0 -49 -15.5t-43.5 -39t-31.5 -51.5t-13 -53h-13q0 21 11 50t31 55.5t48 45t62 18.5q39 0 58.5 -25
t19.5 -62q0 -41 -17 -79.5t-45 -68t-63.5 -47.5t-71.5 -18q-56 0 -87.5 34.5t-31.5 93.5t27.5 113t72 95t101 65.5t115.5 24.5q29 0 60 -8t56.5 -24.5t42 -40.5t16.5 -57q0 -17 -4.5 -32.5t-10 -31.5t-10 -31.5t-4.5 -32.5q0 -10 2 -14t16 -4q10 0 28 12.5t39 30.5
t42.5 38.5t38.5 37.5zM572 896q0 16 12 31t29 15q12 0 20 -8.5t8 -20.5q0 -16 -12 -31t-28 -15q-12 0 -20.5 8.5t-8.5 20.5zM452 896q0 16 12 31t29 15q12 0 20 -8.5t8 -20.5q0 -16 -12.5 -31t-28.5 -15q-12 0 -20 8.5t-8 20.5z" />
    <glyph glyph-name="Eth" unicode="&#xd0;" horiz-adv-x="957" 
d="M548 330h70q21 49 41 101.5t44 105t54.5 103.5t72.5 98q-51 31 -110.5 47t-125.5 16q-91 0 -172.5 -35t-143 -91t-98 -126.5t-36.5 -142.5q0 -34 9.5 -65t31.5 -54q9 61 29.5 119.5t54.5 103.5t82 72.5t111 27.5q47 0 74 -30t27 -73q0 -51 -22.5 -100.5t-59.5 -88.5
t-85.5 -63t-99.5 -24q-27 0 -52 5.5t-46 19.5q-2 -17 -3 -33t-1 -33q0 -24 2.5 -48.5t7.5 -49.5h-17q-4 23 -6 48.5t-2 51.5q0 18 1 37t3 38q-29 26 -46.5 73t-17.5 125q0 66 40.5 129t107.5 112.5t153.5 79.5t178.5 30q64 0 125.5 -17t115.5 -50q32 35 73 66.5t93 59.5
l5 -11q-60 -32 -98 -61.5t-63 -59.5q35 -24 64.5 -54.5t51 -68t33.5 -82t12 -95.5q0 -105 -46.5 -192.5t-122 -151.5t-170.5 -99.5t-192 -35.5q-45 0 -83.5 8t-75.5 19q-43 -13 -90 -20t-99 -7q-11 0 -33 1t-44 5.5t-38.5 15t-16.5 30.5q0 15 10.5 24t26 13.5t32 6t28.5 1.5
q33 0 61 -5t54.5 -13t52.5 -17.5t53 -18.5q57 18 100 47t76.5 66.5t59.5 82t49 93.5h-65zM996 437q0 99 -42.5 173t-112.5 121q-24 -34 -38.5 -72t-29 -85.5t-33.5 -107.5t-53 -136h94l-10 -34h-100q-23 -47 -54.5 -91.5t-72 -83t-90 -69.5t-108.5 -52q29 -8 62 -13.5
t72 -5.5q102 0 195.5 35.5t165 97t113.5 145t42 178.5zM453 597q-35 0 -74.5 -24.5t-75 -68t-63 -102.5t-39.5 -128q17 -14 40 -21t53 -7q46 0 91 21.5t81 57.5t58.5 82t22.5 95q0 42 -25 68.5t-69 26.5zM126 -19q48 0 89 5t77 14q-51 16 -100.5 30.5t-106.5 14.5
q-8 0 -19 -1t-22 -4t-18.5 -8.5t-7.5 -15.5q0 -13 13.5 -20t31.5 -10.5t36 -4t27 -0.5z" />
    <glyph glyph-name="Ntilde" unicode="&#xd1;" horiz-adv-x="1112" 
d="M990 405q56 10 104 32q11 25 21.5 49t21.5 50q9 22 24.5 58t34.5 69.5t40.5 58t42.5 24.5q23 0 34 -22t11 -48q0 -30 -15.5 -64t-44 -67t-69 -62.5t-90.5 -51.5q-19 -40 -31 -68t-22 -50.5t-20.5 -42.5t-24.5 -45.5t-34.5 -59.5t-50.5 -84q-6 -10 -18.5 -28t-26 -36.5
t-27 -34t-20.5 -20.5q-5 -4 -12 -4q-11 0 -11 9q0 5 3 11q6 15 17 44t22.5 71.5t20 97t9.5 120.5q1 57 9 120t19.5 123t25.5 111t28 84q-18 -24 -39.5 -65.5t-43 -88.5t-42.5 -94t-38 -81q-54 -110 -117 -199.5t-134.5 -152.5t-151.5 -97.5t-168 -34.5q-42 0 -83 11t-73 34
t-51.5 58.5t-19.5 84.5q0 57 25.5 101.5t65.5 76t90 48t100 16.5q28 0 58.5 -5.5t55 -18.5t40.5 -35.5t16 -56.5q0 -41 -24 -73.5t-60.5 -55t-79 -34.5t-78.5 -12q-11 0 -23 1t-26 3l2 10q21 -3 39 -3q35 0 77 11t78.5 33.5t61 55.5t24.5 77q0 33 -38 58t-107 25
q-44 0 -93.5 -19t-92 -51t-70.5 -74t-28 -89q0 -43 19 -74.5t50.5 -52t71.5 -30.5t81 -10q63 0 120 18.5t108 51t96 76.5t84 94t71 103.5t58 105.5q6 13 20.5 45.5t33.5 73.5t40.5 86t42.5 83t39 64t30 30q6 2 9 2q7 0 7 -5q-6 -14 -12.5 -35t-11.5 -47t-8.5 -55t-3.5 -58
q0 -13 -1 -41.5t-3.5 -68t-7 -86t-12.5 -95t-20 -95t-28 -85.5q-11 -28 -29 -64t-30 -64q10 7 26 26t31.5 41t29 41.5t18.5 28.5q43 74 81.5 150t74.5 157q-23 -9 -48.5 -16t-51.5 -12zM1112 446q49 25 86 58.5t61.5 67t36.5 63t12 47.5q0 7 -0.5 16.5t-2.5 18t-7.5 14
t-14.5 5.5q-21 0 -39 -20.5t-36 -55.5t-37 -81.5t-43 -98.5zM1026 832q5 17 22.5 32.5t41.5 15.5q12 0 24.5 -4.5t25 -10.5t24.5 -10.5t23 -4.5q17 0 25.5 12t14.5 20l16 -8q-5 -17 -21.5 -34t-42.5 -17q-12 0 -24.5 4.5t-25 10t-24.5 10t-23 4.5q-16 0 -24.5 -10.5
t-14.5 -18.5z" />
    <glyph glyph-name="Ograve" unicode="&#xd2;" horiz-adv-x="649" 
d="M556 498q0 -15 -7 -40.5t-19.5 -55.5t-31 -60.5t-42 -55.5t-51.5 -41t-59 -16q-33 0 -55 11.5t-35.5 31t-19.5 44t-6 51.5q0 43 15.5 87.5t41.5 86.5t61.5 78.5t75 64t82 43.5t82.5 16q37 0 63.5 -16t43.5 -41.5t24.5 -57t7.5 -63.5q0 -59 -19.5 -125.5t-54.5 -132.5
t-82.5 -126t-103 -106t-117 -73.5t-123.5 -27.5q-55 0 -94 28t-64 70.5t-36.5 93.5t-11.5 97q0 69 26.5 141t72 140t106.5 127.5t129.5 104.5t141.5 71t142 26h23.5t15.5 -1l-2 -13q-9 1 -17.5 1h-16.5q-86 0 -161 -31t-138 -83.5t-112.5 -121.5t-83.5 -145.5t-52 -155
t-18 -150.5q0 -33 7.5 -66t25.5 -60t48.5 -43.5t77.5 -16.5q53 0 109 26t109 69.5t100 102t82 123.5t55.5 133t20.5 131q0 28 -7 56.5t-21.5 51t-37.5 36.5t-55 14q-41 0 -81 -19t-76.5 -50.5t-67.5 -72t-54 -83t-36 -84.5t-13 -76q0 -42 20.5 -72.5t59.5 -30.5
q26 0 51 13.5t47 35.5t40 50t31.5 57t21 55.5t7.5 46.5zM596 903q-16 5 -34.5 15.5t-36.5 24.5t-32 31.5t-21 36.5l35 24q8 -32 35 -64.5t66 -57.5z" />
    <glyph glyph-name="Oacute" unicode="&#xd3;" horiz-adv-x="649" 
d="M556 498q0 -15 -7 -40.5t-19.5 -55.5t-31 -60.5t-42 -55.5t-51.5 -41t-59 -16q-33 0 -55 11.5t-35.5 31t-19.5 44t-6 51.5q0 43 15.5 87.5t41.5 86.5t61.5 78.5t75 64t82 43.5t82.5 16q37 0 63.5 -16t43.5 -41.5t24.5 -57t7.5 -63.5q0 -59 -19.5 -125.5t-54.5 -132.5
t-82.5 -126t-103 -106t-117 -73.5t-123.5 -27.5q-55 0 -94 28t-64 70.5t-36.5 93.5t-11.5 97q0 69 26.5 141t72 140t106.5 127.5t129.5 104.5t141.5 71t142 26h23.5t15.5 -1l-2 -13q-9 1 -17.5 1h-16.5q-86 0 -161 -31t-138 -83.5t-112.5 -121.5t-83.5 -145.5t-52 -155
t-18 -150.5q0 -33 7.5 -66t25.5 -60t48.5 -43.5t77.5 -16.5q53 0 109 26t109 69.5t100 102t82 123.5t55.5 133t20.5 131q0 28 -7 56.5t-21.5 51t-37.5 36.5t-55 14q-41 0 -81 -19t-76.5 -50.5t-67.5 -72t-54 -83t-36 -84.5t-13 -76q0 -42 20.5 -72.5t59.5 -30.5
q26 0 51 13.5t47 35.5t40 50t31.5 57t21 55.5t7.5 46.5zM507 913q39 25 66 57.5t35 64.5l35 -24q-7 -19 -21 -36.5t-32 -31.5t-36.5 -24.5t-34.5 -15.5z" />
    <glyph glyph-name="Ocircumflex" unicode="&#xd4;" horiz-adv-x="649" 
d="M556 498q0 -15 -7 -40.5t-19.5 -55.5t-31 -60.5t-42 -55.5t-51.5 -41t-59 -16q-33 0 -55 11.5t-35.5 31t-19.5 44t-6 51.5q0 43 15.5 87.5t41.5 86.5t61.5 78.5t75 64t82 43.5t82.5 16q37 0 63.5 -16t43.5 -41.5t24.5 -57t7.5 -63.5q0 -59 -19.5 -125.5t-54.5 -132.5
t-82.5 -126t-103 -106t-117 -73.5t-123.5 -27.5q-55 0 -94 28t-64 70.5t-36.5 93.5t-11.5 97q0 69 26.5 141t72 140t106.5 127.5t129.5 104.5t141.5 71t142 26h23.5t15.5 -1l-2 -13q-9 1 -17.5 1h-16.5q-86 0 -161 -31t-138 -83.5t-112.5 -121.5t-83.5 -145.5t-52 -155
t-18 -150.5q0 -33 7.5 -66t25.5 -60t48.5 -43.5t77.5 -16.5q53 0 109 26t109 69.5t100 102t82 123.5t55.5 133t20.5 131q0 28 -7 56.5t-21.5 51t-37.5 36.5t-55 14q-41 0 -81 -19t-76.5 -50.5t-67.5 -72t-54 -83t-36 -84.5t-13 -76q0 -42 20.5 -72.5t59.5 -30.5
q26 0 51 13.5t47 35.5t40 50t31.5 57t21 55.5t7.5 46.5zM655 1029l54 -104l-19 -9l-43 70l-111 -75l-15 15l129 103h5z" />
    <glyph glyph-name="Otilde" unicode="&#xd5;" horiz-adv-x="649" 
d="M556 498q0 -15 -7 -40.5t-19.5 -55.5t-31 -60.5t-42 -55.5t-51.5 -41t-59 -16q-33 0 -55 11.5t-35.5 31t-19.5 44t-6 51.5q0 43 15.5 87.5t41.5 86.5t61.5 78.5t75 64t82 43.5t82.5 16q37 0 63.5 -16t43.5 -41.5t24.5 -57t7.5 -63.5q0 -59 -19.5 -125.5t-54.5 -132.5
t-82.5 -126t-103 -106t-117 -73.5t-123.5 -27.5q-55 0 -94 28t-64 70.5t-36.5 93.5t-11.5 97q0 69 26.5 141t72 140t106.5 127.5t129.5 104.5t141.5 71t142 26h23.5t15.5 -1l-2 -13q-9 1 -17.5 1h-16.5q-86 0 -161 -31t-138 -83.5t-112.5 -121.5t-83.5 -145.5t-52 -155
t-18 -150.5q0 -33 7.5 -66t25.5 -60t48.5 -43.5t77.5 -16.5q53 0 109 26t109 69.5t100 102t82 123.5t55.5 133t20.5 131q0 28 -7 56.5t-21.5 51t-37.5 36.5t-55 14q-41 0 -81 -19t-76.5 -50.5t-67.5 -72t-54 -83t-36 -84.5t-13 -76q0 -42 20.5 -72.5t59.5 -30.5
q26 0 51 13.5t47 35.5t40 50t31.5 57t21 55.5t7.5 46.5zM504 935q5 17 22.5 32.5t41.5 15.5q12 0 24.5 -4.5t25 -10.5t24.5 -10.5t23 -4.5q17 0 25.5 12t14.5 20l16 -8q-5 -17 -21.5 -34t-42.5 -17q-12 0 -24.5 4.5t-25 10t-24.5 10t-23 4.5q-16 0 -24.5 -10.5t-14.5 -18.5z
" />
    <glyph glyph-name="Odieresis" unicode="&#xd6;" horiz-adv-x="649" 
d="M556 498q0 -15 -7 -40.5t-19.5 -55.5t-31 -60.5t-42 -55.5t-51.5 -41t-59 -16q-33 0 -55 11.5t-35.5 31t-19.5 44t-6 51.5q0 43 15.5 87.5t41.5 86.5t61.5 78.5t75 64t82 43.5t82.5 16q37 0 63.5 -16t43.5 -41.5t24.5 -57t7.5 -63.5q0 -59 -19.5 -125.5t-54.5 -132.5
t-82.5 -126t-103 -106t-117 -73.5t-123.5 -27.5q-55 0 -94 28t-64 70.5t-36.5 93.5t-11.5 97q0 69 26.5 141t72 140t106.5 127.5t129.5 104.5t141.5 71t142 26h23.5t15.5 -1l-2 -13q-9 1 -17.5 1h-16.5q-86 0 -161 -31t-138 -83.5t-112.5 -121.5t-83.5 -145.5t-52 -155
t-18 -150.5q0 -33 7.5 -66t25.5 -60t48.5 -43.5t77.5 -16.5q53 0 109 26t109 69.5t100 102t82 123.5t55.5 133t20.5 131q0 28 -7 56.5t-21.5 51t-37.5 36.5t-55 14q-41 0 -81 -19t-76.5 -50.5t-67.5 -72t-54 -83t-36 -84.5t-13 -76q0 -42 20.5 -72.5t59.5 -30.5
q26 0 51 13.5t47 35.5t40 50t31.5 57t21 55.5t7.5 46.5zM621 937q0 16 12 31t29 15q12 0 20 -8.5t8 -20.5q0 -16 -12 -31t-28 -15q-12 0 -20.5 8.5t-8.5 20.5zM501 937q0 16 12 31t29 15q12 0 20 -8.5t8 -20.5q0 -16 -12.5 -31t-28.5 -15q-12 0 -20 8.5t-8 20.5z" />
    <glyph glyph-name="multiply" unicode="&#xd7;" horiz-adv-x="776" 
d="M120 632l270 -269l270 269l32 -31l-270 -271l270 -269l-32 -32l-270 270l-270 -270l-32 32l270 269l-270 271z" />
    <glyph glyph-name="Oslash" unicode="&#xd8;" horiz-adv-x="649" 
d="M193 -23q-46 9 -78.5 39t-53.5 71t-30.5 87.5t-9.5 88.5q0 69 26.5 141t72 140t106.5 127.5t129.5 104.5t141.5 71t142 26h23.5t15.5 -1l-2 -13q-9 1 -17.5 1h-16.5q-86 0 -161 -31t-138 -83.5t-112.5 -121.5t-83.5 -145.5t-52 -155t-18 -150.5q0 -30 5.5 -59.5t20 -55
t38 -44t59.5 -24.5l130 240q-28 3 -47 15t-31 31t-17 42.5t-5 48.5q0 43 15.5 87.5t41.5 86.5t61.5 78.5t75 64t82 43.5t82.5 16h9.5t9.5 -1l32 58h22l-34 -63q27 -8 46 -25.5t31 -41t17.5 -51t5.5 -54.5q0 -59 -19.5 -125.5t-54.5 -132.5t-82.5 -126t-103 -106t-117 -73.5
t-123.5 -27.5h-6.5t-6.5 1l-34 -64h-22zM556 498q0 -15 -6.5 -40t-19 -54t-30.5 -59.5t-40.5 -55.5t-49.5 -41.5t-58 -18.5l-131 -241q5 -1 15 -1q53 0 109 26t109 69.5t100 102t82 123.5t55.5 133t20.5 131q0 25 -5.5 49.5t-16.5 45.5t-28 37t-41 22l-261 -482q36 7 69 37
t58 69.5t39.5 80.5t14.5 69zM263 345q0 -20 4.5 -38.5t14 -32.5t23.5 -22.5t32 -9.5l264 487q-3 1 -10 1q-41 0 -81 -19t-76.5 -50.5t-67.5 -72t-54 -83t-36 -84.5t-13 -76z" />
    <glyph glyph-name="Ugrave" unicode="&#xd9;" horiz-adv-x="867" 
d="M887 669q-12 -45 -31.5 -103t-42 -120.5t-45 -127t-40.5 -122.5t-29.5 -106.5t-11.5 -79.5q0 -1 1 -5.5t4 -9t8 -8t14 -3.5q10 0 27 5.5t43.5 26t63.5 61t88 111.5l6 -5q-34 -47 -65.5 -86.5t-60 -68.5t-54 -45.5t-48.5 -16.5q-20 0 -32.5 15t-19 36.5t-9 45.5t-2.5 42
q0 26 11 69.5t28 96t38 110.5t41 112q-30 -61 -63.5 -123.5t-69 -121.5t-72 -110.5t-73 -90t-71.5 -60.5t-67 -22q-14 0 -28.5 9.5t-25.5 28t-18 45t-7 61.5q0 51 12.5 98t31 92t40.5 88.5t40.5 87t31 87t12.5 89.5q0 75 -48 118.5t-142 43.5q-58 0 -122 -26t-117 -70.5
t-88 -104t-35 -126.5q0 -35 7 -67t23 -56t42 -38.5t65 -14.5q45 0 89 26t79 66t57 88t22 92q0 30 -17.5 53t-52.5 23q-41 0 -73 -17t-56 -44t-40.5 -60t-25.5 -65l-10 3q9 33 27.5 67.5t45 62.5t59 46t69.5 18q26 0 44 -9.5t29 -25t16 -35t5 -38.5q0 -51 -17.5 -98t-49 -83
t-76.5 -58.5t-99 -26.5q-83 0 -129 45.5t-46 133.5q0 73 34 137t88.5 111.5t122.5 74.5t136 27q48 0 90 -14.5t73 -43t49 -70t18 -95.5q0 -42 -13.5 -88.5t-33.5 -95t-43 -97t-43 -96t-33.5 -91.5t-13.5 -83q0 -9 2 -21.5t6.5 -24t12 -20t17.5 -8.5q48 0 105.5 53t119 142.5
t124 206t120.5 243.5l14 48h58zM693 733q-16 5 -34.5 15.5t-36.5 24.5t-32 31.5t-21 36.5l35 24q8 -32 35 -64.5t66 -57.5z" />
    <glyph glyph-name="Uacute" unicode="&#xda;" horiz-adv-x="867" 
d="M887 669q-12 -45 -31.5 -103t-42 -120.5t-45 -127t-40.5 -122.5t-29.5 -106.5t-11.5 -79.5q0 -1 1 -5.5t4 -9t8 -8t14 -3.5q10 0 27 5.5t43.5 26t63.5 61t88 111.5l6 -5q-34 -47 -65.5 -86.5t-60 -68.5t-54 -45.5t-48.5 -16.5q-20 0 -32.5 15t-19 36.5t-9 45.5t-2.5 42
q0 26 11 69.5t28 96t38 110.5t41 112q-30 -61 -63.5 -123.5t-69 -121.5t-72 -110.5t-73 -90t-71.5 -60.5t-67 -22q-14 0 -28.5 9.5t-25.5 28t-18 45t-7 61.5q0 51 12.5 98t31 92t40.5 88.5t40.5 87t31 87t12.5 89.5q0 75 -48 118.5t-142 43.5q-58 0 -122 -26t-117 -70.5
t-88 -104t-35 -126.5q0 -35 7 -67t23 -56t42 -38.5t65 -14.5q45 0 89 26t79 66t57 88t22 92q0 30 -17.5 53t-52.5 23q-41 0 -73 -17t-56 -44t-40.5 -60t-25.5 -65l-10 3q9 33 27.5 67.5t45 62.5t59 46t69.5 18q26 0 44 -9.5t29 -25t16 -35t5 -38.5q0 -51 -17.5 -98t-49 -83
t-76.5 -58.5t-99 -26.5q-83 0 -129 45.5t-46 133.5q0 73 34 137t88.5 111.5t122.5 74.5t136 27q48 0 90 -14.5t73 -43t49 -70t18 -95.5q0 -42 -13.5 -88.5t-33.5 -95t-43 -97t-43 -96t-33.5 -91.5t-13.5 -83q0 -9 2 -21.5t6.5 -24t12 -20t17.5 -8.5q48 0 105.5 53t119 142.5
t124 206t120.5 243.5l14 48h58zM614 741q39 25 66 57.5t35 64.5l35 -24q-7 -19 -21 -36.5t-32 -31.5t-36.5 -24.5t-34.5 -15.5z" />
    <glyph glyph-name="Ucircumflex" unicode="&#xdb;" horiz-adv-x="867" 
d="M887 669q-12 -45 -31.5 -103t-42 -120.5t-45 -127t-40.5 -122.5t-29.5 -106.5t-11.5 -79.5q0 -1 1 -5.5t4 -9t8 -8t14 -3.5q10 0 27 5.5t43.5 26t63.5 61t88 111.5l6 -5q-34 -47 -65.5 -86.5t-60 -68.5t-54 -45.5t-48.5 -16.5q-20 0 -32.5 15t-19 36.5t-9 45.5t-2.5 42
q0 26 11 69.5t28 96t38 110.5t41 112q-30 -61 -63.5 -123.5t-69 -121.5t-72 -110.5t-73 -90t-71.5 -60.5t-67 -22q-14 0 -28.5 9.5t-25.5 28t-18 45t-7 61.5q0 51 12.5 98t31 92t40.5 88.5t40.5 87t31 87t12.5 89.5q0 75 -48 118.5t-142 43.5q-58 0 -122 -26t-117 -70.5
t-88 -104t-35 -126.5q0 -35 7 -67t23 -56t42 -38.5t65 -14.5q45 0 89 26t79 66t57 88t22 92q0 30 -17.5 53t-52.5 23q-41 0 -73 -17t-56 -44t-40.5 -60t-25.5 -65l-10 3q9 33 27.5 67.5t45 62.5t59 46t69.5 18q26 0 44 -9.5t29 -25t16 -35t5 -38.5q0 -51 -17.5 -98t-49 -83
t-76.5 -58.5t-99 -26.5q-83 0 -129 45.5t-46 133.5q0 73 34 137t88.5 111.5t122.5 74.5t136 27q48 0 90 -14.5t73 -43t49 -70t18 -95.5q0 -42 -13.5 -88.5t-33.5 -95t-43 -97t-43 -96t-33.5 -91.5t-13.5 -83q0 -9 2 -21.5t6.5 -24t12 -20t17.5 -8.5q48 0 105.5 53t119 142.5
t124 206t120.5 243.5l14 48h58zM698 847l54 -104l-19 -9l-43 70l-111 -75l-15 15l129 103h5z" />
    <glyph glyph-name="Udieresis" unicode="&#xdc;" horiz-adv-x="867" 
d="M887 669q-12 -45 -31.5 -103t-42 -120.5t-45 -127t-40.5 -122.5t-29.5 -106.5t-11.5 -79.5q0 -1 1 -5.5t4 -9t8 -8t14 -3.5q10 0 27 5.5t43.5 26t63.5 61t88 111.5l6 -5q-34 -47 -65.5 -86.5t-60 -68.5t-54 -45.5t-48.5 -16.5q-20 0 -32.5 15t-19 36.5t-9 45.5t-2.5 42
q0 26 11 69.5t28 96t38 110.5t41 112q-30 -61 -63.5 -123.5t-69 -121.5t-72 -110.5t-73 -90t-71.5 -60.5t-67 -22q-14 0 -28.5 9.5t-25.5 28t-18 45t-7 61.5q0 51 12.5 98t31 92t40.5 88.5t40.5 87t31 87t12.5 89.5q0 75 -48 118.5t-142 43.5q-58 0 -122 -26t-117 -70.5
t-88 -104t-35 -126.5q0 -35 7 -67t23 -56t42 -38.5t65 -14.5q45 0 89 26t79 66t57 88t22 92q0 30 -17.5 53t-52.5 23q-41 0 -73 -17t-56 -44t-40.5 -60t-25.5 -65l-10 3q9 33 27.5 67.5t45 62.5t59 46t69.5 18q26 0 44 -9.5t29 -25t16 -35t5 -38.5q0 -51 -17.5 -98t-49 -83
t-76.5 -58.5t-99 -26.5q-83 0 -129 45.5t-46 133.5q0 73 34 137t88.5 111.5t122.5 74.5t136 27q48 0 90 -14.5t73 -43t49 -70t18 -95.5q0 -42 -13.5 -88.5t-33.5 -95t-43 -97t-43 -96t-33.5 -91.5t-13.5 -83q0 -9 2 -21.5t6.5 -24t12 -20t17.5 -8.5q48 0 105.5 53t119 142.5
t124 206t120.5 243.5l14 48h58zM694 761q0 16 12 31t29 15q12 0 20 -8.5t8 -20.5q0 -16 -12 -31t-28 -15q-12 0 -20.5 8.5t-8.5 20.5zM574 761q0 16 12 31t29 15q12 0 20 -8.5t8 -20.5q0 -16 -12.5 -31t-28.5 -15q-12 0 -20 8.5t-8 20.5z" />
    <glyph glyph-name="Yacute" unicode="&#xdd;" horiz-adv-x="638" 
d="M55 543q10 40 28 70.5t40 51.5t44.5 31.5t40.5 10.5q42 0 66 -29.5t24 -71.5t-17.5 -81.5t-47 -70.5t-68.5 -49.5t-83 -18.5q-35 0 -60 12t-41 33t-23.5 49t-7.5 59q0 69 29.5 126t77 98t107 63.5t119.5 22.5q31 0 63.5 -12.5t59.5 -34t44.5 -51.5t17.5 -65
q0 -49 -13 -89t-28 -79.5t-28 -84.5t-13 -105q0 -11 8.5 -21.5t19.5 -10.5q29 0 61 25.5t64 66t61.5 91t54.5 100.5t42.5 94t25.5 73h54q-24 -66 -42 -135.5t-36.5 -139t-40.5 -138t-53 -131.5q-27 -57 -72 -104t-99 -80.5t-113.5 -52.5t-117.5 -19q-40 0 -76.5 8.5t-64 26
t-44 44.5t-16.5 65q0 49 24 90t61 69.5t80.5 44.5t82.5 16q22 0 43.5 -7t39 -19.5t28 -31t10.5 -41.5q0 -41 -19.5 -68.5t-50 -44.5t-68 -24.5t-73.5 -7.5h-15.5t-15.5 1l-1 8h27.5t27.5 2q26 2 56 14t56 31.5t43.5 45t17.5 54.5q0 18 -9.5 31.5t-24 22.5t-32 13.5
t-33.5 4.5q-44 0 -87.5 -14t-78.5 -40t-57 -62t-22 -81q0 -39 16 -65.5t41.5 -43.5t57 -24.5t63.5 -7.5q38 0 76 8t74 22.5t68 36.5t58 51q48 54 79.5 121t55.5 141.5t45.5 152.5t49.5 155q-15 -31 -33.5 -69.5t-40 -78t-46 -77.5t-50.5 -67.5t-53.5 -47.5t-55.5 -18
q-19 0 -32.5 13.5t-21.5 33t-12 41.5t-4 39q0 40 12 78.5t27 76.5t27 76t12 78q0 31 -13.5 53t-35.5 36.5t-49 21t-54 6.5q-57 0 -112.5 -25t-99.5 -67.5t-71 -97.5t-27 -115q0 -27 6 -51.5t19.5 -42.5t35 -29t52.5 -11q36 0 72.5 21.5t66 54t47.5 70.5t18 71
q0 32 -15.5 54.5t-48.5 22.5q-20 0 -42 -8.5t-43 -27.5t-38 -48.5t-26 -71.5zM566 810q39 25 66 57.5t35 64.5l35 -24q-7 -19 -21 -36.5t-32 -31.5t-36.5 -24.5t-34.5 -15.5z" />
    <glyph glyph-name="Thorn" unicode="&#xde;" horiz-adv-x="752" 
d="M191 430q15 22 36.5 43.5t46.5 39t52 28t54 10.5q19 0 38 -6.5t34 -19t24.5 -30.5t9.5 -41q0 -47 -21.5 -86.5t-57.5 -68t-83.5 -44.5t-99.5 -16q-31 0 -59.5 9t-50.5 27t-35 45t-13 64q0 72 36.5 127.5t95 94t131.5 58t147 19.5t146 -29q31 63 72.5 117.5t102.5 94.5
l10 -14q-28 -12 -50 -32.5t-39.5 -48.5t-32 -62t-27.5 -72q57 -32 95 -84.5t38 -126.5q0 -40 -21 -80t-59 -74.5t-93 -59.5t-122 -34q-30 -51 -69 -94t-91 -74.5t-118.5 -49.5t-150.5 -18q-23 0 -42 4.5t-36 11.5l10 11q34 -14 75 -14q73 0 130 16t100.5 45.5t76 69.5
t58.5 88h-11q-24 0 -51 3l-5 13q13 -1 23 -1.5t20 -0.5h16t16 1q25 51 45 108t39 115.5t39 117t46 113.5q-36 15 -72 21t-62 6q-77 0 -148.5 -20t-127.5 -56.5t-89.5 -87.5t-33.5 -112q0 -44 14 -70.5t36 -41t47.5 -19t48.5 -4.5q41 0 83.5 18t77 46.5t56.5 64t22 70.5
q0 38 -27 58.5t-74 20.5q-19 0 -41.5 -10t-44 -26.5t-41.5 -37t-35 -41.5zM654 623q-16 -49 -30.5 -103t-31.5 -109.5t-38 -110t-48 -104.5q70 14 116 45t73.5 68.5t39 76t11.5 65.5q0 65 -27 106.5t-65 65.5z" />
    <glyph glyph-name="germandbls" unicode="&#xdf;" horiz-adv-x="443" 
d="M220 560q12 40 30 72.5t38 55t41 35t40 12.5q21 0 37 -11t26.5 -30.5t16 -45.5t5.5 -56q0 -41 -10 -86t-31 -86t-52 -75.5t-73 -53.5q38 -27 65.5 -64t27.5 -81q0 -20 -7.5 -41t-20.5 -41t-31.5 -38t-39.5 -30q3 -7 7 -8.5t9 -1.5q21 0 46.5 17.5t53 46t56 64.5t57.5 74
l6 -5q-24 -34 -52 -70.5t-57.5 -66.5t-58 -49.5t-53.5 -19.5q-13 0 -21 15q-13 -8 -28 -12.5t-26 -4.5q-28 0 -40 18t-12 41q0 24 11 44.5t30 20.5q11 0 15.5 -6.5t4.5 -15.5q0 -16 -13.5 -33.5t-36.5 -17.5q0 -17 8.5 -29t22.5 -12q32 0 55.5 24t39 55.5t23 63t7.5 46.5
q0 40 -16.5 66t-50.5 53q42 16 72.5 51t50.5 78.5t30 90t10 87.5q0 47 -12.5 77.5t-37.5 30.5q-12 0 -26.5 -11t-28.5 -30.5t-27 -46.5t-23 -60l-289 -926h-55l200 647q-12 -25 -29 -52.5t-40 -59.5l-7 5q16 21 32.5 48t30 53t23 46.5t12.5 28.5z" />
    <glyph glyph-name="agrave" unicode="&#xe0;" 
d="M341 305q-45 -126 -66 -201t-21 -106q0 -4 1.5 -7.5t9.5 -3.5q12 0 35.5 18.5t51.5 47.5t57.5 64.5t53.5 70.5l6 -5q-25 -36 -54.5 -73t-57 -67t-51 -49t-36.5 -19q-15 0 -24.5 8.5t-15.5 23.5t-8 34.5t-2 40.5q-7 -11 -18.5 -30t-26 -37t-31 -31t-34.5 -13q-8 0 -22 6.5
t-27 23.5t-22.5 45.5t-9.5 73.5q0 26 22 62t52.5 69t62 56t51.5 23q6 0 14 -2t16 -9.5t14.5 -21.5t10.5 -37l13 45h56zM258 258q0 18 -9 37.5t-29 19.5q-21 0 -45.5 -27t-45.5 -68t-35.5 -89.5t-14.5 -91.5q0 -21 5.5 -36t19.5 -15q26 0 53.5 28t50 69t36.5 88t14 85z
M253 384q-16 5 -34.5 15.5t-36.5 24.5t-32 31.5t-21 36.5l35 24q8 -32 35 -64.5t66 -57.5z" />
    <glyph glyph-name="aacute" unicode="&#xe1;" 
d="M341 305q-45 -126 -66 -201t-21 -106q0 -4 1.5 -7.5t9.5 -3.5q12 0 35.5 18.5t51.5 47.5t57.5 64.5t53.5 70.5l6 -5q-25 -36 -54.5 -73t-57 -67t-51 -49t-36.5 -19q-15 0 -24.5 8.5t-15.5 23.5t-8 34.5t-2 40.5q-7 -11 -18.5 -30t-26 -37t-31 -31t-34.5 -13q-8 0 -22 6.5
t-27 23.5t-22.5 45.5t-9.5 73.5q0 26 22 62t52.5 69t62 56t51.5 23q6 0 14 -2t16 -9.5t14.5 -21.5t10.5 -37l13 45h56zM258 258q0 18 -9 37.5t-29 19.5q-21 0 -45.5 -27t-45.5 -68t-35.5 -89.5t-14.5 -91.5q0 -21 5.5 -36t19.5 -15q26 0 53.5 28t50 69t36.5 88t14 85z
M189 394q39 25 66 57.5t35 64.5l35 -24q-7 -19 -21 -36.5t-32 -31.5t-36.5 -24.5t-34.5 -15.5z" />
    <glyph glyph-name="acircumflex" unicode="&#xe2;" 
d="M341 305q-45 -126 -66 -201t-21 -106q0 -4 1.5 -7.5t9.5 -3.5q12 0 35.5 18.5t51.5 47.5t57.5 64.5t53.5 70.5l6 -5q-25 -36 -54.5 -73t-57 -67t-51 -49t-36.5 -19q-15 0 -24.5 8.5t-15.5 23.5t-8 34.5t-2 40.5q-7 -11 -18.5 -30t-26 -37t-31 -31t-34.5 -13q-8 0 -22 6.5
t-27 23.5t-22.5 45.5t-9.5 73.5q0 26 22 62t52.5 69t62 56t51.5 23q6 0 14 -2t16 -9.5t14.5 -21.5t10.5 -37l13 45h56zM258 258q0 18 -9 37.5t-29 19.5q-21 0 -45.5 -27t-45.5 -68t-35.5 -89.5t-14.5 -91.5q0 -21 5.5 -36t19.5 -15q26 0 53.5 28t50 69t36.5 88t14 85z
M252 502l54 -104l-19 -9l-43 70l-111 -75l-15 15l129 103h5z" />
    <glyph glyph-name="atilde" unicode="&#xe3;" 
d="M341 305q-45 -126 -66 -201t-21 -106q0 -4 1.5 -7.5t9.5 -3.5q12 0 35.5 18.5t51.5 47.5t57.5 64.5t53.5 70.5l6 -5q-25 -36 -54.5 -73t-57 -67t-51 -49t-36.5 -19q-15 0 -24.5 8.5t-15.5 23.5t-8 34.5t-2 40.5q-7 -11 -18.5 -30t-26 -37t-31 -31t-34.5 -13q-8 0 -22 6.5
t-27 23.5t-22.5 45.5t-9.5 73.5q0 26 22 62t52.5 69t62 56t51.5 23q6 0 14 -2t16 -9.5t14.5 -21.5t10.5 -37l13 45h56zM258 258q0 18 -9 37.5t-29 19.5q-21 0 -45.5 -27t-45.5 -68t-35.5 -89.5t-14.5 -91.5q0 -21 5.5 -36t19.5 -15q26 0 53.5 28t50 69t36.5 88t14 85z
M109 399q5 17 22.5 32.5t41.5 15.5q12 0 24.5 -4.5t25 -10.5t24.5 -10.5t23 -4.5q17 0 25.5 12t14.5 20l16 -8q-5 -17 -21.5 -34t-42.5 -17q-12 0 -24.5 4.5t-25 10t-24.5 10t-23 4.5q-16 0 -24.5 -10.5t-14.5 -18.5z" />
    <glyph glyph-name="adieresis" unicode="&#xe4;" 
d="M341 305q-45 -126 -66 -201t-21 -106q0 -4 1.5 -7.5t9.5 -3.5q12 0 35.5 18.5t51.5 47.5t57.5 64.5t53.5 70.5l6 -5q-25 -36 -54.5 -73t-57 -67t-51 -49t-36.5 -19q-15 0 -24.5 8.5t-15.5 23.5t-8 34.5t-2 40.5q-7 -11 -18.5 -30t-26 -37t-31 -31t-34.5 -13q-8 0 -22 6.5
t-27 23.5t-22.5 45.5t-9.5 73.5q0 26 22 62t52.5 69t62 56t51.5 23q6 0 14 -2t16 -9.5t14.5 -21.5t10.5 -37l13 45h56zM258 258q0 18 -9 37.5t-29 19.5q-21 0 -45.5 -27t-45.5 -68t-35.5 -89.5t-14.5 -91.5q0 -21 5.5 -36t19.5 -15q26 0 53.5 28t50 69t36.5 88t14 85z
M263 414q0 16 12 31t29 15q12 0 20 -8.5t8 -20.5q0 -16 -12 -31t-28 -15q-12 0 -20.5 8.5t-8.5 20.5zM143 414q0 16 12 31t29 15q12 0 20 -8.5t8 -20.5q0 -16 -12.5 -31t-28.5 -15q-12 0 -20 8.5t-8 20.5z" />
    <glyph glyph-name="aring" unicode="&#xe5;" 
d="M341 305q-45 -126 -66 -201t-21 -106q0 -4 1.5 -7.5t9.5 -3.5q12 0 35.5 18.5t51.5 47.5t57.5 64.5t53.5 70.5l6 -5q-25 -36 -54.5 -73t-57 -67t-51 -49t-36.5 -19q-15 0 -24.5 8.5t-15.5 23.5t-8 34.5t-2 40.5q-7 -11 -18.5 -30t-26 -37t-31 -31t-34.5 -13q-8 0 -22 6.5
t-27 23.5t-22.5 45.5t-9.5 73.5q0 26 22 62t52.5 69t62 56t51.5 23q6 0 14 -2t16 -9.5t14.5 -21.5t10.5 -37l13 45h56zM258 258q0 18 -9 37.5t-29 19.5q-21 0 -45.5 -27t-45.5 -68t-35.5 -89.5t-14.5 -91.5q0 -21 5.5 -36t19.5 -15q26 0 53.5 28t50 69t36.5 88t14 85z
M167 446q0 29 20 48.5t48 19.5q29 0 48.5 -19.5t19.5 -48.5q0 -28 -19.5 -48t-48.5 -20q-28 0 -48 20t-20 48zM190 446q0 -20 12.5 -33.5t32.5 -13.5t34 13.5t14 33.5t-14 33.5t-34 13.5t-32.5 -13.5t-12.5 -33.5z" />
    <glyph glyph-name="ae" unicode="&#xe6;" horiz-adv-x="507" 
d="M334 287q23 20 47.5 31.5t44.5 11.5q26 0 43.5 -17.5t17.5 -43.5q0 -27 -19.5 -53.5t-49.5 -49t-67 -39.5t-73 -25q-1 -9 -1.5 -18t-0.5 -18q0 -13 2 -26.5t8 -25t16 -18.5t25 -7q31 0 63.5 16.5t65 44.5t62.5 64t56 74l6 -5q-29 -42 -60 -80t-64 -66.5t-66.5 -45
t-67.5 -16.5q-21 0 -38 11t-29 28.5t-19 39.5t-8 44q-13 -24 -27 -47t-29 -41t-31 -28.5t-31 -10.5q-8 0 -22 6.5t-27 23.5t-22.5 45.5t-9.5 73.5q0 26 22 62t52.5 69t62 56t51.5 23q6 0 14 -2t16 -9.5t14.5 -21.5t10.5 -37l19 64h56zM258 258q0 18 -9 37.5t-29 19.5
q-21 0 -45.5 -27t-45.5 -68t-35.5 -89.5t-14.5 -91.5q0 -21 5.5 -36t19.5 -15q27 0 54.5 29t49.5 70.5t36 88t14 82.5zM288 148q-2 -8 -4 -17l-4 -18q29 7 61 23t58.5 37.5t44 47t17.5 53.5q0 17 -10.5 29t-28.5 12q-24 0 -46 -19.5t-39.5 -46t-30 -55t-18.5 -46.5z" />
    <glyph glyph-name="ccedilla" unicode="&#xe7;" horiz-adv-x="295" 
d="M29 -148q13 -5 31 -9.5t42 -4.5q23 0 37.5 12t14.5 28q0 19 -11.5 26t-26.5 7q-14 0 -29 -5l-5 16l26 54q-35 6 -58 43t-23 103q0 13 10.5 34t28.5 44t41 46t48.5 42t51 30.5t47.5 11.5q13 0 22 -6t14.5 -15t7.5 -20.5t2 -22.5q0 -27 -13.5 -44.5t-31.5 -17.5
q-11 0 -17.5 9t-6.5 21q0 16 11 31t34 15q2 0 3.5 -0.5t2.5 -0.5q0 21 -11 28t-23 7q-27 0 -56 -23t-54 -60t-41 -84t-16 -95q0 -10 1.5 -21.5t5.5 -21t12 -16t20 -6.5q20 0 43.5 7t52.5 28t65 60.5t83 105.5l6 -5q-38 -52 -69.5 -90.5t-60 -64t-55.5 -39t-55 -14.5l-22 -43
q5 1 9 1.5t9 0.5q23 0 42 -12t19 -39q0 -28 -22 -46t-60 -18q-26 0 -48 5.5t-36 12.5z" />
    <glyph glyph-name="egrave" unicode="&#xe8;" horiz-adv-x="306" 
d="M286 269q0 -27 -19.5 -53.5t-49.5 -49t-67 -39.5t-73 -25q-1 -9 -1.5 -18t-0.5 -18q0 -13 2 -26.5t8 -25t16 -18.5t25 -7q31 0 63.5 16.5t65 44.5t62.5 64t56 74l6 -5q-29 -42 -60 -80t-64 -66.5t-66.5 -45t-67.5 -16.5q-23 0 -40.5 12t-29.5 31.5t-18 43t-6 46.5
q0 35 20.5 74t50.5 72t64.5 54.5t62.5 21.5q26 0 43.5 -17.5t17.5 -43.5zM221 315q-15 0 -36.5 -15.5t-42.5 -43t-38.5 -64.5t-24.5 -79q29 7 61 23t58.5 37.5t44 47t17.5 53.5q0 17 -10.5 29t-28.5 12zM234 384q-16 5 -34.5 15.5t-36.5 24.5t-32 31.5t-21 36.5l35 24
q8 -32 35 -64.5t66 -57.5z" />
    <glyph glyph-name="eacute" unicode="&#xe9;" horiz-adv-x="306" 
d="M286 269q0 -27 -19.5 -53.5t-49.5 -49t-67 -39.5t-73 -25q-1 -9 -1.5 -18t-0.5 -18q0 -13 2 -26.5t8 -25t16 -18.5t25 -7q31 0 63.5 16.5t65 44.5t62.5 64t56 74l6 -5q-29 -42 -60 -80t-64 -66.5t-66.5 -45t-67.5 -16.5q-23 0 -40.5 12t-29.5 31.5t-18 43t-6 46.5
q0 35 20.5 74t50.5 72t64.5 54.5t62.5 21.5q26 0 43.5 -17.5t17.5 -43.5zM221 315q-15 0 -36.5 -15.5t-42.5 -43t-38.5 -64.5t-24.5 -79q29 7 61 23t58.5 37.5t44 47t17.5 53.5q0 17 -10.5 29t-28.5 12zM161 394q39 25 66 57.5t35 64.5l35 -24q-7 -19 -21 -36.5t-32 -31.5
t-36.5 -24.5t-34.5 -15.5z" />
    <glyph glyph-name="ecircumflex" unicode="&#xea;" horiz-adv-x="306" 
d="M286 269q0 -27 -19.5 -53.5t-49.5 -49t-67 -39.5t-73 -25q-1 -9 -1.5 -18t-0.5 -18q0 -13 2 -26.5t8 -25t16 -18.5t25 -7q31 0 63.5 16.5t65 44.5t62.5 64t56 74l6 -5q-29 -42 -60 -80t-64 -66.5t-66.5 -45t-67.5 -16.5q-23 0 -40.5 12t-29.5 31.5t-18 43t-6 46.5
q0 35 20.5 74t50.5 72t64.5 54.5t62.5 21.5q26 0 43.5 -17.5t17.5 -43.5zM221 315q-15 0 -36.5 -15.5t-42.5 -43t-38.5 -64.5t-24.5 -79q29 7 61 23t58.5 37.5t44 47t17.5 53.5q0 17 -10.5 29t-28.5 12zM255 502l54 -104l-19 -9l-43 70l-111 -75l-15 15l129 103h5z" />
    <glyph glyph-name="edieresis" unicode="&#xeb;" horiz-adv-x="306" 
d="M286 269q0 -27 -19.5 -53.5t-49.5 -49t-67 -39.5t-73 -25q-1 -9 -1.5 -18t-0.5 -18q0 -13 2 -26.5t8 -25t16 -18.5t25 -7q31 0 63.5 16.5t65 44.5t62.5 64t56 74l6 -5q-29 -42 -60 -80t-64 -66.5t-66.5 -45t-67.5 -16.5q-23 0 -40.5 12t-29.5 31.5t-18 43t-6 46.5
q0 35 20.5 74t50.5 72t64.5 54.5t62.5 21.5q26 0 43.5 -17.5t17.5 -43.5zM221 315q-15 0 -36.5 -15.5t-42.5 -43t-38.5 -64.5t-24.5 -79q29 7 61 23t58.5 37.5t44 47t17.5 53.5q0 17 -10.5 29t-28.5 12zM257 414q0 16 12 31t29 15q12 0 20 -8.5t8 -20.5q0 -16 -12 -31
t-28 -15q-12 0 -20.5 8.5t-8.5 20.5zM137 414q0 16 12 31t29 15q12 0 20 -8.5t8 -20.5q0 -16 -12.5 -31t-28.5 -15q-12 0 -20 8.5t-8 20.5z" />
    <glyph glyph-name="igrave" unicode="&#xec;" horiz-adv-x="206" 
d="M207 499q-16 5 -34.5 15.5t-36.5 24.5t-32 31.5t-21 36.5l35 24q8 -32 35 -64.5t66 -57.5zM193 443q0 -22 -14 -35t-28 -13q-10 0 -17 7t-7 23q0 21 14 33.5t28 12.5q10 0 17 -7t7 -21zM54 167q9 29 21 64q11 36 23 74h55q-2 -5 -9 -25t-17 -48.5t-20.5 -62t-19.5 -66
t-15 -60.5t-6 -45q0 -4 1.5 -7.5t9.5 -3.5q12 0 35.5 18.5t51.5 47.5t57.5 64.5t53.5 70.5l6 -5q-25 -36 -54.5 -73t-57 -67t-51 -49t-36.5 -19q-30 0 -40 29.5t-10 72.5q0 12 6 35q3 13 8 28q-30 -38 -56 -60l-5 5q32 32 69 82z" />
    <glyph glyph-name="iacute" unicode="&#xed;" horiz-adv-x="206" 
d="M195 495q39 25 66 57.5t35 64.5l35 -24q-7 -19 -21 -36.5t-32 -31.5t-36.5 -24.5t-34.5 -15.5zM193 443q0 -22 -14 -35t-28 -13q-10 0 -17 7t-7 23q0 21 14 33.5t28 12.5q10 0 17 -7t7 -21zM54 167q9 29 21 64q11 36 23 74h55q-2 -5 -9 -25t-17 -48.5t-20.5 -62
t-19.5 -66t-15 -60.5t-6 -45q0 -4 1.5 -7.5t9.5 -3.5q12 0 35.5 18.5t51.5 47.5t57.5 64.5t53.5 70.5l6 -5q-25 -36 -54.5 -73t-57 -67t-51 -49t-36.5 -19q-30 0 -40 29.5t-10 72.5q0 12 6 35q3 13 8 28q-30 -38 -56 -60l-5 5q32 32 69 82z" />
    <glyph glyph-name="icircumflex" unicode="&#xee;" horiz-adv-x="206" 
d="M166 502l54 -104l-19 -9l-43 70l-111 -75l-15 15l129 103h5zM54 167q9 29 21 64q11 36 23 74h55q-2 -5 -9 -25t-17 -48.5t-20.5 -62t-19.5 -66t-15 -60.5t-6 -45q0 -4 1.5 -7.5t9.5 -3.5q12 0 35.5 18.5t51.5 47.5t57.5 64.5t53.5 70.5l6 -5q-25 -36 -54.5 -73t-57 -67
t-51 -49t-36.5 -19q-30 0 -40 29.5t-10 72.5q0 12 6 35q3 13 8 28q-30 -38 -56 -60l-5 5q32 32 69 82z" />
    <glyph glyph-name="idieresis" unicode="&#xef;" horiz-adv-x="206" 
d="M168 414q0 16 12 31t29 15q12 0 20 -8.5t8 -20.5q0 -16 -12 -31t-28 -15q-12 0 -20.5 8.5t-8.5 20.5zM48 414q0 16 12 31t29 15q12 0 20 -8.5t8 -20.5q0 -16 -12.5 -31t-28.5 -15q-12 0 -20 8.5t-8 20.5zM54 167q9 29 21 64q11 36 23 74h55q-2 -5 -9 -25t-17 -48.5
t-20.5 -62t-19.5 -66t-15 -60.5t-6 -45q0 -4 1.5 -7.5t9.5 -3.5q12 0 35.5 18.5t51.5 47.5t57.5 64.5t53.5 70.5l6 -5q-25 -36 -54.5 -73t-57 -67t-51 -49t-36.5 -19q-30 0 -40 29.5t-10 72.5q0 12 6 35q3 13 8 28q-30 -38 -56 -60l-5 5q32 32 69 82z" />
    <glyph glyph-name="eth" unicode="&#xf0;" horiz-adv-x="334" 
d="M186 638q10 -11 29.5 -45t42.5 -91l105 35l6 -17l-105 -33q17 -49 25.5 -92.5t8.5 -83.5q0 -60 -11.5 -112.5t-38.5 -105.5q4 -14 11 -22.5t23 -8.5q12 0 27.5 13t32 32.5t33 41.5t28.5 39l6 -5q-12 -17 -28.5 -39.5t-34 -42.5t-34.5 -34t-32 -14t-24.5 11.5t-12.5 19.5
q-29 -51 -64 -76.5t-64 -25.5q-23 0 -38 14.5t-25 35t-14 43t-4 37.5q0 23 19.5 58.5t48 68.5t60.5 57t58 24q10 0 25 -6.5t23 -23.5q0 22 -2 41.5t-6 40.5t-10 46.5t-15 59.5l-131 -43l-5 17l131 42q-20 58 -34.5 92t-20.5 45zM81 60q0 -6 0.5 -17.5t3.5 -23t9 -20t18 -8.5
q23 0 48.5 27t46.5 64.5t34.5 77.5t13.5 67q0 10 -0.5 24t-3.5 27t-8.5 22.5t-15.5 9.5q-22 0 -41 -14.5t-35.5 -37t-29.5 -50.5t-21.5 -56t-13.5 -52.5t-5 -39.5z" />
    <glyph glyph-name="ntilde" unicode="&#xf1;" horiz-adv-x="511" 
d="M118 -11q3 8 11 31.5t18.5 55l22 66t21 64.5t15.5 51.5t6 27.5q0 14 -1 20.5t-8 6.5q-18 0 -53 -34t-86 -109l-7 5q56 82 90.5 119t57.5 37q10 0 18.5 -5.5t13.5 -13.5t8 -17.5t3 -18.5q0 -37 -12 -77.5t-36 -102.5q24 41 51.5 83t54.5 75.5t52 55t44 21.5q10 0 18.5 -7
t13.5 -17t8 -21t3 -20q0 -33 -11.5 -73t-26 -77.5t-26 -67.5t-11.5 -42q0 -17 13 -17q11 0 34 18t50.5 46.5t57 64.5t53.5 71l7 -6q-29 -41 -59 -78t-57 -66t-49.5 -46t-35.5 -17t-22 8.5t-14.5 21t-8 27t-2.5 26.5q0 22 11.5 58t26 72.5t26 66.5t11.5 40q0 17 -12 17
q-17 0 -42.5 -24t-55.5 -62.5t-61 -86.5t-58 -95l-18 -55h-47zM240 399q5 17 22.5 32.5t41.5 15.5q12 0 24.5 -4.5t25 -10.5t24.5 -10.5t23 -4.5q17 0 25.5 12t14.5 20l16 -8q-5 -17 -21.5 -34t-42.5 -17q-12 0 -24.5 4.5t-25 10t-24.5 10t-23 4.5q-16 0 -24.5 -10.5
t-14.5 -18.5z" />
    <glyph glyph-name="ograve" unicode="&#xf2;" horiz-adv-x="335" 
d="M34 109q0 23 19.5 59t48 70t60.5 58.5t58 24.5q19 0 31.5 -10.5t20 -26.5t10.5 -35t3 -35q0 -25 -10 -58t-25 -63q4 -14 10.5 -22.5t22.5 -8.5q12 0 27.5 13t32 32.5t33 41.5t28.5 39l6 -5q-12 -17 -28.5 -39.5t-34 -42.5t-34.5 -34t-32 -14t-24.5 10.5t-12.5 18.5
q-9 -14 -23 -32t-31 -35t-36 -28.5t-39 -11.5q-23 0 -38 14.5t-25 35.5t-14 44t-4 40zM81 57q0 -8 0.5 -20t3.5 -24t9 -20.5t18 -8.5q18 0 35.5 9.5t34 24.5t31.5 34.5t27 40.5q-5 12 -9.5 31.5t-4.5 38.5q0 25 8.5 44t29.5 19q5 0 11 -2q0 10 -2.5 24.5t-8 28.5t-15 24
t-22.5 10q-33 0 -59.5 -31t-46 -73t-30 -84.5t-10.5 -65.5zM251 384q-16 5 -34.5 15.5t-36.5 24.5t-32 31.5t-21 36.5l35 24q8 -32 35 -64.5t66 -57.5z" />
    <glyph glyph-name="oacute" unicode="&#xf3;" horiz-adv-x="335" 
d="M34 109q0 23 19.5 59t48 70t60.5 58.5t58 24.5q19 0 31.5 -10.5t20 -26.5t10.5 -35t3 -35q0 -25 -10 -58t-25 -63q4 -14 10.5 -22.5t22.5 -8.5q12 0 27.5 13t32 32.5t33 41.5t28.5 39l6 -5q-12 -17 -28.5 -39.5t-34 -42.5t-34.5 -34t-32 -14t-24.5 10.5t-12.5 18.5
q-9 -14 -23 -32t-31 -35t-36 -28.5t-39 -11.5q-23 0 -38 14.5t-25 35.5t-14 44t-4 40zM81 57q0 -8 0.5 -20t3.5 -24t9 -20.5t18 -8.5q18 0 35.5 9.5t34 24.5t31.5 34.5t27 40.5q-5 12 -9.5 31.5t-4.5 38.5q0 25 8.5 44t29.5 19q5 0 11 -2q0 10 -2.5 24.5t-8 28.5t-15 24
t-22.5 10q-33 0 -59.5 -31t-46 -73t-30 -84.5t-10.5 -65.5zM190 394q39 25 66 57.5t35 64.5l35 -24q-7 -19 -21 -36.5t-32 -31.5t-36.5 -24.5t-34.5 -15.5z" />
    <glyph glyph-name="ocircumflex" unicode="&#xf4;" horiz-adv-x="335" 
d="M34 109q0 23 19.5 59t48 70t60.5 58.5t58 24.5q19 0 31.5 -10.5t20 -26.5t10.5 -35t3 -35q0 -25 -10 -58t-25 -63q4 -14 10.5 -22.5t22.5 -8.5q12 0 27.5 13t32 32.5t33 41.5t28.5 39l6 -5q-12 -17 -28.5 -39.5t-34 -42.5t-34.5 -34t-32 -14t-24.5 10.5t-12.5 18.5
q-9 -14 -23 -32t-31 -35t-36 -28.5t-39 -11.5q-23 0 -38 14.5t-25 35.5t-14 44t-4 40zM81 57q0 -8 0.5 -20t3.5 -24t9 -20.5t18 -8.5q18 0 35.5 9.5t34 24.5t31.5 34.5t27 40.5q-5 12 -9.5 31.5t-4.5 38.5q0 25 8.5 44t29.5 19q5 0 11 -2q0 10 -2.5 24.5t-8 28.5t-15 24
t-22.5 10q-33 0 -59.5 -31t-46 -73t-30 -84.5t-10.5 -65.5zM266 502l54 -104l-19 -9l-43 70l-111 -75l-15 15l129 103h5z" />
    <glyph glyph-name="otilde" unicode="&#xf5;" horiz-adv-x="335" 
d="M34 109q0 23 19.5 59t48 70t60.5 58.5t58 24.5q19 0 31.5 -10.5t20 -26.5t10.5 -35t3 -35q0 -25 -10 -58t-25 -63q4 -14 10.5 -22.5t22.5 -8.5q12 0 27.5 13t32 32.5t33 41.5t28.5 39l6 -5q-12 -17 -28.5 -39.5t-34 -42.5t-34.5 -34t-32 -14t-24.5 10.5t-12.5 18.5
q-9 -14 -23 -32t-31 -35t-36 -28.5t-39 -11.5q-23 0 -38 14.5t-25 35.5t-14 44t-4 40zM81 57q0 -8 0.5 -20t3.5 -24t9 -20.5t18 -8.5q18 0 35.5 9.5t34 24.5t31.5 34.5t27 40.5q-5 12 -9.5 31.5t-4.5 38.5q0 25 8.5 44t29.5 19q5 0 11 -2q0 10 -2.5 24.5t-8 28.5t-15 24
t-22.5 10q-33 0 -59.5 -31t-46 -73t-30 -84.5t-10.5 -65.5zM108 399q5 17 22.5 32.5t41.5 15.5q12 0 24.5 -4.5t25 -10.5t24.5 -10.5t23 -4.5q17 0 25.5 12t14.5 20l16 -8q-5 -17 -21.5 -34t-42.5 -17q-12 0 -24.5 4.5t-25 10t-24.5 10t-23 4.5q-16 0 -24.5 -10.5
t-14.5 -18.5z" />
    <glyph glyph-name="odieresis" unicode="&#xf6;" horiz-adv-x="335" 
d="M34 109q0 23 19.5 59t48 70t60.5 58.5t58 24.5q19 0 31.5 -10.5t20 -26.5t10.5 -35t3 -35q0 -25 -10 -58t-25 -63q4 -14 10.5 -22.5t22.5 -8.5q12 0 27.5 13t32 32.5t33 41.5t28.5 39l6 -5q-12 -17 -28.5 -39.5t-34 -42.5t-34.5 -34t-32 -14t-24.5 10.5t-12.5 18.5
q-9 -14 -23 -32t-31 -35t-36 -28.5t-39 -11.5q-23 0 -38 14.5t-25 35.5t-14 44t-4 40zM81 57q0 -8 0.5 -20t3.5 -24t9 -20.5t18 -8.5q18 0 35.5 9.5t34 24.5t31.5 34.5t27 40.5q-5 12 -9.5 31.5t-4.5 38.5q0 25 8.5 44t29.5 19q5 0 11 -2q0 10 -2.5 24.5t-8 28.5t-15 24
t-22.5 10q-33 0 -59.5 -31t-46 -73t-30 -84.5t-10.5 -65.5zM263 414q0 16 12 31t29 15q12 0 20 -8.5t8 -20.5q0 -16 -12 -31t-28 -15q-12 0 -20.5 8.5t-8.5 20.5zM143 414q0 16 12 31t29 15q12 0 20 -8.5t8 -20.5q0 -16 -12.5 -31t-28.5 -15q-12 0 -20 8.5t-8 20.5z" />
    <glyph glyph-name="divide" unicode="&#xf7;" horiz-adv-x="416" 
d="M149 78q0 16 12 31t29 15q12 0 20 -8.5t8 -20.5q0 -16 -12 -31t-28 -15q-12 0 -20.5 8.5t-8.5 20.5zM213 305q0 16 12 31t29 15q12 0 20 -8.5t8 -20.5q0 -16 -12.5 -31t-28.5 -15q-12 0 -20 8.5t-8 20.5zM77 217h293l-10 -34h-293z" />
    <glyph glyph-name="oslash" unicode="&#xf8;" horiz-adv-x="335" 
d="M283 361l-27 -55q17 -16 23 -42.5t6 -49.5q0 -25 -10 -58t-25 -63q4 -14 10.5 -22.5t22.5 -8.5q12 0 27.5 13t32 32.5t33 41.5t28.5 39l6 -5q-12 -17 -28.5 -39.5t-34 -42.5t-34.5 -34t-32 -14t-24.5 10.5t-12.5 18.5q-9 -14 -23 -32t-31 -35t-36 -28.5t-39 -11.5
q-6 0 -11 1t-10 3l-24 -50h-17l28 57q-13 9 -22 24.5t-14.5 33t-8 35t-2.5 30.5q0 23 19.5 59t48 70t60.5 58.5t58 24.5q12 0 23 -6l22 46h18zM275 224q0 7 -1 16.5t-4 20t-7.5 20.5t-10.5 17l-153 -310q6 -4 13 -4q18 0 35.5 9.5t34 24.5t31.5 34.5t27 40.5
q-5 12 -9.5 31.5t-4.5 38.5q0 25 8.5 44t29.5 19q5 0 11 -2zM81 57q0 -10 0.5 -26t6.5 -30l151 307q-6 3 -12 3q-33 0 -59.5 -31t-46 -73t-30 -84.5t-10.5 -65.5z" />
    <glyph glyph-name="ugrave" unicode="&#xf9;" 
d="M254 384q-16 5 -34.5 15.5t-36.5 24.5t-32 31.5t-21 36.5l35 24q8 -32 35 -64.5t66 -57.5zM54 167q7 25 17 56q11 38 25 82h52q-38 -121 -60 -199t-22 -108q0 -4 1.5 -7.5t9.5 -3.5q20 0 66.5 48.5t106.5 137.5l40 132h52q-38 -121 -60 -199t-22 -108q0 -4 1.5 -7.5
t9.5 -3.5q7 0 26.5 14.5t45.5 41t57.5 63.5t63.5 82l6 -5q-25 -36 -55 -73t-57.5 -67t-49.5 -49t-32 -19q-17 0 -27 8.5t-15 23.5t-6.5 34.5t-1.5 40.5q0 10 15 61q-21 -30 -44.5 -60t-45.5 -54t-40.5 -39t-28.5 -15q-17 0 -27 8.5t-15 23.5t-6.5 34.5t-1.5 40.5q0 4 5 23
q4 15 10 36q-31 -39 -57 -61l-5 5q32 32 69 82z" />
    <glyph glyph-name="uacute" unicode="&#xfa;" 
d="M193 394q39 25 66 57.5t35 64.5l35 -24q-7 -19 -21 -36.5t-32 -31.5t-36.5 -24.5t-34.5 -15.5zM54 167q7 25 17 56q11 38 25 82h52q-38 -121 -60 -199t-22 -108q0 -4 1.5 -7.5t9.5 -3.5q20 0 66.5 48.5t106.5 137.5l40 132h52q-38 -121 -60 -199t-22 -108q0 -4 1.5 -7.5
t9.5 -3.5q7 0 26.5 14.5t45.5 41t57.5 63.5t63.5 82l6 -5q-25 -36 -55 -73t-57.5 -67t-49.5 -49t-32 -19q-17 0 -27 8.5t-15 23.5t-6.5 34.5t-1.5 40.5q0 10 15 61q-21 -30 -44.5 -60t-45.5 -54t-40.5 -39t-28.5 -15q-17 0 -27 8.5t-15 23.5t-6.5 34.5t-1.5 40.5q0 4 5 23
q4 15 10 36q-31 -39 -57 -61l-5 5q32 32 69 82z" />
    <glyph glyph-name="ucircumflex" unicode="&#xfb;" 
d="M270 502l54 -104l-19 -9l-43 70l-111 -75l-15 15l129 103h5zM54 167q7 25 17 56q11 38 25 82h52q-38 -121 -60 -199t-22 -108q0 -4 1.5 -7.5t9.5 -3.5q20 0 66.5 48.5t106.5 137.5l40 132h52q-38 -121 -60 -199t-22 -108q0 -4 1.5 -7.5t9.5 -3.5q7 0 26.5 14.5t45.5 41
t57.5 63.5t63.5 82l6 -5q-25 -36 -55 -73t-57.5 -67t-49.5 -49t-32 -19q-17 0 -27 8.5t-15 23.5t-6.5 34.5t-1.5 40.5q0 10 15 61q-21 -30 -44.5 -60t-45.5 -54t-40.5 -39t-28.5 -15q-17 0 -27 8.5t-15 23.5t-6.5 34.5t-1.5 40.5q0 4 5 23q4 15 10 36q-31 -39 -57 -61l-5 5
q32 32 69 82z" />
    <glyph glyph-name="udieresis" unicode="&#xfc;" 
d="M270 414q0 16 12 31t29 15q12 0 20 -8.5t8 -20.5q0 -16 -12 -31t-28 -15q-12 0 -20.5 8.5t-8.5 20.5zM150 414q0 16 12 31t29 15q12 0 20 -8.5t8 -20.5q0 -16 -12.5 -31t-28.5 -15q-12 0 -20 8.5t-8 20.5zM54 167q7 25 17 56q11 38 25 82h52q-38 -121 -60 -199t-22 -108
q0 -4 1.5 -7.5t9.5 -3.5q20 0 66.5 48.5t106.5 137.5l40 132h52q-38 -121 -60 -199t-22 -108q0 -4 1.5 -7.5t9.5 -3.5q7 0 26.5 14.5t45.5 41t57.5 63.5t63.5 82l6 -5q-25 -36 -55 -73t-57.5 -67t-49.5 -49t-32 -19q-17 0 -27 8.5t-15 23.5t-6.5 34.5t-1.5 40.5q0 10 15 61
q-21 -30 -44.5 -60t-45.5 -54t-40.5 -39t-28.5 -15q-17 0 -27 8.5t-15 23.5t-6.5 34.5t-1.5 40.5q0 4 5 23q4 15 10 36q-31 -39 -57 -61l-5 5q32 32 69 82z" />
    <glyph glyph-name="yacute" unicode="&#xfd;" horiz-adv-x="400" 
d="M182 394q39 25 66 57.5t35 64.5l35 -24q-7 -19 -21 -36.5t-32 -31.5t-36.5 -24.5t-34.5 -15.5zM-38 -528q27 0 50 23.5t44 63t60.5 157t58.5 175.5q-72 -72 -109 -118t-69.5 -96.5t-48 -93t-15.5 -76.5q0 -20 7.5 -26.5t21.5 -8.5zM77 201q3 11 7 22q11 38 35 92h52
q-48 -131 -70 -209t-22 -108q0 -4 1.5 -7.5t9.5 -3.5q20 0 66.5 48.5t106.5 137.5l50 142h52l-120 -364q26 21 49.5 40.5t46.5 42t51 56t76 98.5l6 -5q-68 -96 -121 -150.5t-112 -96.5q-26 -70 -69.5 -197.5t-74 -174.5t-67 -74.5t-68.5 -27.5q-17 0 -28 12.5t-11 35.5
q0 36 18 81.5t53 99t74.5 101.5t112.5 120l73 231q-21 -30 -44.5 -60t-45.5 -54t-40.5 -39t-28.5 -15q-17 0 -27 8.5t-15 23.5t-6.5 34.5t-1.5 40.5q0 4 5 23t14 49q1 7 4 14q-44 -58 -78 -88l-5 5q38 38 92 116z" />
    <glyph glyph-name="thorn" unicode="&#xfe;" horiz-adv-x="440" 
d="M331 732l-207 -661q25 43 52.5 89t55.5 83.5t53.5 62t46.5 24.5q10 0 18.5 -7t13.5 -17t8 -21t3 -20q0 -33 -11.5 -73t-26 -77.5t-26 -67.5t-11.5 -42q0 -17 13 -17q11 0 34 18t50.5 46.5t57 64.5t53.5 71l7 -6q-29 -41 -59 -78t-57 -66t-49.5 -46t-35.5 -17t-22 8.5
t-14.5 21t-8 27t-2.5 26.5q0 22 11.5 59t25.5 73.5t25.5 67t11.5 39.5q0 15 -11 15q-18 0 -44.5 -26.5t-56.5 -68.5t-61 -93t-58 -100l-122 -390h-55l200 647q-12 -25 -29 -52.5t-40 -59.5l-7 5q16 21 32.5 48t30 53t23 46.5t12.5 28.5l119 382h57z" />
    <glyph glyph-name="ydieresis" unicode="&#xff;" horiz-adv-x="400" 
d="M258 414q0 16 12 31t29 15q12 0 20 -8.5t8 -20.5q0 -16 -12 -31t-28 -15q-12 0 -20.5 8.5t-8.5 20.5zM138 414q0 16 12 31t29 15q12 0 20 -8.5t8 -20.5q0 -16 -12.5 -31t-28.5 -15q-12 0 -20 8.5t-8 20.5zM-38 -528q27 0 50 23.5t44 63t60.5 157t58.5 175.5
q-72 -72 -109 -118t-69.5 -96.5t-48 -93t-15.5 -76.5q0 -20 7.5 -26.5t21.5 -8.5zM77 201q3 11 7 22q11 38 35 92h52q-48 -131 -70 -209t-22 -108q0 -4 1.5 -7.5t9.5 -3.5q20 0 66.5 48.5t106.5 137.5l50 142h52l-120 -364q26 21 49.5 40.5t46.5 42t51 56t76 98.5l6 -5
q-68 -96 -121 -150.5t-112 -96.5q-26 -70 -69.5 -197.5t-74 -174.5t-67 -74.5t-68.5 -27.5q-17 0 -28 12.5t-11 35.5q0 36 18 81.5t53 99t74.5 101.5t112.5 120l73 231q-21 -30 -44.5 -60t-45.5 -54t-40.5 -39t-28.5 -15q-17 0 -27 8.5t-15 23.5t-6.5 34.5t-1.5 40.5
q0 4 5 23t14 49q1 7 4 14q-44 -58 -78 -88l-5 5q38 38 92 116z" />
    <glyph glyph-name="Cacute" unicode="&#x106;" horiz-adv-x="789" 
d="M400 -201q-5 13 -14 53t-10 115q-39 9 -69.5 31.5t-51.5 54.5t-31.5 71t-10.5 80q0 40 8.5 80.5t23.5 80.5q-19 -3 -37.5 -4t-35.5 -1q-42 0 -85.5 10t-79.5 33t-59 61t-23 94q0 62 26 109.5t69 82.5t98.5 58t114.5 37t117 19.5t106 5.5q22 0 35 -0.5t29 -1.5l-1 -20
q-24 2 -48 3.5t-48 1.5q-87 0 -170.5 -22t-149 -62.5t-105.5 -98t-40 -127.5q0 -47 16.5 -79t45.5 -51.5t69.5 -28t87.5 -8.5q35 0 74 6q27 64 68 125t90 115t103 99.5t106 78t99 50.5t82 18q24 0 41.5 -15.5t17.5 -42.5q0 -42 -22 -85.5t-60.5 -85.5t-90.5 -82t-111.5 -74
t-124 -60.5t-127.5 -42.5q-29 -64 -44.5 -127.5t-15.5 -120.5q0 -15 3.5 -38.5t15.5 -47t34.5 -43t60.5 -27.5v7q0 89 23.5 162.5t62 126t88 81.5t101.5 29q53 0 82.5 -29.5t29.5 -80.5q0 -61 -29.5 -117t-77.5 -99t-108.5 -69t-122.5 -26q-20 0 -36 3q0 -42 5.5 -86.5
t14.5 -74.5zM801 852q-58 0 -123.5 -38.5t-129.5 -101.5t-121 -145t-97 -169q61 17 123 43t119 59t107.5 71.5t87.5 79t58.5 81t21.5 78.5q0 22 -16.5 32t-29.5 10zM664 366q-56 0 -106 -37.5t-87.5 -95t-59.5 -126.5t-22 -133q6 -1 13 -1.5t15 -0.5q58 0 117.5 23.5t108 65
t79 97t30.5 118.5q0 40 -23 65t-65 25zM722 919q39 25 66 57.5t35 64.5l35 -24q-7 -19 -21 -36.5t-32 -31.5t-36.5 -24.5t-34.5 -15.5z" />
    <glyph glyph-name="cacute" unicode="&#x107;" horiz-adv-x="295" 
d="M27 122q0 13 10.5 34t28.5 44t41 46t48.5 42t51 30.5t47.5 11.5q13 0 22 -6t14.5 -15t7.5 -20.5t2 -22.5q0 -27 -13.5 -44.5t-31.5 -17.5q-11 0 -17.5 9t-6.5 21q0 16 11 31t34 15q2 0 3.5 -0.5t2.5 -0.5q0 21 -11 28t-23 7q-27 0 -56 -23t-54 -60t-41 -84t-16 -95
q0 -10 1.5 -21.5t5.5 -21t12 -16t20 -6.5q20 0 43.5 7t52.5 28t65 60.5t83 105.5l6 -5q-39 -54 -71.5 -93t-62 -64.5t-57.5 -38t-57 -12.5q-39 0 -67 37.5t-28 109.5zM195 394q39 25 66 57.5t35 64.5l35 -24q-7 -19 -21 -36.5t-32 -31.5t-36.5 -24.5t-34.5 -15.5z" />
    <glyph glyph-name="Ccaron" unicode="&#x10c;" horiz-adv-x="789" 
d="M400 -201q-5 13 -14 53t-10 115q-39 9 -69.5 31.5t-51.5 54.5t-31.5 71t-10.5 80q0 40 8.5 80.5t23.5 80.5q-19 -3 -37.5 -4t-35.5 -1q-42 0 -85.5 10t-79.5 33t-59 61t-23 94q0 62 26 109.5t69 82.5t98.5 58t114.5 37t117 19.5t106 5.5q22 0 35 -0.5t29 -1.5l-1 -20
q-24 2 -48 3.5t-48 1.5q-87 0 -170.5 -22t-149 -62.5t-105.5 -98t-40 -127.5q0 -47 16.5 -79t45.5 -51.5t69.5 -28t87.5 -8.5q35 0 74 6q27 64 68 125t90 115t103 99.5t106 78t99 50.5t82 18q24 0 41.5 -15.5t17.5 -42.5q0 -42 -22 -85.5t-60.5 -85.5t-90.5 -82t-111.5 -74
t-124 -60.5t-127.5 -42.5q-29 -64 -44.5 -127.5t-15.5 -120.5q0 -15 3.5 -38.5t15.5 -47t34.5 -43t60.5 -27.5v7q0 89 23.5 162.5t62 126t88 81.5t101.5 29q53 0 82.5 -29.5t29.5 -80.5q0 -61 -29.5 -117t-77.5 -99t-108.5 -69t-122.5 -26q-20 0 -36 3q0 -42 5.5 -86.5
t14.5 -74.5zM801 852q-58 0 -123.5 -38.5t-129.5 -101.5t-121 -145t-97 -169q61 17 123 43t119 59t107.5 71.5t87.5 79t58.5 81t21.5 78.5q0 22 -16.5 32t-29.5 10zM664 366q-56 0 -106 -37.5t-87.5 -95t-59.5 -126.5t-22 -133q6 -1 13 -1.5t15 -0.5q58 0 117.5 23.5t108 65
t79 97t30.5 118.5q0 40 -23 65t-65 25zM759 909l-54 104l19 9l43 -70l111 75l15 -15l-129 -103h-5z" />
    <glyph glyph-name="ccaron" unicode="&#x10d;" horiz-adv-x="295" 
d="M27 122q0 13 10.5 34t28.5 44t41 46t48.5 42t51 30.5t47.5 11.5q13 0 22 -6t14.5 -15t7.5 -20.5t2 -22.5q0 -27 -13.5 -44.5t-31.5 -17.5q-11 0 -17.5 9t-6.5 21q0 16 11 31t34 15q2 0 3.5 -0.5t2.5 -0.5q0 21 -11 28t-23 7q-27 0 -56 -23t-54 -60t-41 -84t-16 -95
q0 -10 1.5 -21.5t5.5 -21t12 -16t20 -6.5q20 0 43.5 7t52.5 28t65 60.5t83 105.5l6 -5q-39 -54 -71.5 -93t-62 -64.5t-57.5 -38t-57 -12.5q-39 0 -67 37.5t-28 109.5zM223 384l-54 104l19 9l43 -70l111 75l15 -15l-129 -103h-5z" />
    <glyph glyph-name="Dslash" unicode="&#x110;" horiz-adv-x="957" 
d="M548 330h70q21 49 41 101.5t44 105t54.5 103.5t72.5 98q-51 31 -110.5 47t-125.5 16q-91 0 -172.5 -35t-143 -91t-98 -126.5t-36.5 -142.5q0 -34 9.5 -65t31.5 -54q9 61 29.5 119.5t54.5 103.5t82 72.5t111 27.5q47 0 74 -30t27 -73q0 -51 -22.5 -100.5t-59.5 -88.5
t-85.5 -63t-99.5 -24q-27 0 -52 5.5t-46 19.5q-2 -17 -3 -33t-1 -33q0 -24 2.5 -48.5t7.5 -49.5h-17q-4 23 -6 48.5t-2 51.5q0 18 1 37t3 38q-29 26 -46.5 73t-17.5 125q0 66 40.5 129t107.5 112.5t153.5 79.5t178.5 30q64 0 125.5 -17t115.5 -50q32 35 73 66.5t93 59.5
l5 -11q-60 -32 -98 -61.5t-63 -59.5q35 -24 64.5 -54.5t51 -68t33.5 -82t12 -95.5q0 -105 -46.5 -192.5t-122 -151.5t-170.5 -99.5t-192 -35.5q-45 0 -83.5 8t-75.5 19q-43 -13 -90 -20t-99 -7q-11 0 -33 1t-44 5.5t-38.5 15t-16.5 30.5q0 15 10.5 24t26 13.5t32 6t28.5 1.5
q33 0 61 -5t54.5 -13t52.5 -17.5t53 -18.5q57 18 100 47t76.5 66.5t59.5 82t49 93.5h-65zM996 437q0 99 -42.5 173t-112.5 121q-24 -34 -38.5 -72t-29 -85.5t-33.5 -107.5t-53 -136h94l-10 -34h-100q-23 -47 -54.5 -91.5t-72 -83t-90 -69.5t-108.5 -52q29 -8 62 -13.5
t72 -5.5q102 0 195.5 35.5t165 97t113.5 145t42 178.5zM453 597q-35 0 -74.5 -24.5t-75 -68t-63 -102.5t-39.5 -128q17 -14 40 -21t53 -7q46 0 91 21.5t81 57.5t58.5 82t22.5 95q0 42 -25 68.5t-69 26.5zM126 -19q48 0 89 5t77 14q-51 16 -100.5 30.5t-106.5 14.5
q-8 0 -19 -1t-22 -4t-18.5 -8.5t-7.5 -15.5q0 -13 13.5 -20t31.5 -10.5t36 -4t27 -0.5z" />
    <glyph glyph-name="dcroat" unicode="&#x111;" horiz-adv-x="394" 
d="M234 533h119l47 155h55q-13 -42 -19.5 -63.5t-28.5 -91.5h60l-10 -34h-60q-58 -183 -100.5 -320.5t-42.5 -180.5q0 -4 1.5 -7.5t9.5 -3.5q12 0 35.5 18.5t51.5 47.5t57.5 64.5t53.5 70.5l6 -5q-25 -36 -54.5 -73t-57 -67t-51 -49t-36.5 -19q-15 0 -24.5 8.5t-15.5 23.5
t-8 34.5t-2 40.5q-7 -11 -18.5 -30t-26 -37t-31 -31t-34.5 -13q-8 0 -22 6.5t-27 23.5t-22.5 45.5t-9.5 73.5q0 26 22 62t52.5 69t62 56t51.5 23q6 0 14 -2t16 -9.5t14.5 -21.5t10.5 -37l71 239h-119zM258 258q0 18 -9 37.5t-29 19.5q-21 0 -45.5 -27t-45.5 -68t-35.5 -89.5
t-14.5 -91.5q0 -21 5.5 -36t19.5 -15q26 0 53.5 28t50 69t36.5 88t14 85z" />
    <glyph glyph-name="Gbreve" unicode="&#x11e;" horiz-adv-x="710" 
d="M134 87q12 -3 35.5 -6t39.5 -3q21 0 52 8.5t60.5 25t50 39t20.5 51.5q0 24 -11 40.5t-28 27.5t-37.5 16t-40.5 5q-34 0 -74 -12.5t-75 -35t-58.5 -54.5t-23.5 -71q0 -43 17.5 -72.5t46.5 -48t65 -26.5t74 -8q41 0 83.5 9.5t81 28t71 46.5t53.5 65q18 32 33 61t28.5 58.5
t27.5 60t31 65.5q-17 -14 -37.5 -28t-42.5 -25.5t-46 -19t-48 -7.5q-20 0 -40 6.5t-38.5 21t-33 36.5t-22.5 53q-6 -1 -11.5 -1h-10.5q-327 0 -327 214q0 71 39.5 122.5t104 84.5t147 49t167.5 16q11 0 35.5 -2t45.5 -7l-4 -14q-23 5 -53 7t-51 2q-87 0 -162.5 -26.5
t-130.5 -66t-86.5 -86.5t-31.5 -88q0 -56 21 -92t60 -57t95 -29t126 -8h11t12 1q-2 11 -3 23.5t-1 26.5q0 38 22 80t58 82.5t81.5 77.5t93.5 65t93.5 44.5t80.5 16.5q15 0 28.5 -2t24 -8.5t17 -18t6.5 -29.5q0 -39 -21.5 -78t-56.5 -76t-81.5 -70.5t-95.5 -61.5t-98.5 -49
t-91.5 -32q0 -20 4 -39.5t12.5 -35t23 -25t35.5 -9.5q36 0 72.5 16t72.5 41t70 55t65 58l9 -12q-14 -14 -34 -33t-32 -29q-12 -110 -49.5 -192.5t-96.5 -137t-137.5 -82t-172.5 -27.5q-30 0 -67 6t-69 24t-53.5 49.5t-21.5 82.5q0 42 23 76.5t58.5 59.5t79.5 39t86 14
q23 0 46.5 -6.5t42.5 -19.5t31 -33t12 -47t-14.5 -52t-40 -44.5t-60 -31t-74.5 -11.5q-7 0 -19 1t-25 3t-26 5.5t-22 8.5zM778 816q-49 0 -95.5 -21t-88 -54.5t-76.5 -76t-60.5 -86.5t-40.5 -85t-17 -71q48 11 99 33t99.5 51t91.5 62.5t75.5 68t51.5 67.5t19 61q0 25 -16 38
t-42 13zM665 944q11 -23 29.5 -32.5t39.5 -9.5q26 0 53 13.5t47 34.5l16 -11q-10 -13 -24.5 -25t-31 -21.5t-34.5 -15t-35 -5.5q-25 0 -45 15t-30 50z" />
    <glyph glyph-name="gbreve" unicode="&#x11f;" horiz-adv-x="389" 
d="M225 -49q24 18 45.5 33t47 38.5t59 62t81.5 103.5l6 -5q-68 -96 -127 -155.5t-116 -91.5q-26 -80 -69.5 -212.5t-74 -179.5t-67 -74.5t-68.5 -27.5q-17 0 -28 12.5t-11 35.5q0 36 13 76.5t38 85t94.5 132.5t112.5 128l55 170q-7 -11 -20 -29.5t-30 -36t-36.5 -30
t-39.5 -12.5q-5 0 -15 6.5t-20 23.5t-18 45.5t-8 73.5q0 26 22 61.5t53 68t63 55t53 22.5q6 0 14 -4t15 -13.5t12.5 -25.5t6.5 -39l18 57h55zM254 240q0 9 -1.5 21.5t-5 24.5t-10 20t-16.5 8q-16 0 -33 -13.5t-33.5 -35.5t-31 -49.5t-26 -56t-18 -54.5t-6.5 -44
q0 -11 0.5 -23t3 -23t6.5 -18t11 -7q25 0 53 25t52 62.5t39.5 81t15.5 81.5zM-58 -548q27 0 50 23.5t44 68t60.5 167t58.5 180.5q-42 -40 -109 -126t-89.5 -127.5t-33 -79t-10.5 -71.5q0 -20 7.5 -26.5t21.5 -8.5zM147 447q11 -23 29.5 -32.5t39.5 -9.5q26 0 53 13.5
t47 34.5l16 -11q-10 -13 -24.5 -25t-31 -21.5t-34.5 -15t-35 -5.5q-25 0 -45 15t-30 50z" />
    <glyph glyph-name="Idotaccent" unicode="&#x130;" horiz-adv-x="650" 
d="M815 654l-29 -42q-29 -42 -43.5 -92t-30.5 -99q-14 -42 -26 -83.5t-27 -82t-33.5 -79t-44.5 -74.5q-35 -48 -79 -83t-93.5 -57.5t-102 -33t-103.5 -10.5q-38 0 -74.5 9.5t-65 29t-46.5 49.5t-18 72q0 38 14 70t37 57.5t51.5 45.5t58 33t57 20t48.5 7t46 -5t46.5 -16
t35.5 -29t14 -44q0 -43 -19 -76t-49.5 -56t-69 -35t-78.5 -12q-28 0 -49.5 2.5t-31.5 7.5v14q11 -2 21 -4.5t20 -2.5q34 0 76 11t79 31.5t62.5 49.5t25.5 65q0 23 -10.5 39t-27 25.5t-37 14t-39.5 4.5q-48 0 -96 -18.5t-86.5 -49t-62 -69t-23.5 -78.5q0 -33 14.5 -61
t38.5 -47.5t55.5 -30.5t66.5 -11q133 0 223.5 60t148.5 180q22 45 37.5 90.5t32.5 93.5q8 23 23 55.5t32 65.5t34 63t29 49q-7 -5 -18.5 -14.5t-25 -18.5t-28 -15.5t-26.5 -6.5q-9 0 -18.5 7t-16.5 18t-11.5 25t-4.5 28q0 8 4 20.5t8.5 28.5t8.5 34t4 38q0 22 -14.5 36.5
t-35.5 23t-44 11.5t-39 3q-63 0 -118 -26t-96 -66.5t-65 -90t-24 -95.5q0 -63 26.5 -92t74.5 -29q33 0 66 22t60 54.5t43.5 69.5t16.5 68q0 29 -17.5 45.5t-44.5 16.5q-25 0 -49 -15.5t-43.5 -39t-31.5 -51.5t-13 -53h-13q0 21 11 50t31 55.5t48 45t62 18.5q39 0 58.5 -25
t19.5 -62q0 -41 -17 -79.5t-45 -68t-63.5 -47.5t-71.5 -18q-56 0 -87.5 34.5t-31.5 93.5t27.5 113t72 95t101 65.5t115.5 24.5q29 0 60 -8t56.5 -24.5t42 -40.5t16.5 -57q0 -17 -4.5 -32.5t-10 -31.5t-10 -31.5t-4.5 -32.5q0 -10 2 -14t16 -4q10 0 28 12.5t39 30.5
t42.5 38.5t38.5 37.5zM483 903q0 16 12 31t29 15q12 0 20 -8.5t8 -20.5q0 -16 -12.5 -31t-28.5 -15q-12 0 -20 8.5t-8 20.5z" />
    <glyph glyph-name="dotlessi" unicode="&#x131;" horiz-adv-x="206" 
d="M54 167q9 29 21 64q11 36 23 74h55q-2 -5 -9 -25t-17 -48.5t-20.5 -62t-19.5 -66t-15 -60.5t-6 -45q0 -4 1.5 -7.5t9.5 -3.5q12 0 35.5 18.5t51.5 47.5t57.5 64.5t53.5 70.5l6 -5q-25 -36 -54.5 -73t-57 -67t-51 -49t-36.5 -19q-30 0 -40 29.5t-10 72.5q0 12 6 35
q3 13 8 28q-30 -38 -56 -60l-5 5q32 32 69 82z" />
    <glyph glyph-name="Lslash" unicode="&#x141;" horiz-adv-x="926" 
d="M440 197l99 15q34 58 62 116q-54 -20 -108.5 -31t-109.5 -11q-67 0 -113.5 19t-75 49.5t-41.5 68.5t-13 77q0 55 35 109t96.5 97t146 69.5t184.5 26.5q53 0 109 -9v-13q-50 9 -97 9q-92 0 -172.5 -28t-140.5 -72.5t-94.5 -100.5t-34.5 -113q0 -33 11 -65t36 -56.5t65 -40
t99 -15.5q51 0 110.5 16t121.5 44q37 81 71 161t74 145.5t90.5 109.5t121.5 53q31 0 43 -15.5t12 -39.5q0 -53 -27.5 -110t-74.5 -112t-111 -104t-137 -85q-17 -36 -35.5 -71t-39.5 -68l69 11l-6 -26l-82 -13q-29 -42 -62 -78.5t-74 -66.5q44 -13 85 -24t78 -18
q16 56 39.5 95t49 64.5t51 39.5t47 20.5t36.5 8t19 1.5q43 0 61.5 -18t18.5 -45q0 -29 -21.5 -64t-62 -65t-99 -50.5t-132.5 -20.5q-8 -29 -13 -62t-7 -72h-13q3 74 17 135q-47 2 -99.5 14.5t-106.5 28.5q-51 -28 -111.5 -43.5t-134.5 -15.5q-40 0 -68.5 6t-46.5 15.5
t-26 21.5t-8 23q0 14 13 28.5t36 26t54 19t66 7.5q56 0 117.5 -13.5t124.5 -31.5q32 26 59.5 57.5t50.5 66.5l-87 -13zM980 816q-52 0 -90 -35.5t-70.5 -94t-62 -134t-64.5 -154.5q64 36 122.5 81.5t102.5 95t70.5 100.5t26.5 100q0 15 -9.5 28t-25.5 13zM866 223
q-3 0 -17.5 -2.5t-35.5 -10t-46 -22t-50.5 -39t-49 -60t-40.5 -85.5q23 -4 47 -4q56 0 100.5 18.5t76 45.5t48.5 58t17 55q0 20 -12 33t-38 13zM144 -30q66 0 120 15.5t99 41.5q-66 20 -128 37t-112 17q-46 0 -77 -17t-31 -36q0 -9 7 -19.5t23 -19t40 -14t59 -5.5z" />
    <glyph glyph-name="lslash" unicode="&#x142;" horiz-adv-x="251" 
d="M6 137l55 16q8 48 22.5 111t34.5 130t45 132t53 116t59 82.5t64 31.5q9 0 15 -6t9.5 -14.5t5 -17.5t1.5 -16q0 -26 -9.5 -61t-26.5 -76t-40 -86t-50.5 -89.5t-58 -87.5t-61.5 -80l-14 -55l69 20l-6 -26l-69 -20q-8 -39 -11.5 -64t-3.5 -37q0 -20 2 -30.5t6 -15t8 -5.5
t9 -1q16 0 40 16.5t51 44t56.5 63.5t58.5 76l6 -5q-29 -41 -58.5 -78.5t-57 -66t-52.5 -46t-46 -17.5q-15 0 -26 10.5t-18.5 25.5t-11 32.5t-3.5 31.5q0 9 1.5 22t3.5 30l-58 -16zM332 749q-14 0 -30.5 -22.5t-34.5 -61t-36.5 -89.5t-36.5 -107t-34.5 -113.5t-29.5 -109.5
q19 24 44 58.5t50.5 75.5t50 85.5t43.5 87.5t30.5 82t11.5 69q0 14 -5.5 29.5t-22.5 15.5z" />
    <glyph glyph-name="OE" unicode="&#x152;" horiz-adv-x="1095" 
d="M732 50q4 66 23 120.5t50 94.5t74 62t95 22q27 0 47.5 -8.5t34 -23.5t20.5 -35t7 -42q0 -49 -23 -98.5t-63 -89.5t-94 -65t-116 -25q-41 0 -77.5 14.5t-64.5 41.5t-44 66t-16 88q0 16 3 33q-36 -49 -78.5 -91t-88.5 -73t-95 -49t-99 -18q-55 0 -94 28t-64 70.5
t-36.5 93.5t-11.5 97q0 69 26.5 141t72 140t106.5 127.5t129.5 104.5t141.5 71t142 26h23.5t15.5 -1l-2 -13q-9 1 -17.5 1h-16.5q-86 0 -161 -31t-138 -83.5t-112.5 -121.5t-83.5 -145.5t-52 -155t-18 -150.5q0 -33 7.5 -66t25.5 -60t48.5 -43.5t77.5 -16.5q48 0 99 21
t100 57.5t93.5 86.5t79.5 108q20 34 39 69.5t33.5 74.5t23 80.5t8.5 87.5q0 28 -7 56.5t-21.5 51t-37.5 36.5t-55 14q-41 0 -81 -19t-76.5 -50.5t-67.5 -72t-54 -83t-36 -84.5t-13 -76q0 -42 20.5 -72.5t59.5 -30.5q26 0 51 13.5t47 35.5t40 50t31.5 57t21 55.5t7.5 46.5
l15 -2q0 -15 -7 -40.5t-19.5 -55.5t-31 -60.5t-42 -55.5t-51.5 -41t-59 -16q-33 0 -55 11.5t-35.5 31t-19.5 44t-6 51.5q0 43 15.5 87.5t41.5 86.5t61.5 78.5t75 64t82 43.5t82.5 16q37 0 63.5 -16t43.5 -41.5t24.5 -57t7.5 -63.5q0 -51 -15 -107t-41 -113q41 41 90.5 73.5
t96.5 53.5q-21 17 -34 43t-13 59q0 24 16 53t42 59t59 57.5t67.5 49.5t67.5 35t59 13q23 0 38.5 -12t15.5 -37q0 -33 -19.5 -65t-52.5 -62.5t-77 -58t-93 -50.5l-4 13q49 25 91.5 53.5t74 57.5t49.5 56.5t18 50.5q0 15 -11 24t-25 9q-28 0 -59 -14t-60.5 -37t-56.5 -52.5
t-47.5 -61.5t-32.5 -63.5t-12 -57.5q0 -18 4.5 -31.5t12.5 -22.5q59 25 93 25q26 0 35.5 -10.5t9.5 -22.5q0 -11 -5.5 -17.5t-14 -11t-18 -6t-16.5 -1.5q-24 0 -47.5 6.5t-43.5 20.5q-42 -23 -82.5 -60.5t-73 -81t-52 -89.5t-19.5 -87q0 -84 33 -128.5t117 -44.5
q58 0 108.5 27t88 66t59.5 82t22 75q0 21 -4 40.5t-13.5 35t-26 24.5t-41.5 9q-47 0 -87 -23t-70.5 -62t-51 -91.5t-27.5 -111.5zM966 493q-20 0 -40 -5.5t-42 -16.5q18 -16 39 -19.5t31 -3.5q47 0 47 22q0 23 -35 23z" />
    <glyph glyph-name="oe" unicode="&#x153;" horiz-adv-x="519" 
d="M220 321q18 0 30.5 -10t20 -25t11 -33.5t3.5 -34.5q16 21 35.5 40t40 32.5t40.5 21.5t37 8q26 0 38.5 -16t12.5 -35q0 -27 -18 -52t-46.5 -46.5t-64 -38.5t-70.5 -28q-2 -10 -2 -19v-19q0 -13 2 -26.5t8 -25t16 -18.5t25 -7q31 0 64 16.5t65.5 44.5t63 64t56.5 74l6 -5
q-29 -42 -60.5 -80t-64.5 -66.5t-67 -45t-68 -16.5q-19 0 -34.5 9t-27 23.5t-19.5 33t-11 38.5q-9 -14 -23 -31.5t-30.5 -34t-35.5 -27.5t-38 -11q-23 0 -38 14.5t-25 35.5t-14 44t-4 40q0 23 19.5 59t48 70t60.5 58.5t58 24.5zM112 -16q34 0 63 28t49 67.5t31.5 84
t11.5 77.5q0 31 -9.5 50.5t-30.5 19.5q-33 0 -59.5 -31t-46 -73t-30 -84.5t-10.5 -65.5q0 -8 0.5 -20t3.5 -24t9 -20.5t18 -8.5zM434 305q-15 0 -36.5 -14t-42.5 -39.5t-38.5 -60.5t-24.5 -77q28 9 58.5 26t55.5 38.5t41 46.5t16 49q0 9 -5.5 20t-23.5 11z" />
    <glyph glyph-name="Scedilla" unicode="&#x15e;" horiz-adv-x="751" 
d="M206 -182q13 -5 31 -9.5t42 -4.5q23 0 37.5 12t14.5 28q0 19 -11.5 26t-26.5 7q-14 0 -29 -5l-5 16l26 53q-38 -6 -79 -6q-36 0 -72.5 9t-66.5 28.5t-48.5 51t-18.5 75.5q0 39 21.5 77.5t57 69t82 49.5t96.5 19q23 0 46.5 -6t42.5 -18.5t31 -31.5t12 -45q0 -40 -18 -69
t-46.5 -48t-63 -28t-67.5 -9q-14 0 -28 3.5l-26 6.5l3 12q9 -2 17.5 -4.5t17.5 -2.5q37 0 72.5 13.5t62.5 34.5t43.5 47.5t16.5 53.5q0 23 -11.5 38t-29.5 24t-39.5 12.5t-40.5 3.5q-50 0 -93.5 -19t-75.5 -48.5t-50.5 -66.5t-18.5 -73q0 -32 15.5 -58.5t41 -46.5t59.5 -31
t71 -11q106 0 181.5 40.5t128.5 106.5t89 149.5t64 170.5q-71 -35 -145 -53.5t-141 -18.5q-60 0 -104.5 14.5t-74.5 40.5t-45 62t-15 78q0 54 26 105t79.5 91.5t135.5 65t195 24.5q13 0 31 -2t36 -4.5t35 -6t29 -6.5v-13q-13 4 -30 7.5t-35.5 6.5t-37 5t-34.5 2
q-91 0 -166.5 -28t-129.5 -72t-84 -97t-30 -103q0 -33 13.5 -62t41 -51t68.5 -34.5t96 -12.5q56 0 134.5 20.5t158.5 61.5q24 76 46.5 147.5t49.5 128.5t61.5 93.5t83.5 42.5q31 0 43 -15.5t12 -39.5q0 -52 -18 -100t-49 -91t-73.5 -80.5t-91.5 -67.5q-25 -82 -58 -164.5
t-82.5 -152t-119 -120.5t-166.5 -70l-24 -47q5 1 9 1.5t9 0.5q23 0 42 -12t19 -39q0 -28 -22 -46t-60 -18q-26 0 -48 5.5t-36 12.5zM920 835q-34 0 -58.5 -29.5t-44 -79t-37.5 -115t-39 -137.5q45 28 84 63t68 75t46 85.5t17 96.5q0 15 -10 28t-26 13z" />
    <glyph glyph-name="scedilla" unicode="&#x15f;" horiz-adv-x="292" 
d="M7 -130q11 -4 26 -7.5t35 -3.5t31.5 10t11.5 23q0 16 -9.5 22t-21.5 6q-7 0 -13 -1t-12 -3l-4 13l22 46h-3q-28 0 -40 18t-12 41q0 24 11 44.5t30 20.5q11 0 15.5 -6.5t4.5 -15.5q0 -16 -13.5 -33.5t-36.5 -17.5q0 -17 8.5 -29t22.5 -12q32 0 55.5 24t39 55.5t23 63
t7.5 46.5q0 40 -12.5 63.5t-38.5 46.5q-8 -19 -27 -50t-43 -65l-7 5q24 33 43 65.5t26 52.5q-5 3 -10 17t-5 26q0 14 6.5 30t24.5 16q20 0 20 -21q0 -17 -8.5 -36t-16.5 -33q38 -27 65.5 -64t27.5 -81q0 -20 -7.5 -41t-20.5 -41t-31.5 -38t-39.5 -30q3 -7 7 -8.5t9 -1.5
q21 0 46.5 17.5t53 46t56 64.5t57.5 74l6 -5q-24 -34 -52 -70.5t-57.5 -66.5t-58 -49.5t-53.5 -19.5q-13 0 -21 15q-7 -5 -14.5 -8t-15.5 -5l-21 -41q5 1 15 1q19 0 35 -10t16 -33t-18.5 -38t-50.5 -15q-22 0 -40 4.5t-30 10.5z" />
    <glyph glyph-name="Scaron" unicode="&#x160;" horiz-adv-x="751" 
d="M706 791q-13 4 -30 7.5t-35.5 6.5t-37 5t-34.5 2q-91 0 -166.5 -28t-129.5 -72t-84 -97t-30 -103q0 -33 13.5 -62t41 -51t68.5 -34.5t96 -12.5q56 0 134.5 20.5t158.5 61.5q24 76 46.5 147.5t49.5 128.5t61.5 93.5t83.5 42.5q31 0 43 -15.5t12 -39.5q0 -52 -18 -100
t-49 -91t-73.5 -80.5t-91.5 -67.5q-19 -61 -42 -123t-53.5 -119.5t-70.5 -107.5t-93 -87t-119.5 -58.5t-150.5 -21.5q-36 0 -72.5 9t-66.5 28.5t-48.5 51t-18.5 75.5q0 39 21.5 77.5t57 69t82 49.5t96.5 19q23 0 46.5 -6t42.5 -18.5t31 -31.5t12 -45q0 -40 -18 -69
t-46.5 -48t-63 -28t-67.5 -9q-14 0 -28 3.5l-26 6.5l3 12q9 -2 17.5 -4.5t17.5 -2.5q37 0 72.5 13.5t62.5 34.5t43.5 47.5t16.5 53.5q0 23 -11.5 38t-29.5 24t-39.5 12.5t-40.5 3.5q-50 0 -93.5 -19t-75.5 -48.5t-50.5 -66.5t-18.5 -73q0 -32 15.5 -58.5t41 -46.5t59.5 -31
t71 -11q106 0 181.5 40.5t128.5 106.5t89 149.5t64 170.5q-71 -35 -145 -53.5t-141 -18.5q-60 0 -104.5 14.5t-74.5 40.5t-45 62t-15 78q0 54 26 105t79.5 91.5t135.5 65t195 24.5q13 0 31 -2t36 -4.5t35 -6t29 -6.5v-13zM920 835q-34 0 -58.5 -29.5t-44 -79t-37.5 -115
t-39 -137.5q45 28 84 63t68 75t46 85.5t17 96.5q0 15 -10 28t-26 13zM909 879l-54 104l19 9l43 -70l111 75l15 -15l-129 -103h-5z" />
    <glyph glyph-name="scaron" unicode="&#x161;" horiz-adv-x="292" 
d="M137 291q38 -27 65.5 -64t27.5 -81q0 -20 -7.5 -41t-20.5 -41t-31.5 -38t-39.5 -30q3 -7 7 -8.5t9 -1.5q21 0 46.5 17.5t53 46t56 64.5t57.5 74l6 -5q-24 -34 -52 -70.5t-57.5 -66.5t-58 -49.5t-53.5 -19.5q-13 0 -21 15q-13 -8 -28 -12.5t-26 -4.5q-28 0 -40 18t-12 41
q0 24 11 44.5t30 20.5q11 0 15.5 -6.5t4.5 -15.5q0 -16 -13.5 -33.5t-36.5 -17.5q0 -17 8.5 -29t22.5 -12q32 0 55.5 24t39 55.5t23 63t7.5 46.5q0 40 -12.5 63.5t-38.5 46.5q-8 -19 -27 -50t-43 -65l-7 5q24 33 43 65.5t26 52.5q-5 3 -10 17t-5 26q0 14 6.5 30t24.5 16
q20 0 20 -21q0 -17 -8.5 -36t-16.5 -33zM139 398l-54 104l19 9l43 -70l111 75l15 -15l-129 -103h-5z" />
    <glyph glyph-name="Ydieresis" unicode="&#x178;" horiz-adv-x="638" 
d="M55 543q10 40 28 70.5t40 51.5t44.5 31.5t40.5 10.5q42 0 66 -29.5t24 -71.5t-17.5 -81.5t-47 -70.5t-68.5 -49.5t-83 -18.5q-35 0 -60 12t-41 33t-23.5 49t-7.5 59q0 69 29.5 126t77 98t107 63.5t119.5 22.5q31 0 63.5 -12.5t59.5 -34t44.5 -51.5t17.5 -65
q0 -49 -13 -89t-28 -79.5t-28 -84.5t-13 -105q0 -11 8.5 -21.5t19.5 -10.5q29 0 61 25.5t64 66t61.5 91t54.5 100.5t42.5 94t25.5 73h54q-24 -66 -42 -135.5t-36.5 -139t-40.5 -138t-53 -131.5q-27 -57 -72 -104t-99 -80.5t-113.5 -52.5t-117.5 -19q-40 0 -76.5 8.5t-64 26
t-44 44.5t-16.5 65q0 49 24 90t61 69.5t80.5 44.5t82.5 16q22 0 43.5 -7t39 -19.5t28 -31t10.5 -41.5q0 -41 -19.5 -68.5t-50 -44.5t-68 -24.5t-73.5 -7.5h-15.5t-15.5 1l-1 8h27.5t27.5 2q26 2 56 14t56 31.5t43.5 45t17.5 54.5q0 18 -9.5 31.5t-24 22.5t-32 13.5
t-33.5 4.5q-44 0 -87.5 -14t-78.5 -40t-57 -62t-22 -81q0 -39 16 -65.5t41.5 -43.5t57 -24.5t63.5 -7.5q38 0 76 8t74 22.5t68 36.5t58 51q48 54 79.5 121t55.5 141.5t45.5 152.5t49.5 155q-15 -31 -33.5 -69.5t-40 -78t-46 -77.5t-50.5 -67.5t-53.5 -47.5t-55.5 -18
q-19 0 -32.5 13.5t-21.5 33t-12 41.5t-4 39q0 40 12 78.5t27 76.5t27 76t12 78q0 31 -13.5 53t-35.5 36.5t-49 21t-54 6.5q-57 0 -112.5 -25t-99.5 -67.5t-71 -97.5t-27 -115q0 -27 6 -51.5t19.5 -42.5t35 -29t52.5 -11q36 0 72.5 21.5t66 54t47.5 70.5t18 71
q0 32 -15.5 54.5t-48.5 22.5q-20 0 -42 -8.5t-43 -27.5t-38 -48.5t-26 -71.5zM638 828q0 16 12 31t29 15q12 0 20 -8.5t8 -20.5q0 -16 -12 -31t-28 -15q-12 0 -20.5 8.5t-8.5 20.5zM518 828q0 16 12 31t29 15q12 0 20 -8.5t8 -20.5q0 -16 -12.5 -31t-28.5 -15q-12 0 -20 8.5
t-8 20.5z" />
    <glyph glyph-name="Zcaron" unicode="&#x17d;" horiz-adv-x="822" 
d="M594 374h-133q-17 -29 -34 -56.5t-34 -55.5q15 -2 31.5 -5.5t29.5 -11.5t21.5 -21t8.5 -33q0 -24 -8.5 -45t-18.5 -40.5t-18.5 -39.5t-8.5 -42q0 -8 4.5 -15t15 -13t28.5 -10t46 -4q-2 15 -2 25.5v15.5q0 56 11.5 110t36 97t62.5 69t92 26q39 0 57 -27t18 -60
q0 -53 -26.5 -100.5t-66.5 -84t-85.5 -58.5t-83.5 -23q2 -26 8 -58t17 -69l-14 1q-9 30 -14.5 64t-8.5 62q-38 1 -63 9t-40 20.5t-21.5 29.5t-6.5 36q0 25 9 48.5t20.5 43.5t20.5 36t9 27t-18 20t-47 11q-36 -58 -74.5 -110t-78 -91.5t-81.5 -62.5t-86 -23q-25 0 -33.5 13.5
t-8.5 29.5q0 24 16 51.5t42.5 55t60.5 53t70.5 45.5t73 33t67.5 15q17 28 33.5 55.5t33.5 56.5h-146l6 19h150q31 54 63 105q-6 -1 -12 -1h-11q-16 0 -32 4t-29.5 13t-22 24t-8.5 36q0 24 6.5 44t15 39t15 37.5t6.5 41.5t-18 40.5t-43 29t-51.5 17.5t-44.5 6q-63 0 -128 -25
t-118.5 -68t-87.5 -101t-34 -124q0 -20 6.5 -42.5t20 -41.5t33.5 -32t48 -13q39 0 79.5 22.5t73.5 57t54.5 76t21.5 79.5q0 27 -19.5 46t-46.5 19q-23 0 -46.5 -10.5t-45.5 -32t-39.5 -55t-26.5 -79.5h-12q9 43 26.5 78t40 59t48.5 37t51 13q39 0 64 -27.5t25 -65.5
q0 -48 -20.5 -89.5t-54.5 -72t-78 -48t-91 -17.5q-30 0 -53 12.5t-39.5 33t-25 45.5t-8.5 51q0 66 33 125t86.5 103.5t121.5 70.5t139 26q34 0 69.5 -9t64.5 -27t47 -46t18 -65q0 -22 -7 -43.5t-15.5 -41t-15.5 -36.5t-7 -29q0 -22 17 -27.5t37 -5.5q8 0 16 0.5t16 1.5
q31 50 62.5 94t64 76.5t65 51t66.5 18.5q15 0 25.5 -9.5t10.5 -26.5q0 -29 -23 -61.5t-60 -62t-84 -53t-95 -34.5l-65 -111h127zM536 -18q21 1 48 11.5t55 27.5t55 40t48 51.5t34 60.5t13 67q0 27 -17 48.5t-48 21.5q-35 0 -68.5 -27t-60 -71.5t-43 -101t-16.5 -115.5v-13z
M63 -18q38 0 75 21.5t72.5 58t70 85t68.5 103.5q-29 -5 -63.5 -19t-69 -33.5t-66.5 -43.5t-57 -48.5t-40 -49t-15 -44.5q0 -16 8.5 -23t16.5 -7zM760 738q-26 0 -51.5 -16.5t-52 -46t-54 -69t-55.5 -85.5q42 12 84.5 34.5t77 49.5t56.5 56t22 54q0 12 -7.5 17.5t-19.5 5.5z
M553 730l-54 104l19 9l43 -70l111 75l15 -15l-129 -103h-5z" />
    <glyph glyph-name="zcaron" unicode="&#x17e;" horiz-adv-x="326" 
d="M104 188h61q25 30 41 53q-13 -6 -24 -10t-24 -4q-29 0 -45 16q-10 -17 -22.5 -35.5t-26.5 -38.5l-7 5q14 20 27 40t23 37q-8 12 -8 33q0 22 8.5 42.5t30.5 20.5q11 0 14.5 -10.5t3.5 -18.5t-3.5 -18t-8.5 -19t-11 -16.5t-11 -11.5q8 -11 18 -12.5t22 -1.5q24 0 47.5 13
t31.5 36q0 4 -0.5 8.5t-0.5 9.5q0 10 3.5 18.5t15.5 8.5q2 0 6.5 -3.5t4.5 -14.5q0 -8 -6.5 -21.5t-17.5 -30t-25.5 -36t-30.5 -39.5h55l-5 -18h-65q-19 -23 -38 -44.5t-34 -37.5q35 29 58.5 39.5t38.5 10.5q19 0 28.5 -15t9.5 -32q0 -11 -5 -22t-11 -22.5t-11 -21.5t-5 -17
q0 -8 5 -8q16 0 42 23t53 54t51 62.5t37 48.5l6 -5q-14 -19 -38.5 -52t-52.5 -65.5t-55.5 -56.5t-46.5 -24q-17 0 -26.5 18.5t-9.5 33.5q0 12 5.5 24.5t11.5 23t11.5 18t5.5 11.5q0 11 -15 11q-12 0 -30 -10t-36 -23.5t-33 -28t-22 -23.5q3 -11 3 -23q0 -17 -6.5 -29.5
t-22.5 -12.5q-8 0 -10.5 6t-2.5 12q0 15 11 35t28.5 43.5t38.5 49t42 49.5h-51zM196 350l-54 104l19 9l43 -70l111 75l15 -15l-129 -103h-5z" />
    <glyph glyph-name="florin" unicode="&#x192;" horiz-adv-x="203" 
d="M36 -49q22 13 45 29.5t51 43t62 66t78 98.5l6 -5q-32 -45 -61.5 -81.5t-59 -67t-60.5 -55t-66 -45.5l-13 -43q-20 -64 -46.5 -118.5t-55.5 -94.5t-60 -63t-60 -23q-17 0 -28 12.5t-11 35.5q0 26 12 56.5t38 65t67.5 72t100.5 78.5l122 393h52zM-204 -398q25 0 48 21.5
t43.5 58t39 85t35.5 103.5l9 27q-57 -38 -96 -75t-63 -70.5t-34.5 -63t-10.5 -51.5q0 -20 7.5 -26.5t21.5 -8.5zM193 443q0 -22 -14 -35t-28 -13q-10 0 -17 7t-7 23q0 21 14 33.5t28 12.5q10 0 17 -7t7 -21z" />
    <glyph glyph-name="circumflex" unicode="&#x2c6;" horiz-adv-x="400" 
d="M445 502l54 -104l-19 -9l-43 70l-111 -75l-15 15l129 103h5z" />
    <glyph glyph-name="caron" unicode="&#x2c7;" horiz-adv-x="400" 
d="M365 384l-54 104l19 9l43 -70l111 75l15 -15l-129 -103h-5z" />
    <glyph glyph-name="macron" unicode="&#xaf;" horiz-adv-x="400" 
d="M318 416h190l-4 -26h-189z" />
    <glyph glyph-name="macron" unicode="&#x2c9;" horiz-adv-x="400" 
d="M318 416h190l-4 -26h-189z" />
    <glyph glyph-name="breve" unicode="&#x2d8;" horiz-adv-x="400" 
d="M358 461q11 -23 29.5 -32.5t39.5 -9.5q26 0 53 13.5t47 34.5l16 -11q-10 -13 -24.5 -25t-31 -21.5t-34.5 -15t-35 -5.5q-25 0 -45 15t-30 50z" />
    <glyph glyph-name="dotaccent" unicode="&#x2d9;" horiz-adv-x="400" 
d="M388 414q0 16 12 31t29 15q12 0 20 -8.5t8 -20.5q0 -16 -12.5 -31t-28.5 -15q-12 0 -20 8.5t-8 20.5z" />
    <glyph glyph-name="ring" unicode="&#x2da;" horiz-adv-x="400" 
d="M380 446q0 29 20 48.5t48 19.5q29 0 48.5 -19.5t19.5 -48.5q0 -28 -19.5 -48t-48.5 -20q-28 0 -48 20t-20 48zM403 446q0 -20 12.5 -33.5t32.5 -13.5t34 13.5t14 33.5t-14 33.5t-34 13.5t-32.5 -13.5t-12.5 -33.5z" />
    <glyph glyph-name="ogonek" unicode="&#x2db;" horiz-adv-x="400" 
d="M365 -115q-10 -12 -26.5 -19.5t-32.5 -7.5q-17 0 -29 10t-12 33q0 21 17.5 48t56.5 55h13q-25 -18 -41 -47t-16 -52q0 -15 8 -22t19 -7q9 0 18.5 4.5t17.5 11.5z" />
    <glyph glyph-name="tilde" unicode="&#x2dc;" horiz-adv-x="400" 
d="M320 399q5 17 22.5 32.5t41.5 15.5q12 0 24.5 -4.5t25 -10.5t24.5 -10.5t23 -4.5q17 0 25.5 12t14.5 20l16 -8q-5 -17 -21.5 -34t-42.5 -17q-12 0 -24.5 4.5t-25 10t-24.5 10t-23 4.5q-16 0 -24.5 -10.5t-14.5 -18.5z" />
    <glyph glyph-name="hungarumlaut" unicode="&#x2dd;" horiz-adv-x="400" 
d="M416 386l48 127l45 -2l-75 -127zM341 386l48 127l43 -2l-75 -127z" />
    <glyph glyph-name="Delta" unicode="&#x394;" horiz-adv-x="963" 
d="M485 1292l-399 -1218h778zM479 1497h21l461 -1497h-957z" />
    <glyph glyph-name="Delta" unicode="&#x2206;" horiz-adv-x="963" 
d="M485 1292l-399 -1218h778zM479 1497h21l461 -1497h-957z" />
    <glyph glyph-name="Omega" unicode="&#x3a9;" horiz-adv-x="1561" 
d="M1071 102v-24h320l84 244h57l-96 -322h-486q330 528 330 864q0 251 -120 404q-132 168 -376 168t-375 -168q-120 -153 -120 -404q0 -339 329 -864h-485l-96 322h57l82 -244h322v24q-293 437 -293 791q0 267 155 434q159 170 424 170q266 0 425 -170q155 -166 155 -434
q0 -359 -293 -791z" />
    <glyph glyph-name="Omega" unicode="&#x2126;" horiz-adv-x="1561" 
d="M1071 102v-24h320l84 244h57l-96 -322h-486q330 528 330 864q0 251 -120 404q-132 168 -376 168t-375 -168q-120 -153 -120 -404q0 -339 329 -864h-485l-96 322h57l82 -244h322v24q-293 437 -293 791q0 267 155 434q159 170 424 170q266 0 425 -170q155 -166 155 -434
q0 -359 -293 -791z" />
    <glyph glyph-name="mu" unicode="&#xb5;" horiz-adv-x="1030" 
d="M156 193q-29 -153 -52 -368q-25 -237 -88 -237q-57 0 -57 62q0 82 64 346l90 366l108 523h98l-110 -516q-8 -38 -8 -90q0 -88 43 -149q48 -69 133 -69q209 0 287 345l108 479h96l-114 -527q-31 -143 -31 -196q0 -96 84 -96q91 0 145 155q8 22 19 67q16 62 37 62
q26 0 26 -31q0 -70 -53 -180q-73 -151 -190 -151q-156 0 -156 170q0 24 2 34q-83 -212 -264 -212q-187 0 -217 213z" />
    <glyph glyph-name="mu" unicode="&#x3bc;" horiz-adv-x="1030" 
d="M156 193q-29 -153 -52 -368q-25 -237 -88 -237q-57 0 -57 62q0 82 64 346l90 366l108 523h98l-110 -516q-8 -38 -8 -90q0 -88 43 -149q48 -69 133 -69q209 0 287 345l108 479h96l-114 -527q-31 -143 -31 -196q0 -96 84 -96q91 0 145 155q8 22 19 67q16 62 37 62
q26 0 26 -31q0 -70 -53 -180q-73 -151 -190 -151q-156 0 -156 170q0 24 2 34q-83 -212 -264 -212q-187 0 -217 213z" />
    <glyph glyph-name="pi" unicode="&#x3c0;" horiz-adv-x="1274" 
d="M1243 885l-18 -84h-307q-57 -250 -92 -576q-29 -268 -103 -268q-76 0 -76 78q0 12 102 355q108 365 119 411h-358q-56 -252 -91 -576q-29 -268 -104 -268t-75 80q0 17 101 356q110 368 120 408h-180q-91 0 -138 -90q-25 -48 -51 -172h-65q28 163 89 243q77 103 226 103
h901z" />
    <glyph glyph-name="endash" unicode="&#x2013;" horiz-adv-x="416" 
d="M77 217h293l-10 -34h-293z" />
    <glyph glyph-name="emdash" unicode="&#x2014;" horiz-adv-x="609" 
d="M90 217h473l-10 -34h-473z" />
    <glyph glyph-name="quoteleft" unicode="&#x2018;" horiz-adv-x="109" 
d="M178 512q-38 -13 -51.5 -38.5t-13.5 -69.5q0 -31 -11.5 -46t-24.5 -15q-9 0 -16 8t-7 24t8.5 38t23.5 44t36.5 39.5t47.5 24.5z" />
    <glyph glyph-name="quoteright" unicode="&#x2019;" horiz-adv-x="109" 
d="M54 352q38 13 51.5 38.5t13.5 69.5q0 31 11.5 46t24.5 15q9 0 16 -8t7 -24t-8.5 -38t-23.5 -44t-36.5 -39.5t-47.5 -24.5z" />
    <glyph glyph-name="quotesinglbase" unicode="&#x201a;" horiz-adv-x="164" 
d="M-3 -93q38 13 51.5 38.5t13.5 69.5q0 31 11.5 46t24.5 15q9 0 16 -8t7 -24t-8.5 -38t-23.5 -44t-36.5 -39.5t-47.5 -24.5z" />
    <glyph glyph-name="quotedblleft" unicode="&#x201c;" horiz-adv-x="213" 
d="M282 512q-38 -13 -51.5 -38.5t-13.5 -69.5q0 -31 -11.5 -46t-24.5 -15q-9 0 -16 8t-7 24t8.5 38t23.5 44t36.5 39.5t47.5 24.5zM178 512q-38 -13 -51.5 -38.5t-13.5 -69.5q0 -31 -11.5 -46t-24.5 -15q-9 0 -16 8t-7 24t8.5 38t23.5 44t36.5 39.5t47.5 24.5z" />
    <glyph glyph-name="quotedblright" unicode="&#x201d;" horiz-adv-x="213" 
d="M54 352q38 13 51.5 38.5t13.5 69.5q0 31 11.5 46t24.5 15q9 0 16 -8t7 -24t-8.5 -38t-23.5 -44t-36.5 -39.5t-47.5 -24.5zM158 352q38 13 51.5 38.5t13.5 69.5q0 31 11.5 46t24.5 15q9 0 16 -8t7 -24t-8.5 -38t-23.5 -44t-36.5 -39.5t-47.5 -24.5z" />
    <glyph glyph-name="quotedblbase" unicode="&#x201e;" horiz-adv-x="240" 
d="M-3 -93q38 13 51.5 38.5t13.5 69.5q0 31 11.5 46t24.5 15q9 0 16 -8t7 -24t-8.5 -38t-23.5 -44t-36.5 -39.5t-47.5 -24.5zM101 -93q38 13 51.5 38.5t13.5 69.5q0 31 11.5 46t24.5 15q9 0 16 -8t7 -24t-8.5 -38t-23.5 -44t-36.5 -39.5t-47.5 -24.5z" />
    <glyph glyph-name="dagger" unicode="&#x2020;" horiz-adv-x="369" 
d="M113 445h113l108 255h71l-124 -255h103l-8 -18h-103l-274 -567h-19l239 567h-111z" />
    <glyph glyph-name="daggerdbl" unicode="&#x2021;" horiz-adv-x="369" 
d="M125 477h115l94 223h71l-108 -223h99l-8 -18h-100l-57 -118h117l-8 -18h-117l-224 -463h-19l195 463h-103l5 18h105l50 118h-112z" />
    <glyph glyph-name="bullet" unicode="&#x2022;" horiz-adv-x="334" 
d="M158 273q0 22 8.5 42t23.5 35.5t35.5 24.5t43.5 9q16 0 30.5 -6.5t26 -17.5t18.5 -27t7 -34q0 -20 -10 -38.5t-25.5 -33t-35.5 -23t-40 -8.5q-35 0 -58.5 21t-23.5 56z" />
    <glyph glyph-name="ellipsis" unicode="&#x2026;" horiz-adv-x="355" 
d="M63 24q0 16 12 31t29 15q12 0 20 -8.5t8 -20.5q0 -16 -12 -31t-28 -15q-12 0 -20.5 8.5t-8.5 20.5zM167 24q0 16 12 31t29 15q12 0 20 -8.5t8 -20.5q0 -16 -12 -31t-28 -15q-12 0 -20.5 8.5t-8.5 20.5zM271 24q0 16 12 31t29 15q12 0 20 -8.5t8 -20.5q0 -16 -12 -31
t-28 -15q-12 0 -20.5 8.5t-8.5 20.5z" />
    <glyph glyph-name="perthousand" unicode="&#x2030;" horiz-adv-x="694" 
d="M112 -25l282 575h23l-283 -575h-22zM377 229q18 0 31 -8t22 -21t13 -29.5t4 -34.5q0 -29 -9 -56t-23.5 -48.5t-33.5 -34.5t-39 -13q-34 0 -59 29t-25 74q0 27 10 53t26.5 45.5t38 31.5t44.5 12zM383 212q-18 0 -34 -17.5t-28 -42t-19 -50.5t-7 -43q0 -26 12 -42.5
t31 -16.5q21 0 38 12.5t30 33t20 45.5t7 50q0 35 -15 53t-35 18zM198 539q18 0 31 -8t22 -21t13 -29.5t4 -34.5q0 -29 -9 -56t-23.5 -48.5t-33.5 -34.5t-39 -13q-34 0 -59 29t-25 74q0 27 10 53t26.5 45.5t38 31.5t44.5 12zM204 522q-18 0 -34 -17.5t-28 -42t-19 -50.5
t-7 -43q0 -26 12 -42.5t31 -16.5q21 0 38 12.5t30 33t20 45.5t7 50q0 35 -15 53t-35 18zM603 229q18 0 31 -8t22 -21t13 -29.5t4 -34.5q0 -29 -9 -56t-23.5 -48.5t-33.5 -34.5t-39 -13q-34 0 -59 29t-25 74q0 27 10 53t26.5 45.5t38 31.5t44.5 12zM609 212q-18 0 -34 -17.5
t-28 -42t-19 -50.5t-7 -43q0 -26 12 -42.5t31 -16.5q21 0 38 12.5t30 33t20 45.5t7 50q0 35 -15 53t-35 18z" />
    <glyph glyph-name="guilsinglleft" unicode="&#x2039;" horiz-adv-x="233" 
d="M151 25l-75 126l135 109l11 -12l-105 -103l50 -116z" />
    <glyph glyph-name="guilsinglright" unicode="&#x203a;" horiz-adv-x="233" 
d="M147 260l75 -126l-135 -109l-11 12l105 103l-50 116z" />
    <glyph glyph-name="fraction" unicode="&#x2044;" horiz-adv-x="124" 
d="M-80 -25l282 575h23l-283 -575h-22z" />
    <glyph glyph-name="franc" unicode="&#x20a3;" horiz-adv-x="1282" 
d="M366 -22q56 18 103.5 52.5t87 81t71 103t55.5 118.5q-45 -25 -90.5 -60t-87.5 -80t-78 -99t-61 -116zM878 384q-12 3 -27 3q-43 0 -97 -21q-31 -87 -74.5 -155t-95.5 -118.5t-109 -83t-115 -47.5q-14 -38 -23.5 -78t-13.5 -84l-14 2q12 86 39 157q-50 -11 -94 -11
q-39 0 -75.5 8t-65 27t-46 49t-17.5 75q0 48 23.5 91.5t62 75.5t87 51t99.5 19q15 0 36.5 -3.5t41.5 -15t34 -33.5t14 -59q0 -41 -21.5 -71t-55 -50t-74 -29.5t-77.5 -9.5q-17 0 -33 1t-25 4l6 13q9 -4 35 -4q35 0 75.5 11t74.5 32t56.5 50.5t22.5 65.5q0 27 -11.5 43.5
t-29 26t-38.5 13t-40 3.5q-45 0 -90 -18.5t-80 -50.5t-57 -75t-22 -92q0 -34 16.5 -59.5t42.5 -43t58.5 -26t65.5 -8.5q57 0 107 15q28 70 66.5 129.5t83.5 107.5t93 84.5t95 60.5q5 14 9.5 28t9.5 28q16 52 34 100.5t40 92.5t50.5 83t66.5 72q-25 3 -61 8t-78.5 10.5
t-91 9.5t-99.5 4t-107 -16.5t-103 -48.5t-77.5 -78.5t-30.5 -105.5q0 -28 9 -53.5t28.5 -45t51 -31.5t76.5 -12q55 0 104 19t85.5 48.5t57.5 63.5t21 64q0 29 -23 51.5t-71 22.5q-53 0 -105.5 -34t-116.5 -114l-6 11q40 54 74 83.5t62.5 44t51.5 17t42 2.5q43 0 73 -24
t30 -69q0 -43 -20.5 -80.5t-56.5 -65.5t-84 -44t-103 -16q-38 0 -73 9t-61 28.5t-41.5 50t-15.5 73.5q0 45 18 84.5t48.5 72.5t71 59.5t85.5 44.5t91.5 27.5t89.5 9.5q46 0 92 -6t92.5 -13.5t93 -13.5t94.5 -6q19 0 38.5 6.5t35.5 14.5l-2 -15q-33 -22 -76 -35t-86 -13h-10
q-36 -37 -58 -75t-37 -80t-27 -89.5t-28 -102.5l-9 -28q23 8 44.5 12t41.5 4q19 0 35 -4q1 6 4 11q6 16 24 16q20 0 20 -21q0 -14 -5 -28q24 -22 24 -65v-7q7 -13 7 -31q0 -26 -12.5 -59.5t-27.5 -66t-27.5 -59.5t-12.5 -40q0 -14 5 -16t11 -2q21 0 46.5 17.5t53 46t56 64.5
t57.5 74l6 -5q-24 -34 -53 -71t-59 -67.5t-59 -50.5t-54 -20q-11 0 -17.5 8t-11 19.5t-6 23t-1.5 18.5q0 28 12 58q7 19 15 37q-29 -23 -63 -39q-37 -18 -70.5 -29.5t-60.5 -17t-38 -5.5h-5l1 10q13 2 40 8.5t59.5 18.5t66.5 30t62 42q17 14 30 30l13 26q11 24 11 40
q0 10 -3 21.5t-17 11.5q-8 -19 -27.5 -50.5t-43.5 -65.5l-7 5q24 33 42.5 64.5t25.5 51.5q-5 3 -9.5 18t-4.5 27v7zM932 321q-1 25 -13 40q-6 -12 -12 -23q14 -8 25 -17z" />
    <glyph glyph-name="u20AB" unicode="&#x20ab;" horiz-adv-x="585" 
d="M260.25 492.75h89.25l35.25 116.25h41.25q-9.75 -31.5 -14.625 -47.625t-21.375 -68.625h45l-7.5 -25.5h-45q-43.5 -137.25 -75.375 -240.375t-31.875 -135.375q0 -3 1.125 -5.625t7.125 -2.625q9 0 26.625 13.875t38.625 35.625t43.125 48.375t40.125 52.875l4.5 -3.75
q-18.75 -27 -40.875 -54.75t-42.75 -50.25t-38.25 -36.75t-27.375 -14.25q-11.25 0 -18.375 6.375t-11.625 17.625t-6 25.875t-1.5 30.375q-5.25 -8.25 -13.875 -22.5t-19.5 -27.75t-23.25 -23.25t-25.875 -9.75q-6 0 -16.5 4.875t-20.25 17.625t-16.875 34.125
t-7.125 55.125q0 19.5 16.5 46.5t39.375 51.75t46.5 42t38.625 17.25q4.5 0 10.5 -1.5t12 -7.125t10.875 -16.125t7.875 -27.75l53.25 179.25h-89.25zM278.25 286.5q0 13.5 -6.75 28.125t-21.75 14.625q-15.75 0 -34.125 -20.25t-34.125 -51t-26.625 -67.125
t-10.875 -68.625q0 -15.75 4.125 -27t14.625 -11.25q19.5 0 40.125 21t37.5 51.75t27.375 66t10.5 63.75zM139.396 45.8984h292.391l-8.49902 -28.8984h-292.392z" />
    <glyph glyph-name="trademark" unicode="&#x2122;" horiz-adv-x="691" 
d="M272 538h-20q-2 19 -4 35.5t-8 28.5t-17 18.5t-30 6.5h-11v-208q0 -11 5.5 -13t13.5 -3h32v-23h-147v23h35q8 0 12.5 5t4.5 12v207h-9q-19 0 -30 -6.5t-17 -18.5t-8.5 -28.5t-4.5 -35.5h-19v113h222v-113zM550 403q8 0 12.5 5t4.5 12v195l-88 -235h-13l-88 233v-194
q0 -11 5 -13t14 -3h33v-23h-130v23h35q7 0 11.5 5t4.5 12v191q0 8 -4.5 13t-11.5 5h-35v22h105l76 -194l74 194h110v-22h-34q-9 -2 -14 -4.5t-5 -12.5v-193q0 -11 5 -13t14 -3h34v-23h-150v23h35z" />
    <glyph glyph-name="partialdiff" unicode="&#x2202;" horiz-adv-x="1014" 
 />
    <glyph glyph-name="product" unicode="&#x220f;" horiz-adv-x="500" 
d="M63 500h351v-16h-47v-442h47v-15h-117v15h53v442h-224v-442h54v-15h-117v15h47v442h-47v16z" />
    <glyph glyph-name="summation" unicode="&#x2211;" horiz-adv-x="600" 
d="M64 535h305l21 -81h-19l-14 58q-2 6 -7 6h-247l285 -255v-11l-269 -230h257q16 0 21 3q7 3 11 16l21 66h19l-32 -105h-351l301 255l-302 267v11z" />
    <glyph glyph-name="minus" unicode="&#x2212;" horiz-adv-x="416" 
d="M77 217h293l-10 -34h-293z" />
    <glyph glyph-name="periodcentered" horiz-adv-x="213" 
d="M127 251q0 16 12 31t29 15q12 0 20 -8.5t8 -20.5q0 -16 -12.5 -31t-28.5 -15q-12 0 -20 8.5t-8 20.5z" />
    <glyph glyph-name="radical" unicode="&#x221a;" horiz-adv-x="600" 
d="M483 654h70v-22h-56l-250 -673h-8l-139 384l-45 -15l-6 15l90 32l120 -325z" />
    <glyph glyph-name="infinity" unicode="&#x221e;" horiz-adv-x="700" 
d="M363 142q44 -65 119 -65q47 0 76 27q26 25 26 61q0 34 -23 59q-26 28 -70 28q-45 0 -82 -40q-20 -22 -46 -70zM341 177q-43 65 -119 65q-47 0 -76 -26q-26 -25 -26 -61q0 -34 23 -59q26 -29 70 -29q45 0 82 40q19 21 46 70zM359 130q-55 -82 -130 -82q-57 0 -92 35
q-33 32 -33 76q0 45 27 76q32 35 89 35q78 0 124 -83q54 85 135 85q54 0 89 -36q32 -33 32 -75q0 -45 -28 -76q-31 -35 -89 -35q-73 0 -124 80z" />
    <glyph glyph-name="integral" unicode="&#x222b;" horiz-adv-x="400" 
d="M287 623q16 0 27 -8q12 -10 12 -25q0 -28 -25 -28q-17 0 -31 17t-11 17q-34 0 -36 -193q-1 -59 -1 -90q-3 -116 -12 -166q-23 -118 -88 -118q-16 0 -28 8q-13 9 -13 24q0 30 30 30q19 0 28.5 -18t10.5 -18q34 0 37 244v30q1 116 11 171q22 123 89 123z" />
    <glyph glyph-name="approxequal" unicode="&#x2248;" horiz-adv-x="700" 
d="M583 156v-24q-73 -51 -133 -51q-35 0 -101.5 24.5t-97.5 24.5q-52 0 -133 -56v25q70 51 133 51q34 0 99 -24.5t100 -24.5q53 0 133 55zM583 264v-25q-72 -51 -133 -51q-35 0 -101.5 24.5t-97.5 24.5q-54 0 -133 -55v24q70 51 133 51q34 0 99 -24.5t100 -24.5q52 0 133 56
z" />
    <glyph glyph-name="approxequal" unicode="&#x22f2;" horiz-adv-x="700" 
d="M583 156v-24q-73 -51 -133 -51q-35 0 -101.5 24.5t-97.5 24.5q-52 0 -133 -56v25q70 51 133 51q34 0 99 -24.5t100 -24.5q53 0 133 55zM583 264v-25q-72 -51 -133 -51q-35 0 -101.5 24.5t-97.5 24.5q-54 0 -133 -55v24q70 51 133 51q34 0 99 -24.5t100 -24.5q52 0 133 56
z" />
    <glyph glyph-name="notequal" unicode="&#x2260;" horiz-adv-x="500" 
d="M355 316l15 -11l-64 -81h115v-18h-125l-64 -82h189v-18h-200l-71 -92l-15 11l64 81h-115v18h125l64 82h-189v18h200z" />
    <glyph glyph-name="lessequal" unicode="&#x2264;" horiz-adv-x="584" 
d="M202 160l-103 183l207 179l11 -12l-177 -173l78 -173zM110 165h344l-10 -34h-344z" />
    <glyph glyph-name="greaterequal" unicode="&#x2265;" horiz-adv-x="584" 
d="M175 502l103 -183l-207 -179l-11 12l177 173l-78 173zM123 165h344l-10 -34h-344z" />
    <glyph glyph-name="lozenge" unicode="&#x25ca;" horiz-adv-x="400" 
d="M203 1021l-129 -273l129 -276l129 276zM203 1103l167 -355l-167 -357l-167 357z" />
    <glyph glyph-name="fi" unicode="&#xf001;" horiz-adv-x="782" 
 />
    <glyph glyph-name="fl" unicode="&#xf002;" horiz-adv-x="797" 
 />
    <glyph glyph-name="glyph258" horiz-adv-x="322" 
 />
    <glyph glyph-name="glyph259" horiz-adv-x="322" 
 />
    <glyph glyph-name="nonbreakingspace" unicode="&#xa0;" horiz-adv-x="645" 
 />
    <glyph glyph-name="Vietnam Flag" unicode="&#xf000;" horiz-adv-x="700" 
d="M296 826q-65 0 -127 37v-265q0 -5 42 -23q45 -20 92 -20q46 0 165 39q48 12 77 12h19q23 0 49 -8v265q0 5 -45 11l-19 1q-58 0 -187 -42q-31 -7 -66 -7zM415 731l59 21h2l-41 -50l34 -47l-56 18q-3 0 -44 -51l7 60q-2 3 -58 17v2q58 15 62 21l3 59zM152 885h10
q13 0 16 -10q-3 -9 -10 -9v-842h44l3 -3v-18l-3 -3h-119l-3 3v18l3 3h53v842q-7 0 -10 7v3q5 9 16 9z" />
    <glyph glyph-name="sfthyphen" unicode="&#xad;" horiz-adv-x="569" 
d="M406 266l-54 -71h-313l53 71h314z" />
    <glyph glyph-name="ch270" unicode="&#xb7;" horiz-adv-x="322" 
d="M100 389q0 57 58 57q57 0 57 -57t-57 -57q-22 0 -40 17.5t-18 39.5z" />
    <glyph glyph-name="ch270" unicode="&#x2219;" horiz-adv-x="322" 
d="M100 389q0 57 58 57q57 0 57 -57t-57 -57q-22 0 -40 17.5t-18 39.5z" />
    <glyph glyph-name="euro" horiz-adv-x="664" 
d="M47 348h119q50 78 115.5 146.5t133.5 119t131.5 80t108.5 29.5q24 0 41.5 -15.5t17.5 -42.5q0 -51 -34 -107l-13 4q17 26 26.5 52t9.5 51q0 22 -16.5 32t-29.5 10q-50 0 -106 -29t-111.5 -78t-108 -114t-95.5 -138h284l-10 -24h-288q-13 -23 -23.5 -44.5t-20.5 -44.5h312
l-10 -24h-312q-24 -59 -37 -115.5t-13 -108.5q0 -17 5 -44.5t21 -53t47 -44t82 -18.5q53 0 106.5 19.5t100.5 54.5l8 -10q-45 -35 -98.5 -55t-108.5 -20q-51 0 -90.5 20t-66.5 54t-41 78t-14 91q0 73 28 152h-90l10 24h90q18 44 44 89h-114z" />
    <glyph glyph-name="glyph261" horiz-adv-x="180" 
d="M65 439q0 5 11 20q13 20 30 37q23 22 47 45q26 29 26 56q0 24 -28 24q-10 0 -22 -9t-12 -19l6.5 -6.5t6.5 -14.5q0 -17 -17 -17q-22 0 -22 23q0 26 23.5 46t50.5 20q65 0 65 -58q0 -27 -24 -48q-3 -4 -47 -32q-38 -25 -69 -59q-14 -15 -18 -15q-7 0 -7 7z" />
    <glyph glyph-name="glyph262" horiz-adv-x="267" 
d="M115 502l54 -104l-19 -9l-43 70l-111 -75l-15 15l129 103h5zM153 495q39 25 66 57.5t35 64.5l35 -24q-7 -19 -21 -36.5t-32 -31.5t-36.5 -24.5t-34.5 -15.5z" />
    <glyph glyph-name="glyph263" horiz-adv-x="342" 
d="M178 502l54 -104l-19 -9l-43 70l-111 -75l-15 15l129 103h5zM287 546q-16 5 -34.5 15.5t-36.5 24.5t-32 31.5t-21 36.5l35 24q8 -32 35 -64.5t66 -57.5z" />
    <glyph glyph-name="glyph264" horiz-adv-x="223" 
d="M107 506l54 -104l-19 -9l-43 70l-111 -75l-15 15l129 103h5zM19 540q0 5 11 20q13 20 30 37q23 22 47 45q26 29 26 56q0 24 -28 24q-10 0 -22 -9t-12 -19l6.5 -6.5t6.5 -14.5q0 -17 -17 -17q-22 0 -22 23q0 26 23.5 46t50.5 20q65 0 65 -58q0 -27 -24 -48q-3 -4 -47 -32
q-38 -25 -69 -59q-14 -15 -18 -15q-7 0 -7 7z" />
    <glyph glyph-name="glyph265" horiz-adv-x="305" 
d="M163 502l54 -104l-19 -9l-43 70l-111 -75l-15 15l129 103h5zM0 570q5 17 22.5 32.5t41.5 15.5q12 0 24.5 -4.5t25 -10.5t24.5 -10.5t23 -4.5q17 0 25.5 12t14.5 20l16 -8q-5 -17 -21.5 -34t-42.5 -17q-12 0 -24.5 4.5t-25 10t-24.5 10t-23 4.5q-16 0 -24.5 -10.5
t-14.5 -18.5z" />
    <glyph glyph-name="glyph266" horiz-adv-x="721" 
d="M272 461q11 -23 29.5 -32.5t39.5 -9.5q26 0 53 13.5t47 34.5l16 -11q-10 -13 -24.5 -25t-31 -21.5t-34.5 -15t-35 -5.5q-25 0 -45 15t-30 50zM340 506q39 25 66 57.5t35 64.5l35 -24q-7 -19 -21 -36.5t-32 -31.5t-36.5 -24.5t-34.5 -15.5z" />
    <glyph glyph-name="glyph267" horiz-adv-x="721" 
d="M272 461q11 -23 29.5 -32.5t39.5 -9.5q26 0 53 13.5t47 34.5l16 -11q-10 -13 -24.5 -25t-31 -21.5t-34.5 -15t-35 -5.5q-25 0 -45 15t-30 50zM367 492q-16 5 -34.5 15.5t-36.5 24.5t-32 31.5t-21 36.5l35 24q8 -32 35 -64.5t66 -57.5z" />
    <glyph glyph-name="glyph268" horiz-adv-x="328" 
d="M70 475q11 -23 29.5 -32.5t39.5 -9.5q26 0 53 13.5t47 34.5l16 -11q-10 -13 -24.5 -25t-31 -21.5t-34.5 -15t-35 -5.5q-25 0 -45 15t-30 50zM149 517q0 5 11 20q13 20 30 37q23 22 47 45q26 29 26 56q0 24 -28 24q-10 0 -22 -9t-12 -19l6.5 -6.5t6.5 -14.5q0 -17 -17 -17
q-22 0 -22 23q0 26 23.5 46t50.5 20q65 0 65 -58q0 -27 -24 -48q-3 -4 -47 -32q-38 -25 -69 -59q-14 -15 -18 -15q-7 0 -7 7z" />
    <glyph glyph-name="glyph269" horiz-adv-x="333" 
d="M66 451q11 -23 29.5 -32.5t39.5 -9.5q26 0 53 13.5t47 34.5l16 -11q-10 -13 -24.5 -25t-31 -21.5t-34.5 -15t-35 -5.5q-25 0 -45 15t-30 50zM85 527q5 17 22.5 32.5t41.5 15.5q12 0 24.5 -4.5t25 -10.5t24.5 -10.5t23 -4.5q17 0 25.5 12t14.5 20l16 -8q-5 -17 -21.5 -34
t-42.5 -17q-12 0 -24.5 4.5t-25 10t-24.5 10t-23 4.5q-16 0 -24.5 -10.5t-14.5 -18.5z" />
    <glyph glyph-name="glyph270" horiz-adv-x="322" 
 />
    <glyph glyph-name="glyph271" unicode="&#x102;" horiz-adv-x="1077" 
d="M1066 948q11 -23 29.5 -32.5t39.5 -9.5q26 0 53 13.5t47 34.5l16 -11q-10 -13 -24.5 -25t-31 -21.5t-34.5 -15t-35 -5.5q-25 0 -45 15t-30 50zM167 101q21 -7 50 -7q36 0 74.5 11.5t71 32.5t53 51t20.5 66q0 25 -9 43t-25 30t-37 17.5t-46 5.5q-46 0 -98.5 -18
t-97.5 -49.5t-74.5 -76t-29.5 -96.5q0 -29 13 -57t40 -50t69.5 -35.5t101.5 -13.5q56 0 108 16.5t100.5 46t94 70t87.5 87.5q-23 33 -35 72.5t-12 84.5q0 32 7 61.5t22 52t40 36t61 13.5q34 0 60.5 -18t46.5 -47q48 72 91.5 140.5t84 124t78 93.5t73.5 50q3 0 13 -2t10 -15
q0 -7 -4 -16q-21 -44 -44.5 -101.5t-48 -123t-48.5 -136t-46.5 -139.5t-42 -134t-40.5 -136q35 -1 63 4.5t62 24.5t63.5 50.5t55.5 73.5l6 -5q-29 -44 -57.5 -76.5t-58.5 -51t-61 -27.5t-77 -9q-10 -41 -14 -58h-59q8 28 18 65q-62 17 -109.5 49t-88.5 87q-44 -48 -90.5 -89
t-97 -71t-105 -47t-112.5 -17q-40 0 -82 9.5t-76.5 31t-56.5 56t-22 83.5q0 62 28.5 112.5t73 86t97.5 55t102 19.5q31 0 58.5 -8.5t48 -26t32.5 -45t12 -64.5q0 -35 -23 -65.5t-58.5 -54t-78.5 -37t-83 -13.5q-26 0 -48 6zM1144 817q-33 -14 -68 -52t-73.5 -92.5t-81 -121
t-89.5 -136.5q28 -48 40.5 -107t12.5 -106v-18q27 83 61 177t70 181t70.5 158.5t62.5 109.5q0 7 -5 7zM824 402q-38 -56 -77.5 -110.5t-83.5 -105.5q32 -51 78 -86t104 -54q8 29 13 48.5t11 41.5q3 15 4 30t1 31q0 55 -12 109.5t-38 95.5zM654 200q43 51 82.5 105.5
t77.5 111.5q-20 27 -47 43t-62 16q-27 0 -44.5 -10.5t-27.5 -28t-14 -39.5t-4 -46q0 -42 10.5 -80.5t28.5 -71.5z" />
    <glyph glyph-name="glyph272" unicode="&#x103;" 
d="M341 305q-45 -126 -66 -201t-21 -106q0 -4 1.5 -7.5t9.5 -3.5q12 0 35.5 18.5t51.5 47.5t57.5 64.5t53.5 70.5l6 -5q-25 -36 -54.5 -73t-57 -67t-51 -49t-36.5 -19q-15 0 -24.5 8.5t-15.5 23.5t-8 34.5t-2 40.5q-7 -11 -18.5 -30t-26 -37t-31 -31t-34.5 -13q-8 0 -22 6.5
t-27 23.5t-22.5 45.5t-9.5 73.5q0 26 22 62t52.5 69t62 56t51.5 23q6 0 14 -2t16 -9.5t14.5 -21.5t10.5 -37l13 45h56zM258 258q0 18 -9 37.5t-29 19.5q-21 0 -45.5 -27t-45.5 -68t-35.5 -89.5t-14.5 -91.5q0 -21 5.5 -36t19.5 -15q26 0 53.5 28t50 69t36.5 88t14 85z
M143 460q11 -23 29.5 -32.5t39.5 -9.5q26 0 53 13.5t47 34.5l16 -11q-10 -13 -24.5 -25t-31 -21.5t-34.5 -15t-35 -5.5q-25 0 -45 15t-30 50z" />
    <glyph glyph-name="glyph273" unicode="&#x128;" horiz-adv-x="650" 
d="M815 654l-29 -42q-29 -42 -43.5 -92t-30.5 -99q-14 -42 -26 -83.5t-27 -82t-33.5 -79t-44.5 -74.5q-35 -48 -79 -83t-93.5 -57.5t-102 -33t-103.5 -10.5q-38 0 -74.5 9.5t-65 29t-46.5 49.5t-18 72q0 38 14 70t37 57.5t51.5 45.5t58 33t57 20t48.5 7t46 -5t46.5 -16
t35.5 -29t14 -44q0 -43 -19 -76t-49.5 -56t-69 -35t-78.5 -12q-28 0 -49.5 2.5t-31.5 7.5v14q11 -2 21 -4.5t20 -2.5q34 0 76 11t79 31.5t62.5 49.5t25.5 65q0 23 -10.5 39t-27 25.5t-37 14t-39.5 4.5q-48 0 -96 -18.5t-86.5 -49t-62 -69t-23.5 -78.5q0 -33 14.5 -61
t38.5 -47.5t55.5 -30.5t66.5 -11q133 0 223.5 60t148.5 180q22 45 37.5 90.5t32.5 93.5q8 23 23 55.5t32 65.5t34 63t29 49q-7 -5 -18.5 -14.5t-25 -18.5t-28 -15.5t-26.5 -6.5q-9 0 -18.5 7t-16.5 18t-11.5 25t-4.5 28q0 8 4 20.5t8.5 28.5t8.5 34t4 38q0 22 -14.5 36.5
t-35.5 23t-44 11.5t-39 3q-63 0 -118 -26t-96 -66.5t-65 -90t-24 -95.5q0 -63 26.5 -92t74.5 -29q33 0 66 22t60 54.5t43.5 69.5t16.5 68q0 29 -17.5 45.5t-44.5 16.5q-25 0 -49 -15.5t-43.5 -39t-31.5 -51.5t-13 -53h-13q0 21 11 50t31 55.5t48 45t62 18.5q39 0 58.5 -25
t19.5 -62q0 -41 -17 -79.5t-45 -68t-63.5 -47.5t-71.5 -18q-56 0 -87.5 34.5t-31.5 93.5t27.5 113t72 95t101 65.5t115.5 24.5q29 0 60 -8t56.5 -24.5t42 -40.5t16.5 -57q0 -17 -4.5 -32.5t-10 -31.5t-10 -31.5t-4.5 -32.5q0 -10 2 -14t16 -4q10 0 28 12.5t39 30.5
t42.5 38.5t38.5 37.5zM700 750q5 17 22.5 32.5t41.5 15.5q12 0 24.5 -4.5t25 -10.5t24.5 -10.5t23 -4.5q17 0 25.5 12t14.5 20l16 -8q-5 -17 -21.5 -34t-42.5 -17q-12 0 -24.5 4.5t-25 10t-24.5 10t-23 4.5q-16 0 -24.5 -10.5t-14.5 -18.5z" />
    <glyph glyph-name="glyph274" unicode="&#x129;" horiz-adv-x="206" 
d="M106 518q5 17 22.5 32.5t41.5 15.5q12 0 24.5 -4.5t25 -10.5t24.5 -10.5t23 -4.5q17 0 25.5 12t14.5 20l16 -8q-5 -17 -21.5 -34t-42.5 -17q-12 0 -24.5 4.5t-25 10t-24.5 10t-23 4.5q-16 0 -24.5 -10.5t-14.5 -18.5zM193 443q0 -22 -14 -35t-28 -13q-10 0 -17 7t-7 23
q0 21 14 33.5t28 12.5q10 0 17 -7t7 -21zM54 167q9 29 21 64q11 36 23 74h55q-2 -5 -9 -25t-17 -48.5t-20.5 -62t-19.5 -66t-15 -60.5t-6 -45q0 -4 1.5 -7.5t9.5 -3.5q12 0 35.5 18.5t51.5 47.5t57.5 64.5t53.5 70.5l6 -5q-25 -36 -54.5 -73t-57 -67t-51 -49t-36.5 -19
q-30 0 -40 29.5t-10 72.5q0 12 6 35q3 13 8 28q-30 -38 -56 -60l-5 5q32 32 69 82z" />
    <glyph glyph-name="glyph275" unicode="&#x168;" horiz-adv-x="867" 
d="M887 669q-12 -45 -31.5 -103t-42 -120.5t-45 -127t-40.5 -122.5t-29.5 -106.5t-11.5 -79.5q0 -1 1 -5.5t4 -9t8 -8t14 -3.5q10 0 27 5.5t43.5 26t63.5 61t88 111.5l6 -5q-34 -47 -65.5 -86.5t-60 -68.5t-54 -45.5t-48.5 -16.5q-20 0 -32.5 15t-19 36.5t-9 45.5t-2.5 42
q0 26 11 69.5t28 96t38 110.5t41 112q-30 -61 -63.5 -123.5t-69 -121.5t-72 -110.5t-73 -90t-71.5 -60.5t-67 -22q-14 0 -28.5 9.5t-25.5 28t-18 45t-7 61.5q0 51 12.5 98t31 92t40.5 88.5t40.5 87t31 87t12.5 89.5q0 75 -48 118.5t-142 43.5q-58 0 -122 -26t-117 -70.5
t-88 -104t-35 -126.5q0 -35 7 -67t23 -56t42 -38.5t65 -14.5q45 0 89 26t79 66t57 88t22 92q0 30 -17.5 53t-52.5 23q-41 0 -73 -17t-56 -44t-40.5 -60t-25.5 -65l-10 3q9 33 27.5 67.5t45 62.5t59 46t69.5 18q26 0 44 -9.5t29 -25t16 -35t5 -38.5q0 -51 -17.5 -98t-49 -83
t-76.5 -58.5t-99 -26.5q-83 0 -129 45.5t-46 133.5q0 73 34 137t88.5 111.5t122.5 74.5t136 27q48 0 90 -14.5t73 -43t49 -70t18 -95.5q0 -42 -13.5 -88.5t-33.5 -95t-43 -97t-43 -96t-33.5 -91.5t-13.5 -83q0 -9 2 -21.5t6.5 -24t12 -20t17.5 -8.5q48 0 105.5 53t119 142.5
t124 206t120.5 243.5l14 48h58zM543 739q5 17 22.5 32.5t41.5 15.5q12 0 24.5 -4.5t25 -10.5t24.5 -10.5t23 -4.5q17 0 25.5 12t14.5 20l16 -8q-5 -17 -21.5 -34t-42.5 -17q-12 0 -24.5 4.5t-25 10t-24.5 10t-23 4.5q-16 0 -24.5 -10.5t-14.5 -18.5z" />
    <glyph glyph-name="glyph276" unicode="&#x169;" 
d="M198 408q5 17 22.5 32.5t41.5 15.5q12 0 24.5 -4.5t25 -10.5t24.5 -10.5t23 -4.5q17 0 25.5 12t14.5 20l16 -8q-5 -17 -21.5 -34t-42.5 -17q-12 0 -24.5 4.5t-25 10t-24.5 10t-23 4.5q-16 0 -24.5 -10.5t-14.5 -18.5zM54 167q7 25 17 56q11 38 25 82h52
q-38 -121 -60 -199t-22 -108q0 -4 1.5 -7.5t9.5 -3.5q20 0 66.5 48.5t106.5 137.5l40 132h52q-38 -121 -60 -199t-22 -108q0 -4 1.5 -7.5t9.5 -3.5q7 0 26.5 14.5t45.5 41t57.5 63.5t63.5 82l6 -5q-25 -36 -55 -73t-57.5 -67t-49.5 -49t-32 -19q-17 0 -27 8.5t-15 23.5
t-6.5 34.5t-1.5 40.5q0 10 15 61q-21 -30 -44.5 -60t-45.5 -54t-40.5 -39t-28.5 -15q-17 0 -27 8.5t-15 23.5t-6.5 34.5t-1.5 40.5q0 4 5 23q4 15 10 36q-31 -39 -57 -61l-5 5q32 32 69 82z" />
    <glyph glyph-name="glyph277" unicode="&#x1a0;" horiz-adv-x="649" 
d="M707 663q8 -16 13 -34q7 -32 7 -64q0 -59 -19.5 -125.5t-54.5 -132.5t-82.5 -126t-103 -106t-117 -73.5t-123.5 -27.5q-55 0 -94 28t-64 70.5t-36.5 93.5t-11.5 97q0 69 26.5 141t72 140t106.5 127.5t129.5 104.5t141.5 71t142 26h23.5t15.5 -1l-2 -13q-9 1 -17.5 1
h-16.5q-86 0 -161 -31t-138 -83.5t-112.5 -121.5t-83.5 -145.5t-52 -155t-18 -150.5q0 -33 7.5 -66t25.5 -60t48.5 -43.5t77.5 -16.5q53 0 109 26t109 69.5t100 102t82 123.5t55.5 133t20.5 131q0 28 -7 56.5t-21.5 51t-37.5 36.5t-55 14q-41 0 -81 -19t-76.5 -50.5
t-67.5 -72t-54 -83t-36 -84.5t-13 -76q0 -42 20.5 -72.5t59.5 -30.5q26 0 51 13.5t47 35.5t40 50t31.5 57t21 55.5t7.5 46.5l15 -2q0 -15 -7 -40.5t-19.5 -55.5t-31 -60.5t-42 -55.5t-51.5 -41t-59 -16q-33 0 -55 11.5t-35.5 31t-19.5 44t-6 51.5q0 43 15.5 87.5t41.5 86.5
t61.5 78.5t75 64t82 43.5t82.5 16q37 0 63.5 -16t43.5 -41l6 -10q44 15 61 42q18 30 18 82q0 37 16 54.5t33 17.5q13 0 22.5 -9.5t9.5 -28.5t-11.5 -45t-32 -51.5t-49.5 -46.5q-28 -19 -61 -28z" />
    <glyph glyph-name="glyph278" unicode="&#x1a1;" horiz-adv-x="335" 
d="M81 57q0 -8 0.5 -20t3.5 -24t9 -20.5t18 -8.5q18 0 35.5 9.5t34 24.5t31.5 34.5t27 40.5q-5 12 -9.5 31.5t-4.5 38.5q0 25 8.5 44t29.5 19q5 0 11 -2q0 10 -2.5 24.5t-8 28.5t-15 24t-22.5 10q-33 0 -59.5 -31t-46 -73t-30 -84.5t-10.5 -65.5zM280 260q23 9 33 25
q10 18 10 49q0 23 8.5 33.5t18.5 10.5q7 0 12.5 -5.5t5.5 -17.5q0 -11 -6.5 -27t-18 -31.5t-27.5 -27.5t-34 -17v-3q3 -19 3 -35q0 -25 -10 -58t-25 -63q4 -14 10.5 -22.5t22.5 -8.5q12 0 27.5 13t32 32.5t33 41.5t28.5 39l6 -5q-12 -17 -28.5 -39.5t-34 -42.5t-34.5 -34
t-32 -14t-24.5 10.5t-12.5 18.5q-9 -14 -23 -32t-31 -35t-36 -28.5t-39 -11.5q-23 0 -38 14.5t-25 35.5t-14 44t-4 40q0 23 19.5 59t48 70t60.5 58.5t58 24.5q19 0 31.5 -10.5t20.5 -26.5q5 -11 8 -24z" />
    <glyph glyph-name="glyph279" unicode="&#x1af;" horiz-adv-x="868" 
d="M883 669q32 14 46 36q18 30 18 82q0 37 16 54.5t33 17.5q13 0 22.5 -9.5t9.5 -28.5t-11.5 -45t-32 -51.5t-49.5 -46.5q-24 -17 -53 -25q-10 -39 -26 -87q-20 -58 -42.5 -120.5t-45 -127t-40.5 -122.5t-29.5 -106.5t-11.5 -79.5q0 -1 1 -5.5t4 -9t8 -8t14 -3.5
q10 0 27 5.5t43.5 26t63.5 61t88 111.5l6 -5q-34 -47 -65.5 -86.5t-60 -68.5t-54 -45.5t-48.5 -16.5q-20 0 -32.5 15t-19 36.5t-9 45.5t-2.5 42q0 26 11 69.5t28 96t38 110.5t41 112q-30 -61 -63.5 -123.5t-69 -121.5t-72 -110.5t-73 -90t-71.5 -60.5t-67 -22
q-14 0 -28.5 9.5t-25.5 28t-18 45t-7 61.5q0 51 12.5 98t31 92t40.5 88.5t40.5 87t31 87t12.5 89.5q0 75 -48 118.5t-142 43.5q-58 0 -122 -26t-117 -70.5t-88 -104t-35 -126.5q0 -35 7 -67t23 -56t42 -38.5t65 -14.5q45 0 89 26t79 66t57 88t22 92q0 30 -17.5 53t-52.5 23
q-41 0 -73 -17t-56 -44t-40.5 -60t-25.5 -65l-10 3q9 33 27.5 67.5t45 62.5t59 46t69.5 18q26 0 44 -9.5t29 -25t16 -35t5 -38.5q0 -51 -17.5 -98t-49 -83t-76.5 -58.5t-99 -26.5q-83 0 -129 45.5t-46 133.5q0 73 34 137t88.5 111.5t122.5 74.5t136 27q48 0 90 -14.5t73 -43
t49 -70t18 -95.5q0 -42 -13.5 -88.5t-33.5 -95t-43 -97t-43 -96t-33.5 -91.5t-13.5 -83q0 -9 2 -21.5t6.5 -24t12 -20t17.5 -8.5q48 0 105.5 53t119 142.5t124 206t120.5 243.5l14 48h54z" />
    <glyph glyph-name="glyph280" unicode="&#x1b0;" 
d="M341 303q8 5 13 11q11 15 11 41q0 18 9 27t20 9q7 0 12.5 -4.5t5.5 -14.5q0 -9 -7 -22t-19 -26t-29 -23q-9 -6 -19 -10q-35 -112 -56 -185q-22 -78 -22 -108q0 -4 1.5 -7.5t9.5 -3.5q7 0 26.5 14.5t45.5 41t57.5 63.5t63.5 82l6 -5q-25 -36 -55 -73t-57.5 -67t-49.5 -49
t-32 -19q-17 0 -27 8.5t-15 23.5t-6.5 34.5t-1.5 40.5q0 10 15 61q-21 -30 -44.5 -60t-45.5 -54t-40.5 -39t-28.5 -15q-17 0 -27 8.5t-15 23.5t-6.5 34.5t-1.5 40.5q0 4 5 23q4 15 10 36q-31 -39 -57 -61l-5 5q32 32 69 82q7 25 17 56q11 38 25 82h52q-38 -121 -60 -199
t-22 -108q0 -4 1.5 -7.5t9.5 -3.5q20 0 66.5 48.5t106.5 137.5l40 132h52q0 -1 -1 -2z" />
    <glyph glyph-name="glyph281" unicode="&#x1ea0;" horiz-adv-x="1077" 
d="M624 -101q0 16 12 31t29 15q12 0 20 -8.5t8 -20.5q0 -16 -12.5 -31t-28.5 -15q-12 0 -20 8.5t-8 20.5zM167 101q21 -7 50 -7q36 0 74.5 11.5t71 32.5t53 51t20.5 66q0 25 -9 43t-25 30t-37 17.5t-46 5.5q-46 0 -98.5 -18t-97.5 -49.5t-74.5 -76t-29.5 -96.5q0 -29 13 -57
t40 -50t69.5 -35.5t101.5 -13.5q56 0 108 16.5t100.5 46t94 70t87.5 87.5q-23 33 -35 72.5t-12 84.5q0 32 7 61.5t22 52t40 36t61 13.5q34 0 60.5 -18t46.5 -47q48 72 91.5 140.5t84 124t78 93.5t73.5 50q3 0 13 -2t10 -15q0 -7 -4 -16q-21 -44 -44.5 -101.5t-48 -123
t-48.5 -136t-46.5 -139.5t-42 -134t-40.5 -136q35 -1 63 4.5t62 24.5t63.5 50.5t55.5 73.5l6 -5q-29 -44 -57.5 -76.5t-58.5 -51t-61 -27.5t-77 -9q-10 -41 -14 -58h-59q8 28 18 65q-62 17 -109.5 49t-88.5 87q-44 -48 -90.5 -89t-97 -71t-105 -47t-112.5 -17q-40 0 -82 9.5
t-76.5 31t-56.5 56t-22 83.5q0 62 28.5 112.5t73 86t97.5 55t102 19.5q31 0 58.5 -8.5t48 -26t32.5 -45t12 -64.5q0 -35 -23 -65.5t-58.5 -54t-78.5 -37t-83 -13.5q-26 0 -48 6zM1144 817q-33 -14 -68 -52t-73.5 -92.5t-81 -121t-89.5 -136.5q28 -48 40.5 -107t12.5 -106
v-18q27 83 61 177t70 181t70.5 158.5t62.5 109.5q0 7 -5 7zM824 402q-38 -56 -77.5 -110.5t-83.5 -105.5q32 -51 78 -86t104 -54q8 29 13 48.5t11 41.5q3 15 4 30t1 31q0 55 -12 109.5t-38 95.5zM654 200q43 51 82.5 105.5t77.5 111.5q-20 27 -47 43t-62 16
q-27 0 -44.5 -10.5t-27.5 -28t-14 -39.5t-4 -46q0 -42 10.5 -80.5t28.5 -71.5z" />
    <glyph glyph-name="glyph282" unicode="&#x1ea1;" 
d="M341 305q-45 -126 -66 -201t-21 -106q0 -4 1.5 -7.5t9.5 -3.5q12 0 35.5 18.5t51.5 47.5t57.5 64.5t53.5 70.5l6 -5q-25 -36 -54.5 -73t-57 -67t-51 -49t-36.5 -19q-15 0 -24.5 8.5t-15.5 23.5t-8 34.5t-2 40.5q-7 -11 -18.5 -30t-26 -37t-31 -31t-34.5 -13q-8 0 -22 6.5
t-27 23.5t-22.5 45.5t-9.5 73.5q0 26 22 62t52.5 69t62 56t51.5 23q6 0 14 -2t16 -9.5t14.5 -21.5t10.5 -37l13 45h56zM258 258q0 18 -9 37.5t-29 19.5q-21 0 -45.5 -27t-45.5 -68t-35.5 -89.5t-14.5 -91.5q0 -21 5.5 -36t19.5 -15q26 0 53.5 28t50 69t36.5 88t14 85z
M130 -93q0 -22 -14 -35t-28 -13q-10 0 -17 7t-7 23q0 21 14 33.5t28 12.5q10 0 17 -7t7 -21z" />
    </font>
</defs>
</svg>
